<svg xmlns="http://www.w3.org/2000/svg" xmlns:xlink="http://www.w3.org/1999/xlink" width="190" height="152" viewBox="0 0 190 152">
  <defs>
    <clipPath id="clip-path">
      <rect id="Rect치ngulo_421298" data-name="Rect치ngulo 421298" width="190" height="152" transform="translate(180 265)" fill="#fff" stroke="#707070" stroke-width="1"/>
    </clipPath>
  </defs>
  <g id="Enmascarar_grupo_1211478" data-name="Enmascarar grupo 1211478" transform="translate(-180 -265)" clip-path="url(#clip-path)">
    <g id="Grupo_1217985" data-name="Grupo 1217985" transform="translate(0 -11.965)">
      <rect id="Rect치ngulo_421297" data-name="Rect치ngulo 421297" width="174" height="58" rx="10" transform="translate(190 335)" fill="#b1dbf0"/>
      <g id="industria-40" transform="translate(202.192 310.055)">
        <g id="Grupo_1217983" data-name="Grupo 1217983" transform="translate(2.133 2.133)">
          <g id="Grupo_1217981" data-name="Grupo 1217981">
            <path id="Trazado_1085742" data-name="Trazado 1085742" d="M67.5,159.25H81.506v8.532H67.5Z" transform="translate(-50.435 -116.091)" fill="#53d8f6" fill-rule="evenodd"/>
            <path id="Trazado_1085743" data-name="Trazado 1085743" d="M60.039,103.379H46.032V94.846H60.039Zm8.532,21.331V69.25L37.5,77.782v46.927Z" transform="translate(-28.968 -51.688)" fill="#fff08a" fill-rule="evenodd"/>
            <path id="Trazado_1085744" data-name="Trazado 1085744" d="M365.25,159.25v29.863h11.27v-12.8h8.532v12.8h11.27V159.25Z" transform="translate(-263.503 -116.091)" fill="#ffc277" fill-rule="evenodd"/>
            <path id="Trazado_1085745" data-name="Trazado 1085745" d="M397.383,37.5,395.25,72.125h18.273L411.39,37.5Z" transform="translate(-284.971 -28.966)" fill="#ffc277" fill-rule="evenodd"/>
            <path id="Trazado_1085746" data-name="Trazado 1085746" d="M402.75,7.5h14.007v8.532H402.75Z" transform="translate(-290.338 -7.5)" fill="#fff" fill-rule="evenodd"/>
            <path id="Trazado_1085747" data-name="Trazado 1085747" d="M404.875,219.251h8.532v12.8h-8.532Z" transform="translate(-291.859 -159.028)" fill="#fff" fill-rule="evenodd"/>
            <path id="Trazado_1085748" data-name="Trazado 1085748" d="M7.5,264.25H148.85v8.532H7.5Z" transform="translate(-7.5 -191.229)" fill="#fff" fill-rule="evenodd"/>
            <path id="Trazado_1085749" data-name="Trazado 1085749" d="M7.5,264.25h6.4v8.532H7.5Z" transform="translate(-7.5 -191.229)" fill="#9ee6fa" fill-rule="evenodd"/>
            <path id="Trazado_1085750" data-name="Trazado 1085750" d="M68.571,141.756v-6.4H43.9V93.072l-6.4,1.757v46.927Z" transform="translate(-28.968 -68.735)" fill="#ffc472" fill-rule="evenodd"/>
            <path id="Trazado_1085751" data-name="Trazado 1085751" d="M67.5,159.25h6.4v8.532H67.5Z" transform="translate(-50.435 -116.091)" fill="#2d93f4" fill-rule="evenodd"/>
            <path id="Trazado_1085752" data-name="Trazado 1085752" d="M176.75,159.25h14.007v8.532H176.75Z" transform="translate(-128.614 -116.091)" fill="#53d8f6" fill-rule="evenodd"/>
            <path id="Trazado_1085753" data-name="Trazado 1085753" d="M169.289,103.379H155.282V94.846h14.007Zm8.532,21.331V69.25L146.75,77.782v46.927Z" transform="translate(-107.146 -51.688)" fill="#fff08a" fill-rule="evenodd"/>
            <path id="Trazado_1085754" data-name="Trazado 1085754" d="M177.821,141.756v-6.4H153.149V93.072l-6.4,1.757v46.927Z" transform="translate(-107.146 -68.735)" fill="#ffc472" fill-rule="evenodd"/>
            <path id="Trazado_1085755" data-name="Trazado 1085755" d="M176.75,159.25h6.4v8.532h-6.4Z" transform="translate(-128.614 -116.091)" fill="#2d93f4" fill-rule="evenodd"/>
            <path id="Trazado_1085756" data-name="Trazado 1085756" d="M286,159.25h14.007v8.532H286Z" transform="translate(-206.793 -116.091)" fill="#53d8f6" fill-rule="evenodd"/>
            <path id="Trazado_1085757" data-name="Trazado 1085757" d="M278.539,103.379H264.532V94.846H278.54v8.532Zm8.532,21.331V69.25L256,77.782v46.927Z" transform="translate(-185.325 -51.688)" fill="#fff08a" fill-rule="evenodd"/>
            <path id="Trazado_1085758" data-name="Trazado 1085758" d="M287.071,141.756v-6.4H262.4V93.072L256,94.829v46.927Z" transform="translate(-185.325 -68.735)" fill="#ffc472" fill-rule="evenodd"/>
            <path id="Trazado_1085759" data-name="Trazado 1085759" d="M286,159.25h6.4v8.532H286Z" transform="translate(-206.793 -116.091)" fill="#2d93f4" fill-rule="evenodd"/>
            <path id="Trazado_1085760" data-name="Trazado 1085760" d="M365.25,159.25h6.4v29.863h-6.4Z" transform="translate(-263.503 -116.091)" fill="#ff905b" fill-rule="evenodd"/>
            <path id="Trazado_1085761" data-name="Trazado 1085761" d="M397.383,37.5,395.25,72.125h6.4L403.782,37.5Z" transform="translate(-284.971 -28.966)" fill="#ff905b" fill-rule="evenodd"/>
            <path id="Trazado_1085762" data-name="Trazado 1085762" d="M402.75,7.5h6.4v8.532h-6.4Z" transform="translate(-290.338 -7.5)" fill="#9ee6fa" fill-rule="evenodd"/>
          </g>
          <g id="Grupo_1217982" data-name="Grupo 1217982" transform="translate(79.475 26.925)">
            <path id="Trazado_1085763" data-name="Trazado 1085763" d="M288.072,109.674l-1.13-4.114,4.114-1.13,1.13,4.114Zm8.228-2.259-1.13-4.114,4.114-1.13,1.13,4.114Z" transform="translate(-286.942 -102.171)" fill="#fff"/>
          </g>
        </g>
        <g id="Grupo_1217984" data-name="Grupo 1217984">
          <path id="Trazado_1085775" data-name="Trazado 1085775" d="M137.084,73.021V43.159h-4.393L130.685,10.6V0H112.412V10.6l-2.006,32.559h-4.394V16.9L74.941,25.43V16.9L43.87,25.43V16.9L8.532,26.6v46.42H0v12.8H122.153V81.554H4.266V77.288H141.35v4.266h-6.4V85.82h10.665v-12.8ZM126.419,4.266V8.532h-9.744l0-4.266ZM116.551,12.8h10l1.87,30.361H114.68Zm16.268,34.627v25.6h-7v-12.8h-12.8v12.8h-7v-25.6Zm-11.27,25.6h-4.266V64.49h4.266Zm-19.8-50.528V73.021H74.941V29.854ZM12.8,29.854,39.6,22.493V36.76H43.87V29.854l26.805-7.36V73.021H43.87v-32H39.6v32H12.8Z"/>
          <path id="Trazado_1085776" data-name="Trazado 1085776" d="M444.5,286.75h4.266v4.266H444.5Z" transform="translate(-318.081 -205.196)"/>
          <path id="Trazado_1085777" data-name="Trazado 1085777" d="M296.773,151.75H278.5v12.8h18.273v-12.8Zm-4.266,8.532h-9.741v-4.266h9.741v4.266Z" transform="translate(-199.293 -108.591)"/>
          <path id="Trazado_1085778" data-name="Trazado 1085778" d="M187.523,151.75H169.25v12.8h18.273Zm-4.266,8.532h-9.741v-4.266h9.741Z" transform="translate(-121.114 -108.591)"/>
          <path id="Trazado_1085779" data-name="Trazado 1085779" d="M60,151.75v12.8H78.273v-12.8Zm14.007,8.532H64.266v-4.266h9.741v4.266Z" transform="translate(-42.936 -108.591)"/>
        </g>
      </g>
    </g>
  </g>
</svg>
