<svg xmlns="http://www.w3.org/2000/svg" xmlns:xlink="http://www.w3.org/1999/xlink" width="103" height="103" viewBox="0 0 103 103">
  <defs>
    <filter id="Trazado_978624" x="0" y="0" width="103" height="103" filterUnits="userSpaceOnUse">
      <feOffset dy="3" input="SourceAlpha"/>
      <feGaussianBlur stdDeviation="3" result="blur"/>
      <feFlood flood-opacity="0.161"/>
      <feComposite operator="in" in2="blur"/>
      <feComposite in="SourceGraphic"/>
    </filter>
  </defs>
  <g id="Grupo_1218031" data-name="Grupo 1218031" transform="translate(-195 -740.873)">
    <g id="Grupo_1217138" data-name="Grupo 1217138" transform="translate(204 746.873)">
      <g id="Grupo_1210955" data-name="Grupo 1210955">
        <g id="Grupo_1209912" data-name="Grupo 1209912">
          <g id="Grupo_1178144" data-name="Grupo 1178144">
            <g id="Grupo_1177896" data-name="Grupo 1177896">
              <g id="Grupo_1176881" data-name="Grupo 1176881">
                <g id="Grupo_1175148" data-name="Grupo 1175148">
                  <g id="Grupo_1173798" data-name="Grupo 1173798">
                    <g id="Grupo_1171925" data-name="Grupo 1171925">
                      <g id="Grupo_1164524" data-name="Grupo 1164524">
                        <g id="Grupo_1144123" data-name="Grupo 1144123">
                          <g transform="matrix(1, 0, 0, 1, -9, -6)" filter="url(#Trazado_978624)">
                            <g id="Trazado_978624-2" data-name="Trazado 978624" transform="translate(9 6)" fill="#f6f6f6">
                              <path d="M 42.5 83.5 C 36.96437835693359 83.5 31.59512901306152 82.41617584228516 26.54141235351562 80.27863311767578 C 21.65934181213379 78.21369171142578 17.27447128295898 75.25723266601562 13.50862312316895 71.49137878417969 C 9.742764472961426 67.72553253173828 6.786305904388428 63.34066009521484 4.721364498138428 58.45858764648438 C 2.583823442459106 53.40486907958984 1.5 48.03562164306641 1.5 42.5 C 1.5 36.96437835693359 2.583823442459106 31.59512901306152 4.721364498138428 26.54141235351562 C 6.786305904388428 21.65934181213379 9.742764472961426 17.27447128295898 13.50862312316895 13.50862312316895 C 17.27447128295898 9.742764472961426 21.65934181213379 6.786305904388428 26.54141235351562 4.721364498138428 C 31.59512901306152 2.583823442459106 36.96437835693359 1.5 42.5 1.5 C 48.03562164306641 1.5 53.40486907958984 2.583823442459106 58.45858764648438 4.721364498138428 C 63.34066009521484 6.786305904388428 67.72553253173828 9.742764472961426 71.49137878417969 13.50862312316895 C 75.25723266601562 17.27447128295898 78.21369171142578 21.65934181213379 80.27863311767578 26.54141235351562 C 82.41617584228516 31.59512901306152 83.5 36.96437835693359 83.5 42.5 C 83.5 48.03562164306641 82.41617584228516 53.40486907958984 80.27863311767578 58.45858764648438 C 78.21369171142578 63.34066009521484 75.25723266601562 67.72553253173828 71.49137878417969 71.49137878417969 C 67.72553253173828 75.25723266601562 63.34066009521484 78.21369171142578 58.45858764648438 80.27863311767578 C 53.40486907958984 82.41617584228516 48.03562164306641 83.5 42.5 83.5 Z" stroke="none"/>
                              <path d="M 42.5 3 C 37.16621398925781 3 31.99356079101562 4.043960571289062 27.125732421875 6.102882385253906 C 22.42246627807617 8.092185974121094 18.19785308837891 10.94070434570312 14.56928253173828 14.56928253173828 C 10.94070434570312 18.19785308837891 8.092185974121094 22.42246627807617 6.102882385253906 27.125732421875 C 4.043960571289062 31.99356079101562 3 37.16621398925781 3 42.5 C 3 47.83378601074219 4.043960571289062 53.00643920898438 6.102882385253906 57.87425231933594 C 8.092185974121094 62.57753372192383 10.94070434570312 66.80213165283203 14.56928253173828 70.43071746826172 C 18.19786834716797 74.05929565429688 22.42246627807617 76.90781402587891 27.125732421875 78.89711761474609 C 31.99356079101562 80.95603942871094 37.16621398925781 82 42.5 82 C 47.83378601074219 82 53.00642395019531 80.95603942871094 57.87425231933594 78.89711761474609 C 62.57753372192383 76.90781402587891 66.80213165283203 74.05929565429688 70.43071746826172 70.43071746826172 C 74.05929565429688 66.80213165283203 76.90781402587891 62.57753372192383 78.89711761474609 57.87425231933594 C 80.95603942871094 53.00642395019531 82 47.83378601074219 82 42.5 C 82 37.16621398925781 80.95603942871094 31.99356079101562 78.89711761474609 27.125732421875 C 76.90781402587891 22.42246627807617 74.05929565429688 18.19786834716797 70.43071746826172 14.56928253173828 C 66.80213165283203 10.94070434570312 62.57753372192383 8.092185974121094 57.87425231933594 6.102882385253906 C 53.00643920898438 4.043960571289062 47.83378601074219 3 42.5 3 M 42.5 0 C 65.97209167480469 0 85 19.02789306640625 85 42.5 C 85 65.97209167480469 65.97209167480469 85 42.5 85 C 19.02789306640625 85 0 65.97209167480469 0 42.5 C 0 19.02789306640625 19.02789306640625 0 42.5 0 Z" stroke="none" fill="#b0aeae"/>
                            </g>
                          </g>
                        </g>
                      </g>
                    </g>
                  </g>
                </g>
              </g>
            </g>
          </g>
        </g>
      </g>
    </g>
    <g id="manufacture_13727701" transform="translate(197.621 740.936)">
      <g id="Grupo_1218030" data-name="Grupo 1218030" transform="translate(10.358 8.322)">
        <g id="Grupo_1218016" data-name="Grupo 1218016" transform="translate(7.213 21.719)">
          <path id="Trazado_1085880" data-name="Trazado 1085880" d="M130.942,201.635a10.856,10.856,0,1,0-10.856-10.856A10.876,10.876,0,0,0,130.942,201.635Z" transform="translate(-109.878 -174.072)" fill="#f6dccd" fill-rule="evenodd"/>
          <path id="Trazado_1085881" data-name="Trazado 1085881" d="M180.719,179.923a10.856,10.856,0,1,1,0,21.712c-.294,0-.589-.012-.871-.025a10.861,10.861,0,0,0,0-21.651C180.13,179.935,180.424,179.923,180.719,179.923Z" transform="translate(-159.655 -174.072)" fill="#f1cbbc" fill-rule="evenodd"/>
          <path id="Trazado_1085882" data-name="Trazado 1085882" d="M103.449,163H127.97a1.644,1.644,0,1,0,0-3.287h-.331c.025-.307.037-.626.037-.945a11.975,11.975,0,0,0-8.28-11.383c.184-1.877-2.134-2.478-3.68-2.478s-3.864.6-3.692,2.478a11.991,11.991,0,0,0-8.28,11.383c0,.319.012.638.037.945h-.331a1.644,1.644,0,1,0,0,3.287Z" transform="translate(-94.651 -144.903)" fill="#ffe177" fill-rule="evenodd"/>
          <path id="Trazado_1085883" data-name="Trazado 1085883" d="M191.244,163h1.73a1.644,1.644,0,1,0,0-3.287h-.331c.025-.307.037-.626.037-.945a11.975,11.975,0,0,0-8.28-11.383c.184-1.877-2.134-2.478-3.68-2.478a7.273,7.273,0,0,0-.871.061c1.411.2,3.843.531,3.683,2.076.364.118-.154.593.193.744a11.98,11.98,0,0,1,7.225,10.98c0,.319-.012.638-.037.945h.331a1.644,1.644,0,1,1,0,3.287Z" transform="translate(-159.655 -144.903)" fill="#ffd064" fill-rule="evenodd"/>
          <path id="Trazado_1085884" data-name="Trazado 1085884" d="M103.327,233.224h24.521a1.668,1.668,0,0,1,0,3.336H103.327a1.668,1.668,0,0,1,0-3.336Z" transform="translate(-94.529 -218.467)" fill="#ffe177" fill-rule="evenodd"/>
          <path id="Trazado_1085885" data-name="Trazado 1085885" d="M103.327,233.224h24.521a1.668,1.668,0,0,1,0,3.336h-.393a1.674,1.674,0,0,0-1.668-1.607H101.659v-.061A1.67,1.67,0,0,1,103.327,233.224Z" transform="translate(-94.529 -218.467)" fill="#ffd064" fill-rule="evenodd"/>
          <path id="Trazado_1085886" data-name="Trazado 1085886" d="M60.733,339.456h38.64a1.719,1.719,0,0,0,1.693-2.085,21.474,21.474,0,0,0-42.038,0,1.673,1.673,0,0,0,.356,1.447A1.7,1.7,0,0,0,60.733,339.456Z" transform="translate(-58.988 -290.991)" fill="#8ac9fe" fill-rule="evenodd"/>
          <path id="Trazado_1085887" data-name="Trazado 1085887" d="M192.213,339.456H195.7a1.719,1.719,0,0,0,1.693-2.085A21.473,21.473,0,0,0,176.377,320.3c-.589,0-1.165.025-1.742.074a21.473,21.473,0,0,1,19.283,17,1.673,1.673,0,0,1-.356,1.447A1.7,1.7,0,0,1,192.213,339.456Z" transform="translate(-155.313 -290.991)" fill="#60b7ff" fill-rule="evenodd"/>
          <path id="Trazado_1085888" data-name="Trazado 1085888" d="M92.261,355.111h31V342.562a21.541,21.541,0,0,0-4.318-3.471v6.44H96.579v-6.44a21.889,21.889,0,0,0-4.318,3.471Z" transform="translate(-86.702 -306.646)" fill="#ffe177" fill-rule="evenodd"/>
          <path id="Trazado_1085889" data-name="Trazado 1085889" d="M252.789,355.111h3.471V342.562a21.54,21.54,0,0,0-4.318-3.471v2.65c.294.27.577.54.846.822Z" transform="translate(-219.704 -306.646)" fill="#ffd064" fill-rule="evenodd"/>
        </g>
        <g id="Grupo_1218026" data-name="Grupo 1218026" transform="translate(0 50.003)">
          <g id="Grupo_1218017" data-name="Grupo 1218017" transform="translate(56.004)">
            <path id="Trazado_1085890" data-name="Trazado 1085890" d="M368.348,315.917a1.735,1.735,0,0,0-1.734-1.734H352.742a1.735,1.735,0,0,0-1.734,1.734v15.348A1.735,1.735,0,0,0,352.742,333h13.872a1.735,1.735,0,0,0,1.734-1.734Z" transform="translate(-351.008 -314.183)" fill="#ecba78" fill-rule="evenodd"/>
            <path id="Trazado_1085891" data-name="Trazado 1085891" d="M429.411,333a1.735,1.735,0,0,0,1.734-1.734V315.917a1.735,1.735,0,0,0-1.734-1.734h2.506a1.735,1.735,0,0,1,1.734,1.734v15.348A1.735,1.735,0,0,1,431.917,333Z" transform="translate(-416.311 -314.183)" fill="#e3a76f" fill-rule="evenodd"/>
          </g>
          <g id="Grupo_1218025" data-name="Grupo 1218025" transform="translate(0 16.356)">
            <g id="Grupo_1218018" data-name="Grupo 1218018">
              <path id="Trazado_1085892" data-name="Trazado 1085892" d="M95.263,419a6.924,6.924,0,0,0-6.92-6.92H22.74a6.92,6.92,0,1,0,0,13.841h65.6A6.924,6.924,0,0,0,95.263,419Z" transform="translate(-15.82 -412.075)" fill="#a79ba7" fill-rule="evenodd"/>
              <path id="Trazado_1085893" data-name="Trazado 1085893" d="M23.384,429.281a6.886,6.886,0,0,0,3.986,1.264h65.6a6.919,6.919,0,0,0,5.657-10.906,6.92,6.92,0,0,1-3.986,12.577h-65.6a6.914,6.914,0,0,1-5.657-2.935Z" transform="translate(-22.12 -418.375)" fill="#837683" fill-rule="evenodd"/>
            </g>
            <g id="Grupo_1218024" data-name="Grupo 1218024" transform="translate(8.896 3.356)">
              <g id="Grupo_1218019" data-name="Grupo 1218019">
                <circle id="Elipse_14459" data-name="Elipse 14459" cx="3.564" cy="3.564" r="3.564" fill="#eceff1"/>
                <path id="Trazado_1085894" data-name="Trazado 1085894" d="M73.461,439.193a3.564,3.564,0,1,1,0-6.93,3.565,3.565,0,0,0,0,6.93Z" transform="translate(-69.062 -432.164)" fill="#d1d1d6" fill-rule="evenodd"/>
              </g>
              <g id="Grupo_1218020" data-name="Grupo 1218020" transform="translate(13.631)">
                <circle id="Elipse_14460" data-name="Elipse 14460" cx="3.564" cy="3.564" r="3.564" fill="#eceff1"/>
                <path id="Trazado_1085895" data-name="Trazado 1085895" d="M155.044,439.193a3.564,3.564,0,1,1,0-6.93,3.565,3.565,0,0,0,0,6.93Z" transform="translate(-150.645 -432.164)" fill="#d1d1d6" fill-rule="evenodd"/>
              </g>
              <g id="Grupo_1218021" data-name="Grupo 1218021" transform="translate(27.262)">
                <circle id="Elipse_14461" data-name="Elipse 14461" cx="3.564" cy="3.564" r="3.564" fill="#eceff1"/>
                <path id="Trazado_1085896" data-name="Trazado 1085896" d="M236.627,439.193a3.564,3.564,0,1,1,0-6.93,3.565,3.565,0,0,0,0,6.93Z" transform="translate(-232.228 -432.164)" fill="#d1d1d6" fill-rule="evenodd"/>
              </g>
              <g id="Grupo_1218022" data-name="Grupo 1218022" transform="translate(40.893)">
                <circle id="Elipse_14462" data-name="Elipse 14462" cx="3.564" cy="3.564" r="3.564" fill="#eceff1"/>
                <path id="Trazado_1085897" data-name="Trazado 1085897" d="M318.211,439.193a3.564,3.564,0,1,1,0-6.93,3.565,3.565,0,0,0,0,6.93Z" transform="translate(-313.812 -432.164)" fill="#d1d1d6" fill-rule="evenodd"/>
              </g>
              <g id="Grupo_1218023" data-name="Grupo 1218023" transform="translate(54.524)">
                <circle id="Elipse_14463" data-name="Elipse 14463" cx="3.564" cy="3.564" r="3.564" fill="#eceff1"/>
                <path id="Trazado_1085898" data-name="Trazado 1085898" d="M399.794,439.193a3.564,3.564,0,1,1,0-6.93,3.565,3.565,0,0,0,0,6.93Z" transform="translate(-395.395 -432.164)" fill="#d1d1d6" fill-rule="evenodd"/>
              </g>
            </g>
          </g>
        </g>
        <g id="Grupo_1218029" data-name="Grupo 1218029" transform="translate(50.442 0)">
          <g id="Grupo_1218028" data-name="Grupo 1218028">
            <path id="Trazado_1085899" data-name="Trazado 1085899" d="M330.111,43.569,329.2,41.2a12.277,12.277,0,0,1-3.584-1.484l-2.327,1.031L320.546,38l1.035-2.327a12.266,12.266,0,0,1-1.488-3.58l-2.374-.913V27.3l2.374-.914a12.289,12.289,0,0,1,1.488-3.584l-1.035-2.327,2.741-2.741,2.327,1.035a12.2,12.2,0,0,1,3.58-1.484l.917-2.378h3.877l.914,2.378a12.2,12.2,0,0,1,3.58,1.484l2.327-1.035,2.741,2.741-1.031,2.327A12.176,12.176,0,0,1,344,26.39l2.374.914v3.877L344,32.094a12.3,12.3,0,0,1-1.484,3.58L343.549,38l-2.741,2.741-2.327-1.031A12.146,12.146,0,0,1,334.9,41.2l-.914,2.374h0v8.767h-3.873Z" transform="translate(-317.719 -14.912)" fill="#ffe177" fill-rule="evenodd"/>
            <path id="Trazado_1085900" data-name="Trazado 1085900" d="M347.963,18.253l.514-.514,2.327,1.035q-.373.2-.732.417Zm9.545-3.341h1.671l.914,2.378a13.721,13.721,0,0,1,3.58,1.484l-.938.417a11.9,11.9,0,0,0-4.313-1.9Zm7.335,3.341L366,17.739l2.741,2.741-1.031,2.327a12.176,12.176,0,0,1,1.484,3.584l2.374.914v3.877l-2.374.913a12.3,12.3,0,0,1-1.484,3.58L368.74,38,366,40.742l-1.158-.513L367.069,38l-1.031-2.327a12.3,12.3,0,0,0,1.484-3.58l2.374-.913V27.3l-2.374-.914a12.176,12.176,0,0,0-1.484-3.584l1.031-2.327Zm-1.17,21.459a12.905,12.905,0,0,1-3.58,1.484l-.914,2.374h0v8.767H357.5V43.569h0l.914-2.374a12.882,12.882,0,0,0,4.31-1.9Zm-12.868,0-2.327,1.031-.513-.513,2.107-.933Q350.431,39.516,350.8,39.712Z" transform="translate(-342.91 -14.912)" fill="#ffd064" fill-rule="evenodd"/>
            <g id="Grupo_1218027" data-name="Grupo 1218027" transform="translate(7.566 7.566)">
              <path id="Trazado_1085901" data-name="Trazado 1085901" d="M369.766,60.2a6.764,6.764,0,1,0,6.766,6.762A6.76,6.76,0,0,0,369.766,60.2Z" transform="translate(-363.004 -60.197)" fill="#eceff1" fill-rule="evenodd"/>
              <path id="Trazado_1085902" data-name="Trazado 1085902" d="M370.6,60.248a6.765,6.765,0,0,0,0,13.426,6.862,6.862,0,0,1-.836.051,6.764,6.764,0,1,1,.836-13.477Z" transform="translate(-363.004 -60.197)" fill="#d1d1d6" fill-rule="evenodd"/>
            </g>
          </g>
        </g>
      </g>
      <path id="Trazado_1085903" data-name="Trazado 1085903" d="M85.279,73.644a8.258,8.258,0,0,1-2.157,16.229h-65.6a8.257,8.257,0,0,1-1.251-16.419A23.682,23.682,0,0,1,32.231,58.191a12.681,12.681,0,0,1-5.79-7.828,2.968,2.968,0,0,1-.943-5.746,13.183,13.183,0,0,1,8.277-12.025,3.026,3.026,0,0,1,1.208-1.729,7.4,7.4,0,0,1,3.609-1.1,1.338,1.338,0,0,1,.2,0,7.421,7.421,0,0,1,3.62,1.1A3.024,3.024,0,0,1,43.625,32.6,13.193,13.193,0,0,1,51.9,44.62a2.969,2.969,0,0,1-.954,5.743,12.682,12.682,0,0,1-5.789,7.827A23.689,23.689,0,0,1,61.1,73.359h4.17V60.073A3.072,3.072,0,0,1,68.336,57H82.208a3.072,3.072,0,0,1,3.071,3.071Zm-66.126-.285H21.26V69.305A20.847,20.847,0,0,0,19.153,73.359Zm4.791,0h29.5V66.045a21.091,21.091,0,0,0-1.8-1.588v4.122A1.342,1.342,0,0,1,50.3,69.921H27.083a1.342,1.342,0,0,1-1.342-1.342V64.462a21.05,21.05,0,0,0-1.8,1.589Zm32.183,0h2.115A20.9,20.9,0,0,0,56.127,69.3Zm11.812,0H82.606V60.073a.4.4,0,0,0-.4-.4H68.336a.4.4,0,0,0-.4.4ZM38.694,59.979a20.861,20.861,0,0,0-10.269,2.685v4.573H48.962V62.661A20.871,20.871,0,0,0,38.694,59.979Zm-9.466-9.615a9.93,9.93,0,0,0,18.933,0Zm4.711-14.9a10.5,10.5,0,0,0-5.751,8.965H31.2V39.034a1.342,1.342,0,0,1,2.684,0v5.391H43.5V39.034a1.342,1.342,0,0,1,2.684,0v5.391h3.026a10.506,10.506,0,0,0-5.751-8.96l-.6,4.583A1.342,1.342,0,0,1,40.2,39.7l.817-6.243c.036-.3-.186-.454-.422-.573a5.361,5.361,0,0,0-1.9-.44,5.334,5.334,0,0,0-1.889.439c-.236.12-.459.273-.421.577L37.2,39.7a1.342,1.342,0,0,1-2.661.348ZM50.853,47.109H26.546a.293.293,0,0,0-.292.292.287.287,0,0,0,.292.28H50.853a.282.282,0,0,0,.28-.28A.287.287,0,0,0,50.853,47.109ZM88.705,81.616a5.586,5.586,0,0,0-5.584-5.584h-65.6a5.584,5.584,0,1,0,0,11.167h65.6A5.586,5.586,0,0,0,88.705,81.616Zm-38.385-4.9a4.9,4.9,0,1,1-4.9,4.9,4.9,4.9,0,0,1,4.9-4.9Zm0,2.673a2.227,2.227,0,1,0,2.227,2.227,2.228,2.228,0,0,0-2.227-2.227ZM23.058,76.715a4.9,4.9,0,1,1-4.9,4.9A4.9,4.9,0,0,1,23.058,76.715Zm0,2.673a2.227,2.227,0,1,0,2.227,2.227A2.228,2.228,0,0,0,23.058,79.389Zm13.631-2.673a4.9,4.9,0,1,1-4.9,4.9A4.9,4.9,0,0,1,36.689,76.715Zm0,2.673a2.227,2.227,0,1,0,2.227,2.227A2.228,2.228,0,0,0,36.689,79.389Zm27.262-2.673a4.9,4.9,0,1,1-4.9,4.9A4.9,4.9,0,0,1,63.951,76.715Zm0,2.673a2.227,2.227,0,1,0,2.227,2.227A2.228,2.228,0,0,0,63.951,79.389Zm13.631-2.673a4.9,4.9,0,1,1-4.9,4.9A4.9,4.9,0,0,1,77.582,76.715Zm0,2.673a2.227,2.227,0,1,0,2.227,2.227A2.228,2.228,0,0,0,77.582,79.389ZM71.92,39.782v-2.54l-.579-1.506a13.6,13.6,0,0,1-2.661-1.1l-1.706.756a1.337,1.337,0,0,1-1.487-.277l-2.741-2.741a1.337,1.337,0,0,1-.276-1.488l.757-1.7a13.616,13.616,0,0,1-1.1-2.658l-1.739-.669a1.337,1.337,0,0,1-.857-1.247V20.729a1.337,1.337,0,0,1,.857-1.247l1.739-.669a13.608,13.608,0,0,1,1.1-2.661l-.758-1.7a1.337,1.337,0,0,1,.276-1.488l2.741-2.741a1.337,1.337,0,0,1,1.488-.276l1.7.758a13.514,13.514,0,0,1,2.658-1.1l.673-1.743A1.336,1.336,0,0,1,73.256,7h3.877a1.337,1.337,0,0,1,1.248.857L79.05,9.6a13.525,13.525,0,0,1,2.657,1.1l1.7-.758a1.337,1.337,0,0,1,1.488.276l2.741,2.741a1.337,1.337,0,0,1,.277,1.487l-.755,1.7a13.5,13.5,0,0,1,1.1,2.663L90,19.481a1.337,1.337,0,0,1,.857,1.247v3.877A1.337,1.337,0,0,1,90,25.853l-1.738.669a13.631,13.631,0,0,1-1.1,2.657l.756,1.706a1.337,1.337,0,0,1-.277,1.487L84.9,35.112a1.337,1.337,0,0,1-1.487.277l-1.7-.755a13.488,13.488,0,0,1-2.659,1.1l-.584,1.517v2.529l5.757,4.779a1.337,1.337,0,0,1,.437,1.374l-1.6,5.985a1.337,1.337,0,1,1-2.582-.692l1.382-5.157-3.39-2.815v2.5A1.337,1.337,0,0,1,77.129,47.1H73.257a1.337,1.337,0,0,1-1.337-1.337v-2.5l-3.39,2.815,1.382,5.157a1.337,1.337,0,0,1-2.582.692l-1.6-5.985a1.337,1.337,0,0,1,.437-1.374Zm3.873-2.788c0,.738-.065-.069.093-.48L76.8,34.14a1.337,1.337,0,0,1,.938-.82A10.81,10.81,0,0,0,80.924,32a1.337,1.337,0,0,1,1.244-.085l1.489.659L85.1,31.129l-.659-1.489a1.337,1.337,0,0,1,.082-1.24,10.963,10.963,0,0,0,1.323-3.191,1.337,1.337,0,0,1,.82-.938l1.517-.584V21.646l-1.517-.584a1.337,1.337,0,0,1-.821-.939,10.836,10.836,0,0,0-1.321-3.191,1.337,1.337,0,0,1-.084-1.243L85.1,14.2l-1.443-1.443-1.488.662a1.337,1.337,0,0,1-1.244-.083,10.858,10.858,0,0,0-3.188-1.321,1.337,1.337,0,0,1-.939-.821l-.584-1.52H74.173L73.586,11.2a1.337,1.337,0,0,1-.938.819,10.858,10.858,0,0,0-3.188,1.321,1.337,1.337,0,0,1-1.244.083l-1.488-.662L65.286,14.2l.661,1.488a1.337,1.337,0,0,1-.083,1.244,10.955,10.955,0,0,0-1.326,3.195,1.337,1.337,0,0,1-.82.936l-1.517.584v2.041l1.517.584a1.337,1.337,0,0,1,.819.934,10.927,10.927,0,0,0,1.325,3.19,1.337,1.337,0,0,1,.085,1.246l-.661,1.488,1.443,1.443,1.489-.659a1.337,1.337,0,0,1,1.24.082,10.94,10.94,0,0,0,3.194,1.323,1.337,1.337,0,0,1,.939.821l.914,2.374a1.337,1.337,0,0,1,.089.48v7.43h1.2Zm-.6-22.427a8.1,8.1,0,1,1-8.1,8.1,8.1,8.1,0,0,1,8.1-8.1Zm0,2.673a5.427,5.427,0,1,0,5.429,5.425A5.423,5.423,0,0,0,75.193,17.24Z" fill-rule="evenodd"/>
    </g>
  </g>
</svg>
