<svg xmlns="http://www.w3.org/2000/svg" xmlns:xlink="http://www.w3.org/1999/xlink" width="93.934" height="93.934" viewBox="0 0 93.934 93.934">
  <defs>
    <filter id="Trazado_978624" x="0" y="0" width="93.934" height="93.934" filterUnits="userSpaceOnUse">
      <feOffset dy="3" input="SourceAlpha"/>
      <feGaussianBlur stdDeviation="3" result="blur"/>
      <feFlood flood-opacity="0.161"/>
      <feComposite operator="in" in2="blur"/>
      <feComposite in="SourceGraphic"/>
    </filter>
  </defs>
  <g id="Grupo_1217820" data-name="Grupo 1217820" transform="translate(-609 -852.033)">
    <g id="Grupo_1215433" data-name="Grupo 1215433" transform="translate(421 -41)">
      <g id="Grupo_1181205" data-name="Grupo 1181205" transform="translate(-421 -630.5)">
        <g id="Grupo_1210963" data-name="Grupo 1210963" transform="translate(0 -377.186)">
          <g id="Grupo_1208068" data-name="Grupo 1208068" transform="translate(412 470.719)">
            <g id="Grupo_1144123" data-name="Grupo 1144123" transform="translate(206 1436)">
              <g transform="matrix(1, 0, 0, 1, -9, -6)" filter="url(#Trazado_978624)">
                <g id="Trazado_978624-2" data-name="Trazado 978624" transform="translate(9 6)" fill="#eaf5fb">
                  <path d="M 37.966796875 74.43359375 C 33.04315185546875 74.43359375 28.26757431030273 73.46962738037109 23.77274131774902 71.56847381591797 C 19.43047523498535 69.73184967041016 15.53040790557861 67.10224914550781 12.18087482452393 63.75271987915039 C 8.831341743469238 60.4031867980957 6.201741218566895 56.50312042236328 4.365118980407715 52.16086196899414 C 2.463963508605957 47.66601943969727 1.499996900558472 42.89044189453125 1.499996900558472 37.966796875 C 1.499996900558472 33.04315185546875 2.463963508605957 28.26757431030273 4.365118980407715 23.77274131774902 C 6.201741218566895 19.43047523498535 8.831341743469238 15.53040790557861 12.18087482452393 12.18087482452393 C 15.53040790557861 8.831341743469238 19.43047523498535 6.201741218566895 23.77274131774902 4.365118980407715 C 28.26757431030273 2.463963508605957 33.04315185546875 1.499996900558472 37.966796875 1.499996900558472 C 42.89044189453125 1.499996900558472 47.66601943969727 2.463963508605957 52.16086196899414 4.365118980407715 C 56.50312042236328 6.201741218566895 60.4031867980957 8.831341743469238 63.75271987915039 12.18087482452393 C 67.10224914550781 15.53040790557861 69.73184967041016 19.43047523498535 71.56847381591797 23.77274131774902 C 73.46962738037109 28.26757431030273 74.43359375 33.04315185546875 74.43359375 37.966796875 C 74.43359375 42.89044189453125 73.46962738037109 47.66601943969727 71.56847381591797 52.16086196899414 C 69.73184967041016 56.50313186645508 67.10224914550781 60.4031867980957 63.75271987915039 63.75271987915039 C 60.4031867980957 67.10224914550781 56.50313186645508 69.73184967041016 52.16086196899414 71.56847381591797 C 47.66601943969727 73.46962738037109 42.89044189453125 74.43359375 37.966796875 74.43359375 Z" stroke="none"/>
                  <path d="M 37.966796875 3 C 33.2449836730957 3 28.66600799560547 3.924095153808594 24.35705947875977 5.746635437011719 C 20.19359588623047 7.507621765136719 16.45379638671875 10.02927398681641 13.24153518676758 13.24153518676758 C 10.02927398681641 16.45379638671875 7.507621765136719 20.19359588623047 5.746635437011719 24.35705947875977 C 3.924095153808594 28.66600799560547 3 33.2449836730957 3 37.966796875 C 3 42.6886100769043 3.924095153808594 47.26758575439453 5.746635437011719 51.57653427124023 C 7.507621765136719 55.73999786376953 10.02927398681641 59.47979736328125 13.24153518676758 62.69205856323242 C 16.45379638671875 65.90431976318359 20.19359588623047 68.42597198486328 24.35705947875977 70.18695831298828 C 28.66600799560547 72.00949859619141 33.2449836730957 72.93359375 37.966796875 72.93359375 C 42.6886100769043 72.93359375 47.26758575439453 72.00949859619141 51.57653427124023 70.18695831298828 C 55.73999786376953 68.42597198486328 59.47979736328125 65.90431976318359 62.69205856323242 62.69205856323242 C 65.90431976318359 59.47979736328125 68.42597198486328 55.73999786376953 70.18695831298828 51.57653427124023 C 72.00949859619141 47.26758575439453 72.93359375 42.6886100769043 72.93359375 37.966796875 C 72.93359375 33.2449836730957 72.00949859619141 28.66600799560547 70.18695831298828 24.35705947875977 C 68.42597198486328 20.19359588623047 65.90431976318359 16.45379638671875 62.69205856323242 13.24153518676758 C 59.47979736328125 10.02927398681641 55.73999786376953 7.507621765136719 51.57653427124023 5.746635437011719 C 47.26758575439453 3.924095153808594 42.6886100769043 3 37.966796875 3 M 37.966796875 0 C 58.93528366088867 0 75.93359375 16.99831008911133 75.93359375 37.966796875 C 75.93359375 58.93528366088867 58.93528366088867 75.93359375 37.966796875 75.93359375 C 16.99831008911133 75.93359375 0 58.93528366088867 0 37.966796875 C 0 16.99831008911133 16.99831008911133 0 37.966796875 0 Z" stroke="none" fill="#3ea6db"/>
                </g>
              </g>
            </g>
          </g>
        </g>
      </g>
    </g>
    <g id="proceso_1_" data-name="proceso (1)" transform="translate(605.003 846.145)">
      <g id="Grupo_1217819" data-name="Grupo 1217819" transform="translate(9.236 13.134)">
        <g id="Grupo_1217814" data-name="Grupo 1217814" transform="translate(4.469 14.947)">
          <path id="Trazado_1085355" data-name="Trazado 1085355" d="M77.777,120.574a23.544,23.544,0,0,1,6.894,2.858l4.48-1.99,5.28,5.28L92.44,131.2a23.539,23.539,0,0,1,2.858,6.9l4.57,1.759v7.466L95.3,149.08a23.544,23.544,0,0,1-2.858,6.894l1.99,4.48-5.279,5.28-4.478-1.989a23.539,23.539,0,0,1-6.9,2.858l-1.759,4.57H68.551l-1.76-4.571a23.544,23.544,0,0,1-6.894-2.858l-4.479,1.99-5.28-5.279,1.989-4.478a23.541,23.541,0,0,1-2.858-6.9l-4.57-1.759v-7.466L49.27,138.1a23.539,23.539,0,0,1,2.858-6.894l-1.989-4.479,5.279-5.28,4.479,1.99a23.544,23.544,0,0,1,6.894-2.858L68.551,116h7.466Z" transform="translate(-44.699 -116.003)" fill="#ffe177" fill-rule="evenodd"/>
          <path id="Trazado_1085356" data-name="Trazado 1085356" d="M114.353,163.742l-4.479,1.99-.69-.69,4.2-1.865Q113.862,163.471,114.353,163.742Zm17.879-43.17a23.544,23.544,0,0,1,6.894,2.858l-1.273.566a31.05,31.05,0,0,0-7.863-3.423L128.23,116h2.243Zm6.9,43.17a23.54,23.54,0,0,1-6.9,2.858l-1.759,4.57H128.23l1.759-4.57a31.045,31.045,0,0,0,7.865-3.424ZM109.184,122.13l.69-.69,4.479,1.99q-.491.271-.969.566Zm32.868,0,1.553-.69,5.28,5.279L146.9,131.2a23.54,23.54,0,0,1,2.858,6.9l4.57,1.759v7.466l-4.571,1.76a23.544,23.544,0,0,1-2.858,6.894l1.99,4.48-5.279,5.28-1.553-.69,4.59-4.59-1.99-4.479a23.544,23.544,0,0,0,2.858-6.894l4.571-1.76v-7.466l-4.57-1.759a23.54,23.54,0,0,0-2.858-6.9l1.989-4.478Z" transform="translate(-99.155 -116.001)" fill="#ffd064" fill-rule="evenodd"/>
          <ellipse id="Elipse_14433" data-name="Elipse 14433" cx="17.309" cy="17.309" rx="17.309" ry="17.309" transform="translate(5.249 17.571) rotate(-20.791)" fill="#eceff1"/>
          <path id="Trazado_1085357" data-name="Trazado 1085357" d="M128.078,182.07a17.309,17.309,0,0,0,0,34.618q.467,0,.928-.025a17.309,17.309,0,0,1,0-34.568Q128.545,182.071,128.078,182.07Z" transform="translate(-100.493 -171.794)" fill="#d1d1d6" fill-rule="evenodd"/>
        </g>
        <g id="Grupo_1217815" data-name="Grupo 1217815" transform="translate(0 33.748)">
          <path id="Trazado_1085358" data-name="Trazado 1085358" d="M29.507,263.465a7.033,7.033,0,0,1-8.7,9.343l5-5-.949-3.542-3.542-.949-5,5a7.033,7.033,0,0,1,9.343-8.7L38.7,246.573a7.033,7.033,0,0,1,8.7-9.343l-5,5,.949,3.542,3.542.949,5-5a7.033,7.033,0,0,1-9.343,8.7Z" transform="translate(-15.967 -236.881)" fill="#9facba" fill-rule="evenodd"/>
          <path id="Trazado_1085359" data-name="Trazado 1085359" d="M29.509,263.467a7.033,7.033,0,0,1-8.7,9.343l1.083-1.083a7.032,7.032,0,0,0,6.194-9.684L41.127,249a7.032,7.032,0,0,0,9.684-6.194l1.083-1.083a7.033,7.033,0,0,1-9.343,8.7Zm-4.651.8-.3-1.123-4.665-1.25-3.916,3.916a7.054,7.054,0,0,0,.341,2.507l5-5ZM44.9,236.891l-3.916,3.916,1.25,4.665,1.123.3-.949-3.542,5-5A7.056,7.056,0,0,0,44.9,236.891Z" transform="translate(-15.968 -236.883)" fill="#8d9ca8" fill-rule="evenodd"/>
        </g>
        <g id="Grupo_1217816" data-name="Grupo 1217816" transform="translate(41.843 35.999)">
          <path id="Trazado_1085360" data-name="Trazado 1085360" d="M302.467,251.354H285v16.3a1.167,1.167,0,0,0,1.165,1.165H301.3a1.167,1.167,0,0,0,1.165-1.165Z" transform="translate(-284.998 -251.354)" fill="#e3a76f" fill-rule="evenodd"/>
          <path id="Trazado_1085361" data-name="Trazado 1085361" d="M377.723,251.354h-2.444v16.3a1.167,1.167,0,0,1-1.165,1.165h2.444a1.167,1.167,0,0,0,1.165-1.165Z" transform="translate(-360.254 -251.354)" fill="#c48958" fill-rule="evenodd"/>
          <path id="Trazado_1085362" data-name="Trazado 1085362" d="M322.354,251.354H328.2v6.179a.95.95,0,0,1-.949.949H323.3a.95.95,0,0,1-.949-.949Z" transform="translate(-316.544 -251.354)" fill="#f2d1a5" fill-rule="evenodd"/>
          <path id="Trazado_1085363" data-name="Trazado 1085363" d="M346.1,251.354h1.355v6.179a.95.95,0,0,1-.949.949h-1.355a.95.95,0,0,0,.949-.949Z" transform="translate(-335.794 -251.354)" fill="#ecba78" fill-rule="evenodd"/>
        </g>
        <g id="Grupo_1217817" data-name="Grupo 1217817" transform="translate(50.304 0)">
          <path id="Trazado_1085364" data-name="Trazado 1085364" d="M354.008,21.916a10.4,10.4,0,0,1,3.045,1.262l1.979-.879,2.332,2.332-.878,1.978a10.4,10.4,0,0,1,1.262,3.045l2.018.777v3.3l-2.019.777a10.4,10.4,0,0,1-1.262,3.045l.879,1.979-2.332,2.332-1.978-.878a10.4,10.4,0,0,1-3.045,1.262l-.777,2.018h-3.3l-.777-2.019a10.4,10.4,0,0,1-3.045-1.262l-1.979.879L341.8,39.53l.878-1.978a10.4,10.4,0,0,1-1.262-3.046L339.4,33.73v-3.3l2.019-.777a10.394,10.394,0,0,1,1.262-3.045l-.879-1.978,2.332-2.332,1.979.879a10.4,10.4,0,0,1,3.045-1.262l.777-2.019h3.3Z" transform="translate(-339.399 -19.897)" fill="#ffe177" fill-rule="evenodd"/>
          <path id="Trazado_1085365" data-name="Trazado 1085365" d="M370.163,40.984l-1.978.879-.3-.3,1.855-.824Q369.946,40.864,370.163,40.984Zm7.9-19.067a10.4,10.4,0,0,1,3.045,1.262l-.562.25a13.719,13.719,0,0,0-3.473-1.512l-.777-2.019h.991Zm3.045,19.067a10.4,10.4,0,0,1-3.045,1.262l-.777,2.018h-.991l.777-2.018a13.71,13.71,0,0,0,3.474-1.512ZM367.88,22.605l.3-.3,1.979.879q-.217.12-.428.25Zm14.517,0,.686-.3,2.332,2.332-.878,1.978a10.4,10.4,0,0,1,1.262,3.045l2.018.777v3.3l-2.019.777a10.4,10.4,0,0,1-1.262,3.045l.879,1.979-2.332,2.332-.686-.3,2.027-2.027-.879-1.979a10.4,10.4,0,0,0,1.262-3.045l2.019-.777v-3.3l-2.018-.777a10.4,10.4,0,0,0-1.262-3.045l.878-1.978Z" transform="translate(-363.45 -19.898)" fill="#ffd064" fill-rule="evenodd"/>
          <circle id="Elipse_14434" data-name="Elipse 14434" cx="5.751" cy="5.751" r="5.751" transform="translate(6.433 6.433)" fill="#eceff1"/>
          <path id="Trazado_1085366" data-name="Trazado 1085366" d="M386.51,61.257a5.751,5.751,0,1,0,0,11.5q.231,0,.457-.018a5.751,5.751,0,0,1,0-11.465Q386.741,61.257,386.51,61.257Z" transform="translate(-374.326 -54.824)" fill="#d1d1d6" fill-rule="evenodd"/>
        </g>
        <g id="Grupo_1217818" data-name="Grupo 1217818" transform="translate(21.015 57.079)">
          <path id="Trazado_1085367" data-name="Trazado 1085367" d="M159.27,386.89h27.286a8.183,8.183,0,1,1,0,16.365H159.27a8.183,8.183,0,1,1,0-16.365Z" transform="translate(-151.087 -386.89)" fill="#685e68" fill-rule="evenodd"/>
          <path id="Trazado_1085368" data-name="Trazado 1085368" d="M205.665,409.518A4.663,4.663,0,1,1,201,414.181,4.663,4.663,0,0,1,205.665,409.518Zm-27.286,0a4.663,4.663,0,1,1-4.663,4.663A4.663,4.663,0,0,1,178.379,409.518Zm13.643,0a4.663,4.663,0,1,1-4.663,4.663A4.663,4.663,0,0,1,192.022,409.518Z" transform="translate(-170.196 -405.999)" fill="#a79ba7" fill-rule="evenodd"/>
          <path id="Trazado_1085369" data-name="Trazado 1085369" d="M200.617,397.68a8.175,8.175,0,0,1-4.949,14.687H168.381a8.182,8.182,0,0,1-6.5-3.233,8.131,8.131,0,0,0,4.949,1.678h27.286a8.171,8.171,0,0,0,6.5-13.132Z" transform="translate(-160.199 -396.002)" fill="#544854" fill-rule="evenodd"/>
          <path id="Trazado_1085370" data-name="Trazado 1085370" d="M205.665,409.518a4.7,4.7,0,0,1,.668.048,4.664,4.664,0,0,0,0,9.231,4.663,4.663,0,1,1-.668-9.279Zm-27.286,0a4.7,4.7,0,0,1,.668.048,4.664,4.664,0,0,0,0,9.231,4.663,4.663,0,1,1-.668-9.279Zm13.643,0a4.7,4.7,0,0,1,.668.048,4.664,4.664,0,0,0,0,9.231,4.663,4.663,0,1,1-.668-9.279Z" transform="translate(-170.196 -405.999)" fill="#837683" fill-rule="evenodd"/>
          <path id="Trazado_1085371" data-name="Trazado 1085371" d="M222.541,429.5a1.555,1.555,0,1,1-1.555,1.555A1.555,1.555,0,0,1,222.541,429.5Zm-27.286,0a1.555,1.555,0,1,0,1.555,1.555A1.554,1.554,0,0,0,195.254,429.5Zm13.643,0a1.555,1.555,0,1,0,1.555,1.555A1.554,1.554,0,0,0,208.9,429.5Z" transform="translate(-187.072 -422.874)" fill="#837683" fill-rule="evenodd"/>
          <path id="Trazado_1085372" data-name="Trazado 1085372" d="M222.541,429.5a1.573,1.573,0,0,1,.274.024,1.556,1.556,0,0,0,0,3.063,1.572,1.572,0,0,1-.274.024,1.555,1.555,0,0,1,0-3.111Zm-27.286,0a1.555,1.555,0,0,0,0,3.111,1.573,1.573,0,0,0,.274-.024,1.556,1.556,0,0,1,0-3.063A1.574,1.574,0,0,0,195.254,429.5Zm13.643,0a1.555,1.555,0,1,0,.274,3.087,1.556,1.556,0,0,1,0-3.063A1.572,1.572,0,0,0,208.9,429.5Z" transform="translate(-187.072 -422.874)" fill="#685e68" fill-rule="evenodd"/>
        </g>
      </g>
      <path id="Trazado_1085373" data-name="Trazado 1085373" d="M69.132,78.395a3.419,3.419,0,1,0-3.419,3.419A3.423,3.423,0,0,0,69.132,78.395Zm-9.327,0a5.994,5.994,0,0,1,.1-1.09H57.875a5.84,5.84,0,0,1,0,2.179h2.032A5.99,5.99,0,0,1,59.8,78.395Zm-4.316,0a3.418,3.418,0,1,0-3.418,3.419A3.422,3.422,0,0,0,55.489,78.395Zm-9.325,0a5.994,5.994,0,0,1,.1-1.09H44.232a5.84,5.84,0,0,1,0,2.179h2.033A6,6,0,0,1,46.164,78.395Zm-4.318,0a3.418,3.418,0,1,0-3.419,3.419A3.423,3.423,0,0,0,41.846,78.395Zm29.775,0a5.9,5.9,0,0,1-10.6,3.577h-4.25a5.9,5.9,0,0,1-9.393,0H43.125a5.907,5.907,0,1,1,0-7.156h4.25a5.9,5.9,0,0,1,9.393,0h4.25a5.905,5.905,0,0,1,10.6,3.579Zm1.031,0a6.946,6.946,0,0,1-6.939,6.939H38.427a6.939,6.939,0,0,1,0-13.877H65.713A6.946,6.946,0,0,1,72.652,78.395ZM29.694,74.849a9.471,9.471,0,0,1,2.159-3.2A18.38,18.38,0,0,1,28.7,69.3L24.21,73.78a8.252,8.252,0,0,1,.337,2.4l.144.144,3.7-1.642a1.244,1.244,0,0,1,1.157.078l.147.087Zm5.242-15.313L21.9,72.574a1.244,1.244,0,0,0-.272,1.35,5.79,5.79,0,0,1-4.873,7.957l3.2-3.206a1.243,1.243,0,0,0,.322-1.2l-.949-3.54a1.243,1.243,0,0,0-.878-.881l-3.54-.947a1.214,1.214,0,0,0-.321-.043,1.245,1.245,0,0,0-.881.365l-3.206,3.2a5.792,5.792,0,0,1,7.957-4.873,1.248,1.248,0,0,0,1.351-.272L32.85,57.448a1.249,1.249,0,0,0,.272-1.35,5.792,5.792,0,0,1,4.873-7.958l-3.2,3.206a1.247,1.247,0,0,0-.324,1.2l.949,3.54a1.243,1.243,0,0,0,.881.878l3.54.949a1.239,1.239,0,0,0,1.2-.322l3.206-3.2a5.79,5.79,0,0,1-7.957,4.873,1.25,1.25,0,0,0-1.351.272ZM19.478,60.87a22.3,22.3,0,0,0,1.707,4.723L24.1,62.677A18.556,18.556,0,0,1,58.13,47.889h4.176a22.369,22.369,0,0,0-1.926-3.958,1.246,1.246,0,0,1-.078-1.159l1.641-3.7L57.873,35l-3.7,1.644a1.249,1.249,0,0,1-1.158-.078,22.246,22.246,0,0,0-6.529-2.708,1.248,1.248,0,0,1-.873-.764l-1.453-3.773H38.4L36.951,33.1a1.248,1.248,0,0,1-.873.764,22.27,22.27,0,0,0-6.531,2.708,1.246,1.246,0,0,1-1.157.078L24.692,35,20.62,39.075l1.644,3.7a1.247,1.247,0,0,1-.078,1.157,22.254,22.254,0,0,0-2.708,6.531,1.248,1.248,0,0,1-.764.873l-3.773,1.452v5.758L18.715,60a1.238,1.238,0,0,1,.762.873Zm42.009-5.854H58.127V50.377h3.359ZM49.828,65.436A2.411,2.411,0,0,0,51.8,67.8a16.324,16.324,0,0,1-1.515,1.165H38.427a9.35,9.35,0,0,0-4.339,1.062,16.027,16.027,0,0,1-3.629-2.5l5.684-5.686A8.275,8.275,0,0,0,46.338,51.331a1.245,1.245,0,0,0-2.063-.493l-4.488,4.489-2.152-.578L37.059,52.6l4.487-4.488a1.242,1.242,0,0,0-.493-2.062A8.276,8.276,0,0,0,30.537,56.241l-4.5,4.5A16.07,16.07,0,0,1,55.344,47.889H51.072a1.245,1.245,0,0,0-1.245,1.245Zm10.385,2.409H55.276q-.508.583-1.06,1.123h6.269l-.184-.412a1.257,1.257,0,0,1-.089-.711ZM62.731,57.5a1.244,1.244,0,0,0,1.244-1.245V50.377H67.3V65.357H52.316V50.377h3.323v5.882A1.244,1.244,0,0,0,56.883,57.5ZM75.14,78.395a9.437,9.437,0,0,1-9.427,9.427H38.427a9.42,9.42,0,0,1-9.369-10.463c-.083-.047-.165-.092-.246-.138l-3.89,1.728a1.249,1.249,0,0,1-.893.044A8.26,8.26,0,0,1,13.7,83.974a1.245,1.245,0,0,1-.495-2.063l4.489-4.488-.578-2.152-2.151-.575-4.488,4.487a1.243,1.243,0,0,1-2.062-.493A8.276,8.276,0,0,1,18.6,68.173l.734-.733a24.822,24.822,0,0,1-2.12-5.352L13.25,60.56a1.247,1.247,0,0,1-.8-1.162V51.933a1.247,1.247,0,0,1,.8-1.162l3.969-1.527a24.682,24.682,0,0,1,2.509-6.049L18,39.305a1.246,1.246,0,0,1,.258-1.386l5.279-5.279a1.244,1.244,0,0,1,1.384-.258l3.891,1.728A24.658,24.658,0,0,1,34.861,31.6l1.527-3.971a1.247,1.247,0,0,1,1.162-.8h7.466a1.247,1.247,0,0,1,1.162.8L47.7,31.6a24.681,24.681,0,0,1,6.049,2.507l3.89-1.728a1.244,1.244,0,0,1,1.384.258l5.28,5.279a1.246,1.246,0,0,1,.258,1.386l-1.728,3.888a24.717,24.717,0,0,1,2.1,4.7h3.6a1.244,1.244,0,0,1,1.244,1.245v16.3a2.412,2.412,0,0,1-2.409,2.409H63c-.056.1-.108.195-.165.291l.369.832h2.507a9.437,9.437,0,0,1,9.427,9.427Zm-9.427-1.556a1.556,1.556,0,1,1-1.555,1.556A1.556,1.556,0,0,1,65.713,76.839ZM82.659,24.522v1.589l-1.223.47a1.241,1.241,0,0,0-.769.874,9.168,9.168,0,0,1-1.105,2.679,1.227,1.227,0,0,0-.081,1.157l.534,1.2-1.127,1.124L77.7,33.082a1.237,1.237,0,0,0-1.157.078,9.213,9.213,0,0,1-2.685,1.112,1.242,1.242,0,0,0-.874.762l-.469,1.222H70.922l-.471-1.222a1.245,1.245,0,0,0-.873-.764A9.175,9.175,0,0,1,66.9,33.16a1.239,1.239,0,0,0-1.157-.078l-1.2.532L63.42,32.49l.531-1.2a1.248,1.248,0,0,0-.078-1.159,9.086,9.086,0,0,1-1.112-2.681A1.248,1.248,0,0,0,62,26.581l-1.221-.47V24.522L62,24.052a1.248,1.248,0,0,0,.764-.872A9.093,9.093,0,0,1,63.873,20.5a1.245,1.245,0,0,0,.078-1.157l-.531-1.2,1.123-1.124,1.2.532a1.242,1.242,0,0,0,1.157-.078,9.163,9.163,0,0,1,2.682-1.111,1.245,1.245,0,0,0,.873-.764l.471-1.222h1.589l.471,1.222a1.239,1.239,0,0,0,.873.764,9.083,9.083,0,0,1,2.678,1.111,1.256,1.256,0,0,0,1.164.078l1.193-.532,1.127,1.124-.534,1.2a1.229,1.229,0,0,0,.081,1.159,9.118,9.118,0,0,1,1.105,2.682,1.243,1.243,0,0,0,.769.872Zm2.482-.854v3.3a1.242,1.242,0,0,1-.8,1.162l-1.427.549a11.748,11.748,0,0,1-.9,2.184l.622,1.4a1.249,1.249,0,0,1-.264,1.384l-2.328,2.332a1.243,1.243,0,0,1-1.384.257l-1.406-.622a11.657,11.657,0,0,1-2.18.907l-.551,1.427a1.244,1.244,0,0,1-1.16.8h-3.3a1.244,1.244,0,0,1-1.16-.8l-.551-1.43a11.638,11.638,0,0,1-2.184-.9l-1.4.622a1.245,1.245,0,0,1-1.386-.257l-2.332-2.332a1.245,1.245,0,0,1-.258-1.384l.622-1.4a11.671,11.671,0,0,1-.906-2.185l-1.429-.549a1.246,1.246,0,0,1-.8-1.162v-3.3a1.244,1.244,0,0,1,.8-1.162l1.429-.549a11.577,11.577,0,0,1,.906-2.184l-.622-1.4a1.243,1.243,0,0,1,.258-1.384l2.332-2.333a1.246,1.246,0,0,1,1.386-.257l1.4.622a11.584,11.584,0,0,1,2.184-.9l.551-1.43a1.244,1.244,0,0,1,1.16-.8h3.3a1.244,1.244,0,0,1,1.16.8l.551,1.43a11.638,11.638,0,0,1,2.18.9l1.406-.622a1.247,1.247,0,0,1,1.384.257l2.328,2.333a1.248,1.248,0,0,1,.264,1.384l-.622,1.4a11.786,11.786,0,0,1,.9,2.186l1.427.549a1.241,1.241,0,0,1,.8,1.162ZM52.071,76.839a1.556,1.556,0,1,1-1.556,1.556A1.554,1.554,0,0,1,52.071,76.839ZM76.224,25.317a4.507,4.507,0,1,0-4.509,4.507A4.513,4.513,0,0,0,76.224,25.317Zm2.489,0a7,7,0,1,0-7,7A7.006,7.006,0,0,0,78.713,25.317ZM39.983,78.395a1.555,1.555,0,1,1-1.556-1.556A1.554,1.554,0,0,1,39.983,78.395Z" transform="translate(0 0)" fill="#242222" fill-rule="evenodd"/>
    </g>
  </g>
</svg>
