<svg xmlns="http://www.w3.org/2000/svg" xmlns:xlink="http://www.w3.org/1999/xlink" width="93.934" height="93.934" viewBox="0 0 93.934 93.934">
  <defs>
    <filter id="Trazado_978624" x="0" y="0" width="93.934" height="93.934" filterUnits="userSpaceOnUse">
      <feOffset dy="3" input="SourceAlpha"/>
      <feGaussianBlur stdDeviation="3" result="blur"/>
      <feFlood flood-opacity="0.161"/>
      <feComposite operator="in" in2="blur"/>
      <feComposite in="SourceGraphic"/>
    </filter>
  </defs>
  <g id="Grupo_1217836" data-name="Grupo 1217836" transform="translate(-609 -1166.033)">
    <g id="Grupo_1215435" data-name="Grupo 1215435" transform="translate(421 -60.5)">
      <g id="Grupo_1181207" data-name="Grupo 1181207" transform="translate(-421 -578)">
        <g id="Grupo_1211238" data-name="Grupo 1211238" transform="translate(0 -377.186)">
          <g id="Grupo_1208062" data-name="Grupo 1208062" transform="translate(412 751.719)">
            <g id="Grupo_1144123" data-name="Grupo 1144123" transform="translate(206 1436)">
              <g transform="matrix(1, 0, 0, 1, -9, -6)" filter="url(#Trazado_978624)">
                <g id="Trazado_978624-2" data-name="Trazado 978624" transform="translate(9 6)" fill="#eaf5fb">
                  <path d="M 37.966796875 74.43359375 C 33.04315185546875 74.43359375 28.26757431030273 73.46962738037109 23.77274131774902 71.56847381591797 C 19.43047523498535 69.73184967041016 15.53040790557861 67.10224914550781 12.18087482452393 63.75271987915039 C 8.831341743469238 60.4031867980957 6.201741218566895 56.50312042236328 4.365118980407715 52.16086196899414 C 2.463963508605957 47.66601943969727 1.499996900558472 42.89044189453125 1.499996900558472 37.966796875 C 1.499996900558472 33.04315185546875 2.463963508605957 28.26757431030273 4.365118980407715 23.77274131774902 C 6.201741218566895 19.43047523498535 8.831341743469238 15.53040790557861 12.18087482452393 12.18087482452393 C 15.53040790557861 8.831341743469238 19.43047523498535 6.201741218566895 23.77274131774902 4.365118980407715 C 28.26757431030273 2.463963508605957 33.04315185546875 1.499996900558472 37.966796875 1.499996900558472 C 42.89044189453125 1.499996900558472 47.66601943969727 2.463963508605957 52.16086196899414 4.365118980407715 C 56.50312042236328 6.201741218566895 60.4031867980957 8.831341743469238 63.75271987915039 12.18087482452393 C 67.10224914550781 15.53040790557861 69.73184967041016 19.43047523498535 71.56847381591797 23.77274131774902 C 73.46962738037109 28.26757431030273 74.43359375 33.04315185546875 74.43359375 37.966796875 C 74.43359375 42.89044189453125 73.46962738037109 47.66601943969727 71.56847381591797 52.16086196899414 C 69.73184967041016 56.50313186645508 67.10224914550781 60.4031867980957 63.75271987915039 63.75271987915039 C 60.4031867980957 67.10224914550781 56.50313186645508 69.73184967041016 52.16086196899414 71.56847381591797 C 47.66601943969727 73.46962738037109 42.89044189453125 74.43359375 37.966796875 74.43359375 Z" stroke="none"/>
                  <path d="M 37.966796875 3 C 33.2449836730957 3 28.66600799560547 3.924095153808594 24.35705947875977 5.746635437011719 C 20.19359588623047 7.507621765136719 16.45379638671875 10.02927398681641 13.24153518676758 13.24153518676758 C 10.02927398681641 16.45379638671875 7.507621765136719 20.19359588623047 5.746635437011719 24.35705947875977 C 3.924095153808594 28.66600799560547 3 33.2449836730957 3 37.966796875 C 3 42.6886100769043 3.924095153808594 47.26758575439453 5.746635437011719 51.57653427124023 C 7.507621765136719 55.73999786376953 10.02927398681641 59.47979736328125 13.24153518676758 62.69205856323242 C 16.45379638671875 65.90431976318359 20.19359588623047 68.42597198486328 24.35705947875977 70.18695831298828 C 28.66600799560547 72.00949859619141 33.2449836730957 72.93359375 37.966796875 72.93359375 C 42.6886100769043 72.93359375 47.26758575439453 72.00949859619141 51.57653427124023 70.18695831298828 C 55.73999786376953 68.42597198486328 59.47979736328125 65.90431976318359 62.69205856323242 62.69205856323242 C 65.90431976318359 59.47979736328125 68.42597198486328 55.73999786376953 70.18695831298828 51.57653427124023 C 72.00949859619141 47.26758575439453 72.93359375 42.6886100769043 72.93359375 37.966796875 C 72.93359375 33.2449836730957 72.00949859619141 28.66600799560547 70.18695831298828 24.35705947875977 C 68.42597198486328 20.19359588623047 65.90431976318359 16.45379638671875 62.69205856323242 13.24153518676758 C 59.47979736328125 10.02927398681641 55.73999786376953 7.507621765136719 51.57653427124023 5.746635437011719 C 47.26758575439453 3.924095153808594 42.6886100769043 3 37.966796875 3 M 37.966796875 0 C 58.93528366088867 0 75.93359375 16.99831008911133 75.93359375 37.966796875 C 75.93359375 58.93528366088867 58.93528366088867 75.93359375 37.966796875 75.93359375 C 16.99831008911133 75.93359375 0 58.93528366088867 0 37.966796875 C 0 16.99831008911133 16.99831008911133 0 37.966796875 0 Z" stroke="none" fill="#3ea6db"/>
                </g>
              </g>
            </g>
          </g>
        </g>
      </g>
    </g>
    <g id="Layer_x0020_1" transform="translate(479.668 959.342)">
      <path id="Trazado_1085405" data-name="Trazado 1085405" d="M201.372,280.655A4.652,4.652,0,1,1,206.024,276,4.679,4.679,0,0,1,201.372,280.655ZM166.54,260.549h-4.531a1.368,1.368,0,0,1-1.375-1.254l-.364-3.277a12.579,12.579,0,0,1-2.144-.89l-2.63,2.063a1.324,1.324,0,0,1-1.82-.121l-3.236-3.2a1.363,1.363,0,0,1-.081-1.82l2.063-2.63a12.578,12.578,0,0,1-.89-2.144l-3.277-.364A1.4,1.4,0,0,1,147,245.54v-4.531a1.4,1.4,0,0,1,1.214-1.375l3.317-.364a14.1,14.1,0,0,1,.89-2.144l-2.063-2.589a1.414,1.414,0,0,1,.081-1.861l3.236-3.2a1.324,1.324,0,0,1,1.82-.121l2.589,2.063a14.1,14.1,0,0,1,2.144-.89l.4-3.277A1.368,1.368,0,0,1,162.009,226h4.531a1.4,1.4,0,0,1,1.375,1.254l.364,3.277a14.1,14.1,0,0,1,2.144.89l2.589-2.063a1.375,1.375,0,0,1,1.861.121l3.2,3.2a1.363,1.363,0,0,1,.081,1.82l-2.063,2.63a12.578,12.578,0,0,1,.89,2.144l3.317.364a1.365,1.365,0,0,1,1.214,1.375v4.531a1.4,1.4,0,0,1-1.214,1.375l-3.317.364a14.1,14.1,0,0,1-.89,2.144l2.063,2.589a1.414,1.414,0,0,1-.081,1.861l-3.2,3.2a1.375,1.375,0,0,1-1.861.121l-2.589-2.063a13.9,13.9,0,0,1-2.144.85l-.364,3.317A1.4,1.4,0,0,1,166.54,260.549Zm-4.329-1.618h4.126c.647-5.987-.162-3.236,3.762-5.461a.863.863,0,0,1,.93.04l2.832,2.306,2.913-2.913c-3.8-4.814-2.346-2.185-1.173-6.554a.822.822,0,0,1,.688-.607l3.641-.4v-4.126c-6.028-.688-3.236.162-5.5-3.762a.863.863,0,0,1,.081-.93l2.265-2.872-2.913-2.913c-4.774,3.8-2.144,2.387-6.554,1.214a.838.838,0,0,1-.566-.688l-.4-3.641h-4.126c-.688,5.987.162,3.236-3.8,5.461a.792.792,0,0,1-.89-.04l-2.872-2.306-2.913,2.913c3.8,4.774,2.346,2.185,1.214,6.554a.822.822,0,0,1-.688.607l-3.641.4v4.126c5.987.688,3.236-.162,5.461,3.762a.8.8,0,0,1-.081.93l-2.265,2.872,2.913,2.913c4.774-3.843,2.144-2.387,6.554-1.214a.822.822,0,0,1,.607.688Zm2.063-7.484a8.172,8.172,0,1,1,8.172-8.172A8.149,8.149,0,0,1,164.274,251.446Zm0-14.726a6.554,6.554,0,1,0,6.554,6.554A6.526,6.526,0,0,0,164.274,236.721ZM212.5,260.549H186.929a3.522,3.522,0,0,1-3.52-3.52V237.611a3.557,3.557,0,0,1,3.56-3.52H212.5a3.522,3.522,0,0,1,3.52,3.52v19.418A3.522,3.522,0,0,1,212.5,260.549Zm-27.469-19.378v15.858a1.9,1.9,0,0,0,1.9,1.9H212.5a1.9,1.9,0,0,0,1.9-1.9V241.171Zm0-1.618H214.4v-1.942a1.9,1.9,0,0,0-1.9-1.9H186.97a1.934,1.934,0,0,0-1.942,1.9ZM211.364,253.1h-5.987a.809.809,0,1,1,0-1.618h5.987A.809.809,0,0,1,211.364,253.1Zm0,3.156H201.7a.809.809,0,1,1,0-1.618h9.669A.809.809,0,0,1,211.364,256.26Zm-13.836-2.185h-8.617a.787.787,0,0,1-.809-.809V244.69a.811.811,0,0,1,.809-.809h8.617a.811.811,0,0,1,.809.809v8.576A.811.811,0,0,1,197.528,254.076Zm-7.808-1.618h7V245.5h-7Zm13.674,36.167H159.622a12.6,12.6,0,1,1,0-25.2h43.772a12.6,12.6,0,1,1,0,25.2Zm-43.772-23.585a10.984,10.984,0,1,0,0,21.967h43.772a10.984,10.984,0,1,0,0-21.967Zm43.772,19.54H159.622a8.556,8.556,0,1,1,0-17.112h43.772a8.556,8.556,0,1,1,0,17.112Zm-43.772-15.535a6.958,6.958,0,1,0,0,13.917h43.772a6.958,6.958,0,1,0,0-13.917Zm2.023,11.611A4.652,4.652,0,1,1,166.3,276,4.653,4.653,0,0,1,161.645,280.655Zm0-7.686A3.034,3.034,0,1,0,164.679,276,3.03,3.03,0,0,0,161.645,272.968Zm13.229,7.686A4.652,4.652,0,1,1,179.526,276,4.679,4.679,0,0,1,174.874,280.655Zm0-7.686A3.034,3.034,0,1,0,177.908,276,3.056,3.056,0,0,0,174.874,272.968Zm13.269,7.686A4.652,4.652,0,1,1,192.8,276,4.653,4.653,0,0,1,188.143,280.655Zm0-7.686A3.034,3.034,0,1,0,191.177,276,3.03,3.03,0,0,0,188.143,272.968Zm13.229,0A3.034,3.034,0,1,0,204.406,276,3.056,3.056,0,0,0,201.372,272.968Z" fill-rule="evenodd"/>
      <path id="Trazado_1085406" data-name="Trazado 1085406" d="M1103.667,614.472h9.669a.809.809,0,0,1,0,1.618h-9.669A.809.809,0,1,1,1103.667,614.472ZM1088.9,618.76h25.568a1.9,1.9,0,0,0,1.9-1.9V601H1087v15.858A1.9,1.9,0,0,0,1088.9,618.76Zm18.448-7.444h5.987a.809.809,0,0,1,0,1.618h-5.987A.809.809,0,1,1,1107.349,611.316Zm-7.039-6.8V613.1a.812.812,0,0,1-.809.809h-8.617a.787.787,0,0,1-.809-.809V604.52a.812.812,0,0,1,.809-.809h8.617A.812.812,0,0,1,1100.31,604.52Z" transform="translate(-901.972 -359.829)" fill="#fff" fill-rule="evenodd"/>
      <path id="Trazado_1085407" data-name="Trazado 1085407" d="M1210,714.958V708h-7v6.958Z" transform="translate(-1013.279 -462.501)" fill="#ffa721" fill-rule="evenodd"/>
      <path id="Trazado_1085408" data-name="Trazado 1085408" d="M1087,469.843h29.37V467.9a1.9,1.9,0,0,0-1.9-1.9h-25.527a1.934,1.934,0,0,0-1.942,1.9Z" transform="translate(-901.972 -230.291)" fill="#ffa721" fill-rule="evenodd"/>
      <path id="Trazado_1085409" data-name="Trazado 1085409" d="M218.312,283.719v-4.126c-6.028-.688-3.236.162-5.5-3.762a.863.863,0,0,1,.081-.93l2.265-2.872-2.913-2.913c-4.774,3.8-2.144,2.387-6.554,1.214a.838.838,0,0,1-.566-.688l-.4-3.641h-4.126c-.688,5.987.162,3.236-3.8,5.461a.792.792,0,0,1-.89-.04l-2.872-2.306-2.913,2.913c3.8,4.774,2.346,2.185,1.214,6.554a.822.822,0,0,1-.688.607l-3.641.4v4.126c5.987.688,3.236-.162,5.461,3.762a.8.8,0,0,1-.081.931l-2.265,2.872,2.913,2.913c4.774-3.843,2.144-2.387,6.554-1.214a.822.822,0,0,1,.607.688l.4,3.641h4.126c.647-5.987-.162-3.236,3.762-5.461a.863.863,0,0,1,.93.04l2.832,2.306,2.913-2.913c-3.8-4.814-2.346-2.185-1.173-6.554a.822.822,0,0,1,.688-.607Zm-7.484-2.063a8.172,8.172,0,1,1-8.172-8.172A8.175,8.175,0,0,1,210.828,281.656Z" transform="translate(-38.382 -38.382)" fill="#ffa721" fill-rule="evenodd"/>
      <path id="Trazado_1085410" data-name="Trazado 1085410" d="M1419.034,1387a3.034,3.034,0,1,0,3.034,3.034A3.056,3.056,0,0,0,1419.034,1387Z" transform="translate(-1217.662 -1114.032)" fill="#fff" fill-rule="evenodd"/>
      <path id="Trazado_1085411" data-name="Trazado 1085411" d="M331.056,1296.958a4.652,4.652,0,1,1,4.652,4.652A4.679,4.679,0,0,1,331.056,1296.958Zm6.675-6.958H293.958a6.958,6.958,0,0,0,0,13.917h43.772a6.958,6.958,0,0,0,0-13.917Zm-28.521,2.306a4.652,4.652,0,1,1-4.652,4.652A4.653,4.653,0,0,1,309.21,1292.306Zm-13.229,0a4.652,4.652,0,1,1-4.652,4.652A4.679,4.679,0,0,1,295.981,1292.306Zm26.5,0a4.652,4.652,0,1,1-4.652,4.652A4.679,4.679,0,0,1,322.479,1292.306Z" transform="translate(-134.336 -1020.956)" fill="#666" fill-rule="evenodd"/>
      <path id="Trazado_1085412" data-name="Trazado 1085412" d="M198,1193.427h43.772a8.556,8.556,0,1,1,0,17.112H198a8.556,8.556,0,1,1,0-17.112ZM241.776,1191H198a10.984,10.984,0,1,0,0,21.967h43.772a10.984,10.984,0,1,0,0-21.967Z" transform="translate(-38.382 -925.961)" fill="#ffa721" fill-rule="evenodd"/>
      <g id="Grupo_1217835" data-name="Grupo 1217835" transform="translate(158.611 272.968)">
        <path id="Trazado_1085413" data-name="Trazado 1085413" d="M1092.034,1387a3.034,3.034,0,1,0,3.034,3.034A3.03,3.03,0,0,0,1092.034,1387Z" transform="translate(-1062.502 -1387)" fill="#fff" fill-rule="evenodd"/>
        <path id="Trazado_1085414" data-name="Trazado 1085414" d="M767.068,1390.034a3.034,3.034,0,1,0-3.034,3.034A3.03,3.03,0,0,0,767.068,1390.034Z" transform="translate(-747.771 -1387)" fill="#fff" fill-rule="evenodd"/>
        <path id="Trazado_1085415" data-name="Trazado 1085415" d="M440.068,1390.034a3.034,3.034,0,1,0-3.034,3.034A3.056,3.056,0,0,0,440.068,1390.034Z" transform="translate(-434 -1387)" fill="#fff" fill-rule="evenodd"/>
      </g>
      <path id="Trazado_1085416" data-name="Trazado 1085416" d="M1111.8,467.982a1.856,1.856,0,0,1,1.861,1.861h2.71V467.9a1.9,1.9,0,0,0-1.9-1.9h-25.527a1.934,1.934,0,0,0-1.942,1.9v.081Z" transform="translate(-901.972 -230.291)" fill="#ff961e" fill-rule="evenodd"/>
      <path id="Trazado_1085417" data-name="Trazado 1085417" d="M1701.861,601.364V611.4a.82.82,0,0,1,0,1.5v1.659a.82.82,0,0,1,0,1.5v.809a1.891,1.891,0,0,1-1.861,1.9h2.67a1.9,1.9,0,0,0,1.9-1.9V601h-2.711Z" transform="translate(-1490.173 -359.829)" fill="#e6e6e6" fill-rule="evenodd"/>
      <path id="Trazado_1085418" data-name="Trazado 1085418" d="M356.818,1292.306a4.647,4.647,0,0,1,3.884,2.1,6.867,6.867,0,0,1,2.387,5.259,7.251,7.251,0,0,1-.85,3.358,6.956,6.956,0,0,0-3.4-13.027H315.068a6.9,6.9,0,0,0-6.068,3.6,6.711,6.711,0,0,1,3.358-.89h2.832a4.842,4.842,0,0,1,1.9-.4,5,5,0,0,1,1.9.4h9.426a5.171,5.171,0,0,1,1.9-.4,4.842,4.842,0,0,1,1.9.4h9.466a4.842,4.842,0,0,1,1.9-.4,5.171,5.171,0,0,1,1.9.4h9.426A5,5,0,0,1,356.818,1292.306Z" transform="translate(-155.446 -1020.956)" fill="#4d4d4d" fill-rule="evenodd"/>
    </g>
  </g>
</svg>
