<svg xmlns="http://www.w3.org/2000/svg" width="85" height="93" viewBox="0 0 85 93">
  <g id="Grupo_1217980" data-name="Grupo 1217980" transform="translate(-180 -1881)">
    <rect id="Rectángulo_421296" data-name="Rectángulo 421296" width="60" height="93" transform="translate(205 1881)" fill="#e6e6e6"/>
    <g id="fabricacion_2_" data-name="fabricacion (2)" transform="translate(172 1880.303)">
      <g id="Grupo_1217979" data-name="Grupo 1217979" transform="translate(9.371 9.922)">
        <circle id="Elipse_14438" data-name="Elipse 14438" cx="1.83" cy="1.83" r="1.83" transform="translate(48.581 4.048)"/>
        <g id="Grupo_1217964" data-name="Grupo 1217964" transform="translate(41.557 51.055)">
          <g id="Grupo_1217960" data-name="Grupo 1217960">
            <g id="Grupo_1217958" data-name="Grupo 1217958">
              <path id="Trazado_1085713" data-name="Trazado 1085713" d="M260.325,326.5h10.591a1.846,1.846,0,0,0,1.827-1.858V312.977a.96.96,0,0,0-.95-.966H259.448a.96.96,0,0,0-.95.966v11.662a1.846,1.846,0,0,0,1.827,1.858Z" transform="translate(-258.498 -312.011)" fill="#e3a76f" fill-rule="evenodd"/>
              <path id="Trazado_1085714" data-name="Trazado 1085714" d="M320.3,326.5h1.827a1.846,1.846,0,0,0,1.827-1.858V312.978a.96.96,0,0,0-.95-.966h-1.827a.96.96,0,0,1,.95.966V324.64A1.846,1.846,0,0,1,320.3,326.5Z" transform="translate(-309.711 -312.012)" fill="#c48958" fill-rule="evenodd"/>
            </g>
            <g id="Grupo_1217959" data-name="Grupo 1217959" transform="translate(4.738)">
              <path id="Trazado_1085715" data-name="Trazado 1085715" d="M286.145,312.011h4.77v4.9a.915.915,0,0,1-.913.913h-2.943a.915.915,0,0,1-.913-.913Z" transform="translate(-286.145 -312.011)" fill="#f2d1a5" fill-rule="evenodd"/>
              <path id="Trazado_1085716" data-name="Trazado 1085716" d="M303.272,312.011h1.078v4.9a.915.915,0,0,1-.913.914h-1.078a.915.915,0,0,0,.913-.914Z" transform="translate(-299.58 -312.011)" fill="#ecba78" fill-rule="evenodd"/>
            </g>
          </g>
          <g id="Grupo_1217963" data-name="Grupo 1217963" transform="translate(20.053)">
            <g id="Grupo_1217961" data-name="Grupo 1217961">
              <path id="Trazado_1085717" data-name="Trazado 1085717" d="M377.341,326.5h10.591a1.846,1.846,0,0,0,1.827-1.858V312.977a.96.96,0,0,0-.95-.966H376.464a.96.96,0,0,0-.95.966v11.662A1.846,1.846,0,0,0,377.341,326.5Z" transform="translate(-375.514 -312.011)" fill="#e3a76f" fill-rule="evenodd"/>
              <path id="Trazado_1085718" data-name="Trazado 1085718" d="M437.318,326.5h1.827a1.846,1.846,0,0,0,1.827-1.858V312.978a.96.96,0,0,0-.95-.966H438.2a.96.96,0,0,1,.95.966V324.64A1.846,1.846,0,0,1,437.318,326.5Z" transform="translate(-426.727 -312.012)" fill="#c48958" fill-rule="evenodd"/>
            </g>
            <g id="Grupo_1217962" data-name="Grupo 1217962" transform="translate(4.738)">
              <path id="Trazado_1085719" data-name="Trazado 1085719" d="M403.161,312.011h4.77v4.9a.915.915,0,0,1-.913.913h-2.943a.915.915,0,0,1-.913-.913v-4.9Z" transform="translate(-403.161 -312.011)" fill="#f2d1a5" fill-rule="evenodd"/>
              <path id="Trazado_1085720" data-name="Trazado 1085720" d="M420.288,312.011h1.078v4.9a.915.915,0,0,1-.913.914h-1.078a.915.915,0,0,0,.913-.914Z" transform="translate(-416.596 -312.011)" fill="#ecba78" fill-rule="evenodd"/>
            </g>
          </g>
        </g>
        <g id="Grupo_1217971" data-name="Grupo 1217971" transform="translate(6.112 0)">
          <path id="Trazado_1085721" data-name="Trazado 1085721" d="M122.115,36.073l-1.853-8.236L85.952,48.918l9.116,11.125Z" transform="translate(-80.077 -25.481)" fill="#d1d1d6" fill-rule="evenodd"/>
          <g id="Grupo_1217965" data-name="Grupo 1217965" transform="translate(50.476 26.598)">
            <path id="Trazado_1085722" data-name="Trazado 1085722" d="M365.006,178.693a9.4,9.4,0,0,1-4.887,8.247v-8.382L355.51,175.9l-4.608,2.661v8.273a9.4,9.4,0,1,1,14.1-8.138Z" transform="translate(-346.208 -169.294)" fill="#d1d1d6" fill-rule="evenodd"/>
            <path id="Trazado_1085723" data-name="Trazado 1085723" d="M382.6,178.693a9.4,9.4,0,0,1-4.887,8.247v-.065a9.4,9.4,0,0,0-9.724-16,9.4,9.4,0,0,1,14.611,7.822Zm-14.1-.135-1.056.61v6.951a9.4,9.4,0,0,0,1.056.712Z" transform="translate(-363.798 -169.294)" fill="#b1b1b5" fill-rule="evenodd"/>
          </g>
          <path id="Trazado_1085724" data-name="Trazado 1085724" d="M68.684,222.256l17.9-.24-7.34-27.777c-4.045-1.816-7.7-5-12.321-4.44Z" transform="translate(-64.307 -159.633)" fill="#d1d1d6" fill-rule="evenodd"/>
          <path id="Trazado_1085725" data-name="Trazado 1085725" d="M300.849,50.412l13.04,11.373c1.32-1.1,3.39-1.671,3.906-3.786L306.4,45.023A67.232,67.232,0,0,0,300.849,50.412Z" transform="translate(-258.146 -39.722)" fill="#d1d1d6" fill-rule="evenodd"/>
          <g id="Grupo_1217966" data-name="Grupo 1217966" transform="translate(37.511)">
            <ellipse id="Elipse_14439" data-name="Elipse 14439" cx="5.013" cy="5.013" rx="5.013" ry="5.013" transform="translate(0 9.755) rotate(-76.7)" fill="#b1b1b5"/>
            <path id="Trazado_1085726" data-name="Trazado 1085726" d="M301.536,19.937a5.013,5.013,0,1,1-.857,9.952,5.013,5.013,0,0,0,0-9.879,5.041,5.041,0,0,1,.857-.073Z" transform="translate(-295.516 -18.935)" fill="#9c9c9e" fill-rule="evenodd"/>
          </g>
          <g id="Grupo_1217967" data-name="Grupo 1217967" transform="translate(54.999 17.575)">
            <circle id="Elipse_14440" data-name="Elipse 14440" cx="4.238" cy="4.238" r="4.238" transform="matrix(0.16, -0.987, 0.987, 0.16, 0, 8.366)" fill="#b1b1b5"/>
            <path id="Trazado_1085727" data-name="Trazado 1085727" d="M396.91,120.272a4.238,4.238,0,1,1-.857,8.39,4.239,4.239,0,0,0,0-8.3A4.25,4.25,0,0,1,396.91,120.272Z" transform="translate(-392.034 -119.65)" fill="#9c9c9e" fill-rule="evenodd"/>
          </g>
          <g id="Grupo_1217968" data-name="Grupo 1217968" transform="translate(2.492 20.487)">
            <circle id="Elipse_14441" data-name="Elipse 14441" cx="7.246" cy="7.246" r="7.246" transform="translate(0 13.869) rotate(-73.142)" fill="#b1b1b5"/>
            <path id="Trazado_1085728" data-name="Trazado 1085728" d="M114.785,144.028a7.246,7.246,0,1,1-.857,14.441,7.246,7.246,0,0,0,0-14.391A7.324,7.324,0,0,1,114.785,144.028Z" transform="translate(-105.75 -142.247)" fill="#9c9c9e" fill-rule="evenodd"/>
          </g>
          <g id="Grupo_1217969" data-name="Grupo 1217969" transform="translate(8.541 26.531)">
            <circle id="Elipse_14442" data-name="Elipse 14442" cx="2.597" cy="2.597" r="2.597" transform="matrix(0.16, -0.987, 0.987, 0.16, 0, 5.126)" fill="#9facba"/>
            <path id="Trazado_1085729" data-name="Trazado 1085729" d="M106.37,171.156a2.588,2.588,0,0,1,.857.145,2.6,2.6,0,0,0,0,4.9,2.6,2.6,0,1,1-.857-5.049Z" transform="translate(-103.385 -170.77)" fill="#8d9ca8" fill-rule="evenodd"/>
          </g>
          <g id="Grupo_1217970" data-name="Grupo 1217970" transform="translate(0 60.854)">
            <path id="Trazado_1085730" data-name="Trazado 1085730" d="M51.667,375.021H77.72v-3.836a2.166,2.166,0,0,0-2.29-2H53.957a2.166,2.166,0,0,0-2.29,2v3.836Z" transform="translate(-51.667 -369.186)" fill="#b1b1b5" fill-rule="evenodd"/>
            <path id="Trazado_1085731" data-name="Trazado 1085731" d="M76.409,375.022h1.5v-3.835a2.166,2.166,0,0,0-2.29-2H54.15a2.238,2.238,0,0,0-2.25,1.629,2.57,2.57,0,0,1,.747-.11H74.119a2.166,2.166,0,0,1,2.29,2Z" transform="translate(-51.86 -369.187)" fill="#9c9c9e" fill-rule="evenodd"/>
          </g>
        </g>
        <g id="Grupo_1217977" data-name="Grupo 1217977" transform="translate(0 65.542)">
          <g id="Grupo_1217972" data-name="Grupo 1217972">
            <path id="Trazado_1085732" data-name="Trazado 1085732" d="M24.186,396.542H90.074a8.185,8.185,0,1,1,0,16.369H24.186a8.185,8.185,0,0,1,0-16.369Z" transform="translate(-16.001 -396.542)" fill="#9facba" fill-rule="evenodd"/>
            <path id="Trazado_1085733" data-name="Trazado 1085733" d="M438.239,396.542h1.714a8.185,8.185,0,1,1,0,16.369h-1.714a8.185,8.185,0,1,0,0-16.369Z" transform="translate(-365.88 -396.542)" fill="#8d9ca8" fill-rule="evenodd"/>
          </g>
          <g id="Grupo_1217973" data-name="Grupo 1217973" transform="translate(3.858 3.858)">
            <circle id="Elipse_14443" data-name="Elipse 14443" cx="4.327" cy="4.327" r="4.327" transform="translate(0 0)" fill="#8192a5"/>
            <path id="Trazado_1085734" data-name="Trazado 1085734" d="M59.618,419.054a4.327,4.327,0,1,1-.857,8.569,4.328,4.328,0,0,0,0-8.484A4.343,4.343,0,0,1,59.618,419.054Z" transform="translate(-55.291 -419.054)" fill="#65788e" fill-rule="evenodd"/>
          </g>
          <g id="Grupo_1217974" data-name="Grupo 1217974" transform="translate(25.172 3.211)">
            <circle id="Elipse_14444" data-name="Elipse 14444" cx="4.327" cy="4.327" r="4.327" transform="matrix(0.16, -0.987, 0.987, 0.16, 0, 8.541)" fill="#8192a5"/>
            <path id="Trazado_1085735" data-name="Trazado 1085735" d="M187.777,419.054a4.327,4.327,0,1,1-.857,8.569,4.328,4.328,0,0,0,0-8.484A4.342,4.342,0,0,1,187.777,419.054Z" transform="translate(-182.801 -418.407)" fill="#65788e" fill-rule="evenodd"/>
          </g>
          <g id="Grupo_1217975" data-name="Grupo 1217975" transform="translate(46.486 2.521)">
            <circle id="Elipse_14445" data-name="Elipse 14445" cx="4.327" cy="4.327" r="4.327" transform="translate(0 3.314) rotate(-22.514)" fill="#8192a5"/>
            <path id="Trazado_1085736" data-name="Trazado 1085736" d="M315.937,419.054a4.327,4.327,0,1,1-.857,8.569,4.328,4.328,0,0,0,0-8.484A4.343,4.343,0,0,1,315.937,419.054Z" transform="translate(-310.313 -417.717)" fill="#65788e" fill-rule="evenodd"/>
          </g>
          <g id="Grupo_1217976" data-name="Grupo 1217976" transform="translate(69.746 3.858)">
            <circle id="Elipse_14446" data-name="Elipse 14446" cx="4.327" cy="4.327" r="4.327" transform="translate(0 0)" fill="#8192a5"/>
            <path id="Trazado_1085737" data-name="Trazado 1085737" d="M444.1,419.054a4.327,4.327,0,1,1-.857,8.569,4.328,4.328,0,0,0,0-8.484A4.343,4.343,0,0,1,444.1,419.054Z" transform="translate(-439.77 -419.054)" fill="#65788e" fill-rule="evenodd"/>
          </g>
        </g>
        <g id="Grupo_1217978" data-name="Grupo 1217978" transform="translate(0.758 8.317)">
          <path id="Trazado_1085738" data-name="Trazado 1085738" d="M44.722,65.98a17.3,17.3,0,0,1,5.064,2.1l3.29-1.461L56.954,70.5l-1.461,3.289a17.3,17.3,0,0,1,2.1,5.065l3.357,1.292v5.484l-3.358,1.292a17.3,17.3,0,0,1-2.1,5.064l1.461,3.29-3.878,3.878-3.289-1.461a17.3,17.3,0,0,1-5.065,2.1l-1.292,3.357H37.945L36.652,99.79a17.3,17.3,0,0,1-5.064-2.1L28.3,99.152,24.42,95.274l1.461-3.289a17.3,17.3,0,0,1-2.1-5.065l-3.357-1.292V80.143l3.358-1.292a17.291,17.291,0,0,1,2.1-5.064L24.42,70.5,28.3,66.618l3.29,1.461a17.3,17.3,0,0,1,5.064-2.1l1.292-3.358h5.484Z" transform="translate(-20.424 -62.622)" fill="#ffe177" fill-rule="evenodd"/>
          <path id="Trazado_1085739" data-name="Trazado 1085739" d="M87.67,67.108l1.105-.491L92.653,70.5l-1.461,3.289a17.3,17.3,0,0,1,2.1,5.065l3.357,1.292v5.484l-3.358,1.292a17.3,17.3,0,0,1-2.1,5.064l1.461,3.29-3.878,3.878-1.1-.491,3.387-3.387L89.6,91.983a17.3,17.3,0,0,0,2.1-5.064l3.358-1.292V80.143L91.7,78.85a17.3,17.3,0,0,0-2.1-5.065L91.057,70.5Zm-24.164,0L64,66.618l3.29,1.461q-.349.193-.689.4ZM80.42,65.98a17.3,17.3,0,0,1,5.064,2.1l-.907.4a22.62,22.62,0,0,0-5.753-2.5l-1.292-3.358h1.6ZM67.287,97.69,64,99.152l-.491-.491L66.6,97.288Q66.938,97.5,67.287,97.69Zm18.2,0a17.3,17.3,0,0,1-5.065,2.1l-1.292,3.357h-1.6l1.292-3.357a22.624,22.624,0,0,0,5.754-2.5Z" transform="translate(-56.123 -62.622)" fill="#ffd064" fill-rule="evenodd"/>
          <circle id="Elipse_14447" data-name="Elipse 14447" cx="10.334" cy="10.334" r="10.334" transform="translate(5.645 20.262) rotate(-45)" fill="#eceff1"/>
          <path id="Trazado_1085740" data-name="Trazado 1085740" d="M88.695,120.559c.235,0,.469.009.7.024a10.334,10.334,0,0,0,0,20.62c-.231.015-.465.024-.7.024a10.334,10.334,0,1,1,0-20.668Z" transform="translate(-68.432 -110.63)" fill="#d1d1d6" fill-rule="evenodd"/>
        </g>
      </g>
      <path id="Trazado_1085741" data-name="Trazado 1085741" d="M30.391,30.8A8.194,8.194,0,1,1,22.2,38.994,8.2,8.2,0,0,1,30.391,30.8Zm0,19.129A10.936,10.936,0,1,0,19.457,38.994,10.949,10.949,0,0,0,30.391,49.931ZM57.144,15.453a1.885,1.885,0,1,1,1.885,1.885A1.885,1.885,0,0,1,57.144,15.453ZM83.445,87.1A2.956,2.956,0,1,1,86.4,84.14,2.961,2.961,0,0,1,83.445,87.1Zm0-8.655a5.7,5.7,0,1,0,5.7,5.7A5.706,5.706,0,0,0,83.445,78.442ZM61.482,87.1a2.956,2.956,0,1,1,2.956-2.957A2.961,2.961,0,0,1,61.482,87.1Zm0-8.655a5.7,5.7,0,1,0,5.7,5.7A5.706,5.706,0,0,0,61.482,78.442ZM39.519,87.1a2.956,2.956,0,1,1,2.956-2.957A2.961,2.961,0,0,1,39.519,87.1Zm0-8.655a5.7,5.7,0,1,0,5.7,5.7A5.706,5.706,0,0,0,39.519,78.442ZM17.555,87.1a2.956,2.956,0,1,1,2.957-2.957A2.96,2.96,0,0,1,17.555,87.1Zm0-8.655a5.7,5.7,0,1,0,5.7,5.7A5.705,5.705,0,0,0,17.555,78.442ZM33.136,88.468a1.37,1.37,0,0,1-1.37,1.371H25.308a1.371,1.371,0,1,1,0-2.742h6.458A1.37,1.37,0,0,1,33.136,88.468Zm21.964,0a1.371,1.371,0,0,1-1.371,1.371H47.271a1.371,1.371,0,0,1,0-2.742h6.458A1.371,1.371,0,0,1,55.1,88.468Zm21.963-8.655a1.371,1.371,0,0,1-1.371,1.371H69.235a1.371,1.371,0,1,1,0-2.742h6.457A1.371,1.371,0,0,1,77.063,79.813Zm-43.926,0a1.37,1.37,0,0,1-1.37,1.371H25.308a1.371,1.371,0,1,1,0-2.742h6.458A1.37,1.37,0,0,1,33.136,79.813Zm43.926,8.655a1.371,1.371,0,0,1-1.371,1.371H69.235a1.371,1.371,0,1,1,0-2.742h6.457A1.371,1.371,0,0,1,77.063,88.468ZM55.1,79.813a1.371,1.371,0,0,1-1.371,1.371H47.271a1.371,1.371,0,0,1,0-2.742h6.458A1.371,1.371,0,0,1,55.1,79.813ZM83.445,90.954a6.814,6.814,0,0,0,0-13.628H17.555a6.814,6.814,0,0,0,0,13.628ZM16.855,73.632a.953.953,0,0,1,.951-.952H39.587a.953.953,0,0,1,.952.952v.952H17.555c-.236,0-.469.012-.7.029Zm3.367-17.856.984-.437a18.6,18.6,0,0,0,4.125,1.711l1.04,2.7a1.367,1.367,0,0,0,1.278.88h5.483a1.25,1.25,0,0,0,.193-.015l2.468,9.326H21.069Zm-4.461-4.7,2.546,2.547,2.43-1.08a1.376,1.376,0,0,1,1.277.086,15.878,15.878,0,0,0,4.662,1.932,1.368,1.368,0,0,1,.961.841l.954,2.48h3.6l.954-2.479a1.374,1.374,0,0,1,.961-.841,15.891,15.891,0,0,0,4.665-1.933,1.369,1.369,0,0,1,1.275-.086l2.428,1.079,2.547-2.547-1.078-2.43a1.371,1.371,0,0,1,.086-1.276,15.939,15.939,0,0,0,1.933-4.662,1.368,1.368,0,0,1,.84-.961l2.48-.955v-3.6l-2.478-.954a1.372,1.372,0,0,1-.841-.962,15.9,15.9,0,0,0-1.933-4.663,1.37,1.37,0,0,1-.086-1.275l1.078-2.429-2.547-2.547-2.43,1.079a1.369,1.369,0,0,1-1.275-.086,15.9,15.9,0,0,0-4.663-1.933,1.372,1.372,0,0,1-.961-.841L32.193,20.1h-3.6l-.954,2.479a1.366,1.366,0,0,1-.961.841,15.929,15.929,0,0,0-4.663,1.933,1.369,1.369,0,0,1-1.275.086l-2.43-1.079L15.76,26.91l1.079,2.43a1.371,1.371,0,0,1-.086,1.275,15.9,15.9,0,0,0-1.933,4.662,1.374,1.374,0,0,1-.841.962l-2.48.955v3.6l2.48.953a1.373,1.373,0,0,1,.84.962,15.878,15.878,0,0,0,1.935,4.663,1.373,1.373,0,0,1,.086,1.276ZM59.029,11.8a3.651,3.651,0,1,0,3.652,3.651A3.655,3.655,0,0,0,59.029,11.8ZM70.52,29.054l-8.87-7.772a6.437,6.437,0,0,0,3.009-2.8l7.916,8.5A5.659,5.659,0,0,0,70.52,29.054Zm4.884-.1a2.875,2.875,0,1,0,2.875,2.875A2.879,2.879,0,0,0,75.4,28.953Zm8.046,16.537A8.056,8.056,0,0,1,81.3,50.969V45.354a1.374,1.374,0,0,0-.685-1.188L75.993,41.5a1.376,1.376,0,0,0-1.371,0l-4.616,2.666a1.37,1.37,0,0,0-.685,1.188v5.394a8.044,8.044,0,1,1,14.129-5.259ZM47.628,25.636,43.75,21.759a1.363,1.363,0,0,0-.55-.334l9.447-5.61A6.4,6.4,0,0,0,55.854,21l-8.288,6.946.346-.781a1.371,1.371,0,0,0-.284-1.526Zm4.382,37.2h2.075v4.54a1.37,1.37,0,0,0,1.371,1.37h4.85a1.37,1.37,0,0,0,1.371-1.37v-4.54h2.077V74.585H52.01V62.841Zm4.817,0V66.01h2.108V62.841Zm15.574,0h2.076v4.54a1.371,1.371,0,0,0,1.37,1.37H80.7a1.371,1.371,0,0,0,1.371-1.37v-4.54h2.075V74.614c-.232-.017-.465-.029-.7-.029H72.4Zm4.817,0V66.01h2.11V62.841ZM86.195,74.99h.692V61.47a1.37,1.37,0,0,0-1.37-1.371H71.03a1.371,1.371,0,0,0-1.371,1.371V74.585H66.5V61.47A1.371,1.371,0,0,0,65.125,60.1H50.639a1.37,1.37,0,0,0-1.371,1.371V74.585H43.28v-.952a3.7,3.7,0,0,0-3.694-3.693h-.956L35.314,57.408l.137-.357a18.612,18.612,0,0,0,4.127-1.711l2.646,1.175a1.371,1.371,0,0,0,1.525-.284l3.878-3.878a1.371,1.371,0,0,0,.285-1.526l-1.176-2.646a18.583,18.583,0,0,0,1.711-4.126l2.7-1.039a1.373,1.373,0,0,0,.877-1.28V36.252a1.372,1.372,0,0,0-.877-1.279l-2.7-1.039a18.888,18.888,0,0,0-.867-2.428l11.03-9.241,11.18,9.8A5.591,5.591,0,0,0,71.2,35.554,10.789,10.789,0,0,0,70,54.829a1.372,1.372,0,0,0,2.058-1.186v-7.5l3.246-1.874,3.245,1.874v7.605a1.371,1.371,0,0,0,2.029,1.2,10.787,10.787,0,0,0-.978-19.4,5.614,5.614,0,0,0-3.993-9.339L65.418,15.275a6.389,6.389,0,0,0-11.794-3.229l-16.15,9.589a18.448,18.448,0,0,0-2.022-.7l-1.038-2.7a1.372,1.372,0,0,0-1.281-.879H27.65a1.366,1.366,0,0,0-1.278.879l-1.04,2.7a18.669,18.669,0,0,0-4.125,1.711L18.56,21.474a1.374,1.374,0,0,0-1.528.284l-3.878,3.878a1.368,1.368,0,0,0-.283,1.526l1.174,2.645a18.673,18.673,0,0,0-1.711,4.126l-2.7,1.04a1.372,1.372,0,0,0-.879,1.279v5.485a1.372,1.372,0,0,0,.879,1.279l2.7,1.039a18.623,18.623,0,0,0,1.711,4.127l-1.174,2.645a1.368,1.368,0,0,0,.283,1.526l3.878,3.878a1.387,1.387,0,0,0,.489.312l.8,13.4h-.518a3.7,3.7,0,0,0-3.693,3.693v1.6A9.555,9.555,0,0,0,17.555,93.7H83.445a9.556,9.556,0,0,0,2.75-18.707Z" fill="#242222" fill-rule="evenodd"/>
    </g>
  </g>
</svg>
