<svg xmlns="http://www.w3.org/2000/svg" xmlns:xlink="http://www.w3.org/1999/xlink" width="113" height="113" viewBox="0 0 113 113">
  <defs>
    <filter id="Trazado_982547" x="0" y="0" width="113" height="113" filterUnits="userSpaceOnUse">
      <feOffset dy="3" input="SourceAlpha"/>
      <feGaussianBlur stdDeviation="3" result="blur"/>
      <feFlood flood-opacity="0.161"/>
      <feComposite operator="in" in2="blur"/>
      <feComposite in="SourceGraphic"/>
    </filter>
  </defs>
  <g id="Grupo_1217995" data-name="Grupo 1217995" transform="translate(-324 -1062.034)">
    <g id="Grupo_1217131" data-name="Grupo 1217131" transform="translate(-1 -2832.115)">
      <g id="Grupo_1210956" data-name="Grupo 1210956" transform="translate(0 -689.385)">
        <g id="Grupo_1209935" data-name="Grupo 1209935" transform="translate(0 -2945.274)">
          <g id="Grupo_1208705" data-name="Grupo 1208705" transform="translate(-1.454 3213.429)">
            <g id="Grupo_1148633" data-name="Grupo 1148633" transform="translate(71.408 600.047)">
              <g id="Grupo_1148525" data-name="Grupo 1148525" transform="translate(264.046 3721.333)">
                <g transform="matrix(1, 0, 0, 1, -9, -6)" filter="url(#Trazado_982547)">
                  <g id="Trazado_982547-2" data-name="Trazado 982547" transform="translate(9 6)" fill="#ffefc0">
                    <path d="M 47.5 93.5 C 41.28937149047852 93.5 35.26533508300781 92.28397369384766 29.59518623352051 89.88570404052734 C 24.11771965026855 87.56893157958984 19.19813346862793 84.25196075439453 14.97309303283691 80.02691650390625 C 10.74804019927979 75.80186462402344 7.431066513061523 70.88229370117188 5.114293098449707 65.40481567382812 C 2.716026782989502 59.73468017578125 1.5 53.71062850952148 1.5 47.5 C 1.5 41.28937149047852 2.716026782989502 35.26533508300781 5.114293098449707 29.59518623352051 C 7.431066513061523 24.11771965026855 10.74804019927979 19.19813346862793 14.97309303283691 14.97309303283691 C 19.19813346862793 10.74804019927979 24.11771965026855 7.431066513061523 29.59518623352051 5.114293098449707 C 35.26533508300781 2.716026782989502 41.28937149047852 1.5 47.5 1.5 C 53.71062850952148 1.5 59.73468017578125 2.716026782989502 65.40481567382812 5.114293098449707 C 70.88229370117188 7.431066513061523 75.80186462402344 10.74804019927979 80.02691650390625 14.97309303283691 C 84.25196075439453 19.19813346862793 87.56893157958984 24.11771965026855 89.88570404052734 29.59518623352051 C 92.28397369384766 35.26533508300781 93.5 41.28937149047852 93.5 47.5 C 93.5 53.71062850952148 92.28397369384766 59.73468017578125 89.88570404052734 65.40481567382812 C 87.56893157958984 70.88229370117188 84.25196075439453 75.80186462402344 80.02691650390625 80.02691650390625 C 75.80186462402344 84.25196075439453 70.88229370117188 87.56893157958984 65.40481567382812 89.88570404052734 C 59.73468017578125 92.28397369384766 53.71062850952148 93.5 47.5 93.5 Z" stroke="none"/>
                    <path d="M 47.5 3 C 41.49121475219727 3 35.66376876831055 4.176155090332031 30.17950439453125 6.495796203613281 C 24.88084411621094 8.736953735351562 20.12152099609375 11.94598388671875 16.03375244140625 16.03375244140625 C 11.94598388671875 20.12152099609375 8.736953735351562 24.88084411621094 6.495796203613281 30.17950439453125 C 4.176155090332031 35.66376876831055 3 41.49121475219727 3 47.5 C 3 53.50878524780273 4.176155090332031 59.33623123168945 6.495796203613281 64.82049560546875 C 8.736953735351562 70.11915588378906 11.94598388671875 74.87847900390625 16.03375244140625 78.96624755859375 C 20.12152099609375 83.05401611328125 24.88084411621094 86.26304626464844 30.17950439453125 88.50419616699219 C 35.66376876831055 90.82384490966797 41.49121475219727 92 47.5 92 C 53.50878524780273 92 59.33623123168945 90.82384490966797 64.82049560546875 88.50419616699219 C 70.11915588378906 86.26304626464844 74.87847900390625 83.05401611328125 78.96624755859375 78.96624755859375 C 83.05401611328125 74.87847900390625 86.26304626464844 70.11915588378906 88.50419616699219 64.82049560546875 C 90.82384490966797 59.33623123168945 92 53.50878524780273 92 47.5 C 92 41.49121475219727 90.82384490966797 35.66376876831055 88.50419616699219 30.17950439453125 C 86.26304626464844 24.88084411621094 83.05401611328125 20.12152099609375 78.96624755859375 16.03375244140625 C 74.87847900390625 11.94598388671875 70.11915588378906 8.736953735351562 64.82049560546875 6.495796203613281 C 59.33623123168945 4.176155090332031 53.50878524780273 3 47.5 3 M 47.5 0 C 73.7335205078125 0 95 21.2664794921875 95 47.5 C 95 73.7335205078125 73.7335205078125 95 47.5 95 C 21.2664794921875 95 0 73.7335205078125 0 47.5 C 0 21.2664794921875 21.2664794921875 0 47.5 0 Z" stroke="none" fill="#fc3"/>
                  </g>
                </g>
              </g>
            </g>
          </g>
        </g>
      </g>
    </g>
    <g id="proceso-de-fabricacion_1_" data-name="proceso-de-fabricacion (1)" transform="translate(326 1061.035)">
      <g id="Grupo_1217994" data-name="Grupo 1217994" transform="translate(8.532 15.895)">
        <g id="Grupo_1217986" data-name="Grupo 1217986" transform="translate(0 65.681)">
          <path id="Trazado_1085780" data-name="Trazado 1085780" d="M24.445,396.371a9.445,9.445,0,0,0,0,18.891H97.49a9.445,9.445,0,0,0,0-18.891Z" transform="translate(-15 -396.371)" fill="#685e68" fill-rule="evenodd"/>
          <path id="Trazado_1085781" data-name="Trazado 1085781" d="M24.8,419.395a9.445,9.445,0,0,0,5.652,1.878H103.5a9.445,9.445,0,0,0,7.567-15.1,9.445,9.445,0,0,1-5.652,17.013H32.371a9.447,9.447,0,0,1-7.567-3.793Z" transform="translate(-22.926 -404.297)" fill="#544854" fill-rule="evenodd"/>
          <path id="Trazado_1085782" data-name="Trazado 1085782" d="M144.941,421.1a4.709,4.709,0,1,1-4.709,4.709A4.711,4.711,0,0,1,144.941,421.1Zm-18.665,0a4.709,4.709,0,1,1-4.709,4.709,4.711,4.711,0,0,1,4.709-4.709Zm-18.665,0a4.709,4.709,0,1,1-4.709,4.709A4.711,4.711,0,0,1,107.61,421.1Zm-18.665,0a4.709,4.709,0,1,1-4.709,4.709A4.711,4.711,0,0,1,88.945,421.1Z" transform="translate(-70.975 -416.364)" fill="#eceff1" fill-rule="evenodd"/>
          <path id="Trazado_1085783" data-name="Trazado 1085783" d="M145.9,430.421a4.709,4.709,0,1,1,0-9.222,4.71,4.71,0,0,0,0,9.222Zm-18.665,0a4.709,4.709,0,1,1,0-9.222,4.71,4.71,0,0,0,0,9.222Zm-18.665,0a4.709,4.709,0,1,1,0-9.222,4.71,4.71,0,0,0,0,9.222Zm-18.665,0a4.709,4.709,0,1,1,0-9.222,4.71,4.71,0,0,0,0,9.222Z" transform="translate(-70.975 -416.365)" fill="#d1d1d6" fill-rule="evenodd"/>
        </g>
        <g id="Grupo_1217988" data-name="Grupo 1217988" transform="translate(11.855 41.129)">
          <path id="Trazado_1085784" data-name="Trazado 1085784" d="M76.9,269.8a1.615,1.615,0,0,1,1.615-1.615H94.876a1.615,1.615,0,0,1,1.615,1.615v16.586a1.306,1.306,0,0,1-1.306,1.3H78.2a1.305,1.305,0,0,1-1.306-1.3Z" transform="translate(-76.898 -268.183)" fill="#ecba78" fill-rule="evenodd"/>
          <g id="Grupo_1217987" data-name="Grupo 1217987" transform="translate(5.73 0)">
            <path id="Trazado_1085785" data-name="Trazado 1085785" d="M163.753,268.183H165.1a1.615,1.615,0,0,1,1.615,1.615v16.586a1.306,1.306,0,0,1-1.306,1.3h-1.343a1.306,1.306,0,0,0,1.306-1.3V269.8A1.615,1.615,0,0,0,163.753,268.183Z" transform="translate(-152.848 -268.183)" fill="#e3a76f" fill-rule="evenodd"/>
            <path id="Trazado_1085786" data-name="Trazado 1085786" d="M106.816,268.183h8.133v6.738a.672.672,0,0,1-1.03.568l-3.036-1.92-3.036,1.919a.672.672,0,0,1-1.03-.568Z" transform="translate(-106.816 -268.183)" fill="#e3a76f" fill-rule="evenodd"/>
          </g>
        </g>
        <g id="Grupo_1217990" data-name="Grupo 1217990" transform="translate(60.486 41.129)">
          <path id="Trazado_1085787" data-name="Trazado 1085787" d="M330.8,269.8a1.615,1.615,0,0,1,1.615-1.615h16.363A1.615,1.615,0,0,1,350.4,269.8v16.586a1.306,1.306,0,0,1-1.306,1.3H332.108a1.306,1.306,0,0,1-1.306-1.3Z" transform="translate(-330.802 -268.183)" fill="#ecba78" fill-rule="evenodd"/>
          <g id="Grupo_1217989" data-name="Grupo 1217989" transform="translate(5.73 0)">
            <path id="Trazado_1085788" data-name="Trazado 1085788" d="M417.657,268.183H419a1.615,1.615,0,0,1,1.615,1.615v16.586a1.306,1.306,0,0,1-1.306,1.3h-1.343a1.306,1.306,0,0,0,1.306-1.3V269.8A1.615,1.615,0,0,0,417.657,268.183Z" transform="translate(-406.752 -268.183)" fill="#e3a76f" fill-rule="evenodd"/>
            <path id="Trazado_1085789" data-name="Trazado 1085789" d="M360.721,268.183h8.133v6.738a.672.672,0,0,1-1.03.568l-3.036-1.92-3.036,1.919a.671.671,0,0,1-1.03-.568Z" transform="translate(-360.721 -268.183)" fill="#e3a76f" fill-rule="evenodd"/>
          </g>
        </g>
        <g id="Grupo_1217992" data-name="Grupo 1217992" transform="translate(36.171 41.129)">
          <path id="Trazado_1085790" data-name="Trazado 1085790" d="M203.85,269.8a1.615,1.615,0,0,1,1.615-1.615h16.364a1.615,1.615,0,0,1,1.615,1.615v16.586a1.306,1.306,0,0,1-1.306,1.3H205.156a1.305,1.305,0,0,1-1.306-1.3Z" transform="translate(-203.85 -268.183)" fill="#ecba78" fill-rule="evenodd"/>
          <g id="Grupo_1217991" data-name="Grupo 1217991" transform="translate(5.73 0)">
            <path id="Trazado_1085791" data-name="Trazado 1085791" d="M290.7,268.183h1.343a1.615,1.615,0,0,1,1.615,1.615v16.586a1.306,1.306,0,0,1-1.306,1.3h-1.343a1.306,1.306,0,0,0,1.306-1.3V269.8A1.615,1.615,0,0,0,290.7,268.183Z" transform="translate(-279.8 -268.183)" fill="#e3a76f" fill-rule="evenodd"/>
            <path id="Trazado_1085792" data-name="Trazado 1085792" d="M233.768,268.183H241.9v6.738a.672.672,0,0,1-1.03.568l-3.036-1.92-3.036,1.919a.672.672,0,0,1-1.03-.568Z" transform="translate(-233.768 -268.183)" fill="#e3a76f" fill-rule="evenodd"/>
          </g>
        </g>
        <g id="Grupo_1217993" data-name="Grupo 1217993" transform="translate(29.906 0)">
          <path id="Trazado_1085793" data-name="Trazado 1085793" d="M188.593,55.858a12.409,12.409,0,0,1,3.638,1.508l2.364-1.049,2.785,2.785-1.049,2.364A12.412,12.412,0,0,1,197.84,65.1l2.412.929v3.941l-2.412.928a12.423,12.423,0,0,1-1.508,3.636l1.049,2.364L194.6,79.689l-2.364-1.05a12.417,12.417,0,0,1-3.638,1.509l-.928,2.41h-3.941l-.929-2.412a12.424,12.424,0,0,1-3.636-1.508l-2.364,1.05L174.008,76.9l1.051-2.362a12.451,12.451,0,0,1-1.51-3.638l-2.41-.928V66.033l2.41-.929a12.411,12.411,0,0,1,1.51-3.638L174.008,59.1l2.787-2.785,2.362,1.049a12.448,12.448,0,0,1,3.638-1.508l.929-2.412h3.941Z" transform="translate(-171.139 -53.446)" fill="#ffe177" fill-rule="evenodd"/>
          <path id="Trazado_1085794" data-name="Trazado 1085794" d="M216.19,56.67l.794-.352,2.785,2.785-1.049,2.364a12.412,12.412,0,0,1,1.508,3.638l2.412.929v3.941l-2.412.928a12.422,12.422,0,0,1-1.508,3.636l1.049,2.364-2.785,2.787-.794-.352,2.435-2.435-1.051-2.364a12.417,12.417,0,0,0,1.508-3.636l2.412-.928V66.033l-2.412-.929a12.407,12.407,0,0,0-1.508-3.638l1.051-2.364Zm-17.358,0,.352-.352,2.362,1.049c-.167.093-.332.189-.493.291Zm12.15-.812a12.408,12.408,0,0,1,3.638,1.508l-.652.291a16.236,16.236,0,0,0-4.133-1.8l-.928-2.412h1.147Zm-9.434,22.781-2.364,1.05-.352-.352,2.221-.987Q201.3,78.5,201.549,78.639Zm13.072,0a12.417,12.417,0,0,1-3.638,1.509l-.928,2.41h-1.147l.928-2.41a16.28,16.28,0,0,0,4.135-1.8Z" transform="translate(-193.528 -53.446)" fill="#ffd064" fill-rule="evenodd"/>
          <path id="Trazado_1085795" data-name="Trazado 1085795" d="M218.143,93.581a6.869,6.869,0,1,1-6.869,6.87A6.87,6.87,0,0,1,218.143,93.581Z" transform="translate(-203.587 -85.894)" fill="#eceff1" fill-rule="evenodd"/>
          <path id="Trazado_1085796" data-name="Trazado 1085796" d="M218.143,93.581c.156,0,.311.006.466.017a6.869,6.869,0,0,0,0,13.707c-.155.01-.31.015-.466.015a6.869,6.869,0,0,1,0-13.739Z" transform="translate(-203.587 -85.894)" fill="#d1d1d6" fill-rule="evenodd"/>
        </g>
      </g>
      <path id="Trazado_1085797" data-name="Trazado 1085797" d="M22,55.492H38.367a3.147,3.147,0,0,1,3.147,3.147V75.226a2.841,2.841,0,0,1-2.838,2.832H21.693a2.841,2.841,0,0,1-2.838-2.832V58.639A3.147,3.147,0,0,1,22,55.492Zm2.583,3.064H22a.083.083,0,0,0-.083.083V74.994h16.53V58.639a.083.083,0,0,0-.083-.083H35.784v6.425a1.532,1.532,0,0,1-2.351,1.3l-3.248-2.053-3.248,2.053a1.532,1.532,0,0,1-2.351-1.3Zm8.134,0H27.65V62.2l1.716-1.085a1.532,1.532,0,0,1,1.637,0L32.719,62.2Zm13.6-3.064H62.682a3.147,3.147,0,0,1,3.147,3.147V75.226a2.841,2.841,0,0,1-2.838,2.832H46.009a2.84,2.84,0,0,1-2.838-2.832V58.639A3.147,3.147,0,0,1,46.318,55.492ZM48.9,58.556H46.318a.083.083,0,0,0-.083.083V74.994h16.53V58.639a.083.083,0,0,0-.083-.083H60.1v6.425a1.532,1.532,0,0,1-2.351,1.3L54.5,64.222l-3.248,2.053a1.532,1.532,0,0,1-2.351-1.3Zm8.134,0H51.965V62.2l1.716-1.085a1.532,1.532,0,0,1,1.638,0L57.034,62.2Zm13.6-3.064H87a3.147,3.147,0,0,1,3.147,3.147V75.226a2.841,2.841,0,0,1-2.839,2.832H70.324a2.84,2.84,0,0,1-2.838-2.832V58.639a3.147,3.147,0,0,1,3.147-3.147Zm2.583,3.064H70.633a.083.083,0,0,0-.083.083V74.994H87.08V58.639A.083.083,0,0,0,87,58.556H84.414v6.425a1.532,1.532,0,0,1-2.351,1.3l-3.248-2.053-3.248,2.053a1.532,1.532,0,0,1-2.351-1.3Zm8.134,0H76.281V62.2L78,61.115a1.532,1.532,0,0,1,1.638,0L81.35,62.2Zm9.672,21.488a10.978,10.978,0,0,1,0,21.955H17.977a10.978,10.978,0,0,1,0-21.955Zm0,3.064H17.977a7.913,7.913,0,0,0,0,15.826H91.022a7.913,7.913,0,0,0,0-15.826ZM26.5,97.263a6.241,6.241,0,1,1,0-12.482h56a6.241,6.241,0,1,1,0,12.482Zm0-9.418a3.177,3.177,0,1,0,3.177,3.177A3.178,3.178,0,0,0,26.5,87.845Zm13.293,0H31.874a6.24,6.24,0,0,1,0,6.353h7.921a6.242,6.242,0,0,1,0-6.353Zm18.665,0H50.539a6.242,6.242,0,0,1,0,6.353H58.46a6.242,6.242,0,0,1,0-6.353Zm18.665,0H69.2a6.242,6.242,0,0,1,0,6.353h7.921a6.24,6.24,0,0,1,0-6.353ZM82.5,94.2a3.177,3.177,0,1,0-3.177-3.177A3.178,3.178,0,0,0,82.5,94.2Zm-37.33,0a3.177,3.177,0,1,0-3.177-3.177A3.178,3.178,0,0,0,45.167,94.2Zm18.665,0a3.177,3.177,0,1,0-3.176-3.177A3.178,3.178,0,0,0,63.832,94.2ZM44.081,9.469a1.532,1.532,0,0,1,1.725-2.381l3.51,1.246a1.532,1.532,0,0,1,.716,2.361l-2.265,3.034a1.532,1.532,0,0,1-2.7-1.356,19.931,19.931,0,0,0-11.426,25.6,1.532,1.532,0,1,1-2.866,1.084,23,23,0,0,1,13.3-29.588ZM39.967,46.588a19.93,19.93,0,0,0,27.708-3.045,1.532,1.532,0,1,1,2.369,1.943,22.994,22.994,0,0,1-32.429,3.141,1.532,1.532,0,0,1-3.012-.175l-.445-3.76a1.532,1.532,0,0,1,1.8-1.687l3.663.676a1.532,1.532,0,0,1,.346,2.906ZM74.945,34.579a1.532,1.532,0,0,1,1.206,2.683l-2.834,2.417a1.532,1.532,0,0,1-2.4-.561l-1.5-3.479a1.532,1.532,0,0,1,2.517-1.662A19.9,19.9,0,0,0,55.485,11.294a1.532,1.532,0,0,1,.494-3.024A22.964,22.964,0,0,1,74.945,34.579Zm-17.9-17.542A13.9,13.9,0,0,1,59.618,18.1l1.652-.735a1.532,1.532,0,0,1,1.706.317L65.76,20.47a1.532,1.532,0,0,1,.317,1.7l-.732,1.653a13.887,13.887,0,0,1,1.068,2.58l1.684.648a1.532,1.532,0,0,1,.982,1.43v3.938a1.532,1.532,0,0,1-.982,1.43l-1.685.649a14.025,14.025,0,0,1-1.068,2.574l.733,1.654a1.532,1.532,0,0,1-.317,1.7l-2.784,2.784a1.532,1.532,0,0,1-1.7.318L59.62,42.8a13.871,13.871,0,0,1-2.577,1.067L56.4,45.556a1.532,1.532,0,0,1-1.43.982H51.027a1.532,1.532,0,0,1-1.43-.982l-.648-1.685A14,14,0,0,1,46.37,42.8l-1.654.733a1.532,1.532,0,0,1-1.7-.318l-2.784-2.784a1.532,1.532,0,0,1-.317-1.706l.734-1.651A13.993,13.993,0,0,1,39.577,34.5l-1.687-.649a1.532,1.532,0,0,1-.982-1.43V28.485a1.532,1.532,0,0,1,.982-1.43l1.686-.649a13.991,13.991,0,0,1,1.07-2.578l-.735-1.652a1.532,1.532,0,0,1,.317-1.706l2.784-2.784a1.532,1.532,0,0,1,1.706-.317l1.652.735a13.9,13.9,0,0,1,2.576-1.067l.652-1.69a1.533,1.533,0,0,1,1.43-.981h3.938a1.532,1.532,0,0,1,1.43.983Zm-2.581,1.826-.55-1.432H52.078l-.554,1.434a1.532,1.532,0,0,1-1.075.939,10.853,10.853,0,0,0-3.187,1.321,1.533,1.533,0,0,1-1.427.1l-1.4-.623-1.3,1.3.623,1.4a1.532,1.532,0,0,1-.1,1.426,10.949,10.949,0,0,0-1.325,3.194,1.533,1.533,0,0,1-.94,1.072l-1.429.55v1.834l1.429.55a1.533,1.533,0,0,1,.939,1.071,10.925,10.925,0,0,0,1.324,3.189,1.532,1.532,0,0,1,.1,1.428l-.623,1.4,1.3,1.3,1.4-.621a1.532,1.532,0,0,1,1.421.094A10.942,10.942,0,0,0,50.453,41.1a1.532,1.532,0,0,1,1.077.941l.55,1.429h1.834l.55-1.429a1.532,1.532,0,0,1,1.076-.94,10.805,10.805,0,0,0,3.185-1.319,1.532,1.532,0,0,1,1.427-.1l1.4.621,1.3-1.3-.621-1.4a1.533,1.533,0,0,1,.094-1.421A10.955,10.955,0,0,0,63.646,33a1.532,1.532,0,0,1,.94-1.076l1.429-.55V29.537l-1.429-.55a1.533,1.533,0,0,1-.941-1.077,10.831,10.831,0,0,0-1.32-3.19,1.533,1.533,0,0,1-.1-1.424l.621-1.4-1.3-1.3-1.4.623a1.533,1.533,0,0,1-1.426-.1A10.854,10.854,0,0,0,55.539,19.8a1.532,1.532,0,0,1-1.076-.941Zm-1.468,3.188a8.4,8.4,0,1,1-8.4,8.4,8.4,8.4,0,0,1,8.4-8.4Zm0,3.065a5.338,5.338,0,1,0,5.34,5.336,5.334,5.334,0,0,0-5.34-5.336Z" fill-rule="evenodd"/>
    </g>
  </g>
</svg>
