<svg xmlns="http://www.w3.org/2000/svg" xmlns:xlink="http://www.w3.org/1999/xlink" width="113" height="113" viewBox="0 0 113 113">
  <defs>
    <filter id="Trazado_982547" x="0" y="0" width="113" height="113" filterUnits="userSpaceOnUse">
      <feOffset dy="3" input="SourceAlpha"/>
      <feGaussianBlur stdDeviation="3" result="blur"/>
      <feFlood flood-opacity="0.161"/>
      <feComposite operator="in" in2="blur"/>
      <feComposite in="SourceGraphic"/>
    </filter>
  </defs>
  <g id="Grupo_1218001" data-name="Grupo 1218001" transform="translate(-743 -1062.034)">
    <g id="Grupo_1217132" data-name="Grupo 1217132" transform="translate(0.955 -2832.115)">
      <g id="Grupo_1210959" data-name="Grupo 1210959" transform="translate(0 -689.385)">
        <g id="Grupo_1209936" data-name="Grupo 1209936" transform="translate(0 -2945.274)">
          <g id="Grupo_1208706" data-name="Grupo 1208706" transform="translate(-1.454 3213.429)">
            <g id="Grupo_1148634" data-name="Grupo 1148634" transform="translate(488.454 600.047)">
              <g id="Grupo_1148525" data-name="Grupo 1148525" transform="translate(264.046 3721.333)">
                <g transform="matrix(1, 0, 0, 1, -9, -6)" filter="url(#Trazado_982547)">
                  <g id="Trazado_982547-2" data-name="Trazado 982547" transform="translate(9 6)" fill="#ffefc0">
                    <path d="M 47.5 93.5 C 41.28937149047852 93.5 35.26533508300781 92.28397369384766 29.59518623352051 89.88570404052734 C 24.11771965026855 87.56893157958984 19.19813346862793 84.25196075439453 14.97309303283691 80.02691650390625 C 10.74804019927979 75.80186462402344 7.431066513061523 70.88229370117188 5.114293098449707 65.40481567382812 C 2.716026782989502 59.73468017578125 1.5 53.71062850952148 1.5 47.5 C 1.5 41.28937149047852 2.716026782989502 35.26533508300781 5.114293098449707 29.59518623352051 C 7.431066513061523 24.11771965026855 10.74804019927979 19.19813346862793 14.97309303283691 14.97309303283691 C 19.19813346862793 10.74804019927979 24.11771965026855 7.431066513061523 29.59518623352051 5.114293098449707 C 35.26533508300781 2.716026782989502 41.28937149047852 1.5 47.5 1.5 C 53.71062850952148 1.5 59.73468017578125 2.716026782989502 65.40481567382812 5.114293098449707 C 70.88229370117188 7.431066513061523 75.80186462402344 10.74804019927979 80.02691650390625 14.97309303283691 C 84.25196075439453 19.19813346862793 87.56893157958984 24.11771965026855 89.88570404052734 29.59518623352051 C 92.28397369384766 35.26533508300781 93.5 41.28937149047852 93.5 47.5 C 93.5 53.71062850952148 92.28397369384766 59.73468017578125 89.88570404052734 65.40481567382812 C 87.56893157958984 70.88229370117188 84.25196075439453 75.80186462402344 80.02691650390625 80.02691650390625 C 75.80186462402344 84.25196075439453 70.88229370117188 87.56893157958984 65.40481567382812 89.88570404052734 C 59.73468017578125 92.28397369384766 53.71062850952148 93.5 47.5 93.5 Z" stroke="none"/>
                    <path d="M 47.5 3 C 41.49121475219727 3 35.66376876831055 4.176155090332031 30.17950439453125 6.495796203613281 C 24.88084411621094 8.736953735351562 20.12152099609375 11.94598388671875 16.03375244140625 16.03375244140625 C 11.94598388671875 20.12152099609375 8.736953735351562 24.88084411621094 6.495796203613281 30.17950439453125 C 4.176155090332031 35.66376876831055 3 41.49121475219727 3 47.5 C 3 53.50878524780273 4.176155090332031 59.33623123168945 6.495796203613281 64.82049560546875 C 8.736953735351562 70.11915588378906 11.94598388671875 74.87847900390625 16.03375244140625 78.96624755859375 C 20.12152099609375 83.05401611328125 24.88084411621094 86.26304626464844 30.17950439453125 88.50419616699219 C 35.66376876831055 90.82384490966797 41.49121475219727 92 47.5 92 C 53.50878524780273 92 59.33623123168945 90.82384490966797 64.82049560546875 88.50419616699219 C 70.11915588378906 86.26304626464844 74.87847900390625 83.05401611328125 78.96624755859375 78.96624755859375 C 83.05401611328125 74.87847900390625 86.26304626464844 70.11915588378906 88.50419616699219 64.82049560546875 C 90.82384490966797 59.33623123168945 92 53.50878524780273 92 47.5 C 92 41.49121475219727 90.82384490966797 35.66376876831055 88.50419616699219 30.17950439453125 C 86.26304626464844 24.88084411621094 83.05401611328125 20.12152099609375 78.96624755859375 16.03375244140625 C 74.87847900390625 11.94598388671875 70.11915588378906 8.736953735351562 64.82049560546875 6.495796203613281 C 59.33623123168945 4.176155090332031 53.50878524780273 3 47.5 3 M 47.5 0 C 73.7335205078125 0 95 21.2664794921875 95 47.5 C 95 73.7335205078125 73.7335205078125 95 47.5 95 C 21.2664794921875 95 0 73.7335205078125 0 47.5 C 0 21.2664794921875 21.2664794921875 0 47.5 0 Z" stroke="none" fill="#fc3"/>
                  </g>
                </g>
              </g>
            </g>
          </g>
        </g>
      </g>
    </g>
    <g id="transportador" transform="translate(759.822 1088.822)">
      <g id="Grupo_1217999" data-name="Grupo 1217999" transform="translate(1.087 1.087)">
        <g id="Grupo_1217997" data-name="Grupo 1217997" transform="translate(33.77 6.546)">
          <path id="Trazado_1085798" data-name="Trazado 1085798" d="M284.869,110.822a2.182,2.182,0,0,1-.42-.041l-14.611-2.864-14.611,2.864a2.173,2.173,0,1,1-.836-4.265l15.029-2.945a2.175,2.175,0,0,1,.836,0l15.029,2.945a2.173,2.173,0,0,1-.416,4.306Z" transform="translate(-250.889 -96.163)" fill="#685e68"/>
          <path id="Trazado_1085799" data-name="Trazado 1085799" d="M337.22,62.835h-4.909l-3.748-10.153h12.4Z" transform="translate(-315.818 -52.682)" fill="#685e68"/>
          <g id="Grupo_1217996" data-name="Grupo 1217996" transform="translate(0 5.543)">
            <circle id="Elipse_14448" data-name="Elipse 14448" cx="4.61" cy="4.61" r="4.61" transform="translate(14.338)" fill="#918291"/>
            <path id="Trazado_1085800" data-name="Trazado 1085800" d="M246.443,140.1a2.161,2.161,0,0,1-1.13-.318l-3.681-2.246a2.173,2.173,0,0,1-1.007-2.242l1.745-9.654a2.173,2.173,0,1,1,4.277.773l-1.48,8.188,2.41,1.47a2.173,2.173,0,0,1-1.134,4.029Z" transform="translate(-240.591 -119.088)" fill="#918291"/>
            <path id="Trazado_1085801" data-name="Trazado 1085801" d="M448.919,140.1a2.161,2.161,0,0,0,1.13-.318l3.681-2.246a2.173,2.173,0,0,0,1.006-2.242l-1.745-9.654a2.173,2.173,0,1,0-4.277.773l1.48,8.188-2.41,1.47a2.173,2.173,0,0,0,1.134,4.029Z" transform="translate(-416.876 -119.088)" fill="#918291"/>
          </g>
        </g>
        <path id="Trazado_1085802" data-name="Trazado 1085802" d="M72.2,403.7H14.8a7.3,7.3,0,0,0,0,14.6H72.2a7.3,7.3,0,0,0,0-14.6Z" transform="translate(-7.5 -346.295)" fill="#918291"/>
        <path id="Trazado_1085803" data-name="Trazado 1085803" d="M17.021,416.155a7.285,7.285,0,0,0,5.165,2.138H14.8a7.3,7.3,0,0,1,0-14.605h7.385a7.3,7.3,0,0,0-5.165,12.467Z" transform="translate(-7.5 -346.289)" fill="#685e68"/>
        <path id="Trazado_1085804" data-name="Trazado 1085804" d="M40.456,439.607a2.956,2.956,0,0,1,0-5.912h57.4a2.956,2.956,0,0,1,0,5.912Z" transform="translate(-33.154 -371.948)" fill="#cb97e7"/>
        <path id="Trazado_1085805" data-name="Trazado 1085805" d="M303.628,239.235l-3.372-.539a9.694,9.694,0,0,0-1.872-3.238l1.22-3.193a1.241,1.241,0,0,0-.539-1.518l-2.39-1.381a1.243,1.243,0,0,0-1.585.293l-2.153,2.651a9.774,9.774,0,0,0-3.74,0l-2.155-2.651a1.242,1.242,0,0,0-1.585-.293l-2.39,1.381a1.241,1.241,0,0,0-.539,1.518l1.22,3.193a9.7,9.7,0,0,0-1.872,3.238l-3.372.539a1.243,1.243,0,0,0-1.045,1.227v2.759a1.24,1.24,0,0,0,1.045,1.226l3.372.54a9.7,9.7,0,0,0,1.872,3.238l-1.22,3.193a1.242,1.242,0,0,0,.539,1.518l2.39,1.38a1.241,1.241,0,0,0,1.585-.293l2.155-2.651a9.774,9.774,0,0,0,3.74,0l2.153,2.651a1.241,1.241,0,0,0,1.585.293l2.39-1.38a1.242,1.242,0,0,0,.539-1.518l-1.22-3.193a9.694,9.694,0,0,0,1.872-3.238l3.372-.54a1.241,1.241,0,0,0,1.046-1.226v-2.759A1.243,1.243,0,0,0,303.628,239.235Zm-12.561,7.147a4.541,4.541,0,1,1,4.541-4.541A4.541,4.541,0,0,1,291.066,246.382Z" transform="translate(-238.348 -197.081)" fill="#fe646f"/>
        <path id="Trazado_1085806" data-name="Trazado 1085806" d="M289.045,232.123l-2-2.464a1.241,1.241,0,0,0-1.585-.293l-2.391,1.381a1.24,1.24,0,0,0-.537,1.518l1.218,3.192a9.716,9.716,0,0,0-1.872,3.238l-3.371.539a1.243,1.243,0,0,0-1.045,1.226v2.76a1.24,1.24,0,0,0,1.045,1.226l3.371.54a9.688,9.688,0,0,0,1.872,3.238l-1.218,3.193a1.239,1.239,0,0,0,.537,1.517l2.391,1.381a1.243,1.243,0,0,0,1.585-.293l2-2.464a13.6,13.6,0,0,1,0-19.434Z" transform="translate(-238.348 -197.08)" fill="#fd4755"/>
        <path id="Trazado_1085807" data-name="Trazado 1085807" d="M69.555,239.235l-3.372-.539a9.694,9.694,0,0,0-1.872-3.238l1.22-3.193a1.241,1.241,0,0,0-.539-1.518l-2.39-1.381a1.243,1.243,0,0,0-1.585.293l-2.153,2.651a9.774,9.774,0,0,0-3.74,0l-2.155-2.651a1.242,1.242,0,0,0-1.585-.293l-2.39,1.381a1.241,1.241,0,0,0-.539,1.518l1.22,3.193A9.7,9.7,0,0,0,47.8,238.7l-3.372.539a1.243,1.243,0,0,0-1.045,1.227v2.759a1.24,1.24,0,0,0,1.045,1.226l3.372.54a9.7,9.7,0,0,0,1.872,3.238l-1.22,3.193a1.242,1.242,0,0,0,.539,1.518l2.39,1.38a1.241,1.241,0,0,0,1.585-.293l2.155-2.651a9.774,9.774,0,0,0,3.74,0l2.153,2.651a1.241,1.241,0,0,0,1.585.293l2.39-1.38a1.242,1.242,0,0,0,.539-1.518l-1.22-3.193a9.694,9.694,0,0,0,1.872-3.238l3.372-.54A1.241,1.241,0,0,0,70.6,243.22v-2.759A1.243,1.243,0,0,0,69.555,239.235Zm-12.561,7.147a4.541,4.541,0,1,1,4.541-4.541A4.541,4.541,0,0,1,56.993,246.382Z" transform="translate(-38.188 -197.081)" fill="#fe646f"/>
        <path id="Trazado_1085808" data-name="Trazado 1085808" d="M54.973,232.128l-2-2.464a1.241,1.241,0,0,0-1.585-.293l-2.391,1.381a1.24,1.24,0,0,0-.537,1.518l1.218,3.192A9.716,9.716,0,0,0,47.8,238.7l-3.371.539a1.243,1.243,0,0,0-1.045,1.226v2.76a1.24,1.24,0,0,0,1.045,1.226l3.371.54a9.688,9.688,0,0,0,1.872,3.238l-1.218,3.193a1.239,1.239,0,0,0,.538,1.517l2.391,1.381a1.243,1.243,0,0,0,1.585-.293l2-2.464a13.6,13.6,0,0,1,0-19.434Z" transform="translate(-38.189 -197.084)" fill="#fd4755"/>
        <path id="Trazado_1085809" data-name="Trazado 1085809" d="M7.5,26.059H79.505v3.857H7.5Z" transform="translate(-7.5 -23.37)" fill="#cb97e7"/>
        <g id="Grupo_1217998" data-name="Grupo 1217998" transform="translate(42.851)">
          <circle id="Elipse_14449" data-name="Elipse 14449" cx="4.933" cy="4.933" r="4.933" fill="#918291"/>
          <circle id="Elipse_14450" data-name="Elipse 14450" cx="4.933" cy="4.933" r="4.933" transform="translate(9.867)" fill="#918291"/>
        </g>
      </g>
      <g id="Grupo_1218000" data-name="Grupo 1218000" transform="translate(0)">
        <path id="Trazado_1085810" data-name="Trazado 1085810" d="M364.96,114.762a1.087,1.087,0,0,0-1.087,1.087v.072a1.087,1.087,0,1,0,2.173,0v-.072A1.087,1.087,0,0,0,364.96,114.762Z" transform="translate(-311.155 -98.135)"/>
        <path id="Trazado_1085811" data-name="Trazado 1085811" d="M65.789,246.537H62.867a2.316,2.316,0,0,0,.49-2.437l-.995-2.6a10.7,10.7,0,0,0,1.426-2.466l2.748-.44a2.317,2.317,0,0,0,1.962-2.3v-2.759a2.32,2.32,0,0,0-1.96-2.3h0l-2.749-.439a10.708,10.708,0,0,0-1.426-2.466l.995-2.6a2.319,2.319,0,0,0-1.01-2.846l-2.39-1.381a2.32,2.32,0,0,0-2.972.548l-1.757,2.163a10.876,10.876,0,0,0-2.846,0l-1.758-2.163a2.319,2.319,0,0,0-2.972-.548l-2.39,1.381a2.319,2.319,0,0,0-1.01,2.846l.995,2.6a10.7,10.7,0,0,0-1.426,2.466l-2.751.44a2.32,2.32,0,0,0-1.958,2.3v2.759a2.317,2.317,0,0,0,1.959,2.3l2.75.44a10.7,10.7,0,0,0,1.426,2.466l-.994,2.6a2.316,2.316,0,0,0,.49,2.438H28.955a2.315,2.315,0,0,0,.49-2.437l-.995-2.6a10.7,10.7,0,0,0,1.426-2.466l2.748-.44a2.317,2.317,0,0,0,1.962-2.3v-2.759a2.32,2.32,0,0,0-1.96-2.3h0l-2.749-.439a10.708,10.708,0,0,0-1.426-2.466l.995-2.6a2.319,2.319,0,0,0-1.01-2.846l-2.39-1.381a2.32,2.32,0,0,0-2.972.548l-1.757,2.163a10.869,10.869,0,0,0-2.846,0l-1.758-2.163a2.319,2.319,0,0,0-2.972-.548l-2.39,1.381a2.319,2.319,0,0,0-1.01,2.846l.995,2.6a10.7,10.7,0,0,0-1.426,2.466l-2.751.44a2.32,2.32,0,0,0-1.958,2.3v2.759a2.317,2.317,0,0,0,1.959,2.3l2.75.44a10.7,10.7,0,0,0,1.426,2.466l-.994,2.6a2.316,2.316,0,0,0,.49,2.438H8.389a8.389,8.389,0,0,0,0,16.778h57.4a8.389,8.389,0,0,0,0-16.778Zm-21-9.553-3.373-.54a.153.153,0,0,1-.129-.153v-2.759a.155.155,0,0,1,.129-.153l3.372-.539a1.087,1.087,0,0,0,.857-.721,8.568,8.568,0,0,1,1.662-2.875,1.087,1.087,0,0,0,.2-1.1l-1.219-3.192a.155.155,0,0,1,.067-.19l2.389-1.38a.155.155,0,0,1,.2.037l2.155,2.651a1.087,1.087,0,0,0,1.051.381,8.728,8.728,0,0,1,3.325,0,1.085,1.085,0,0,0,1.051-.382l2.152-2.65a.156.156,0,0,1,.2-.038l2.39,1.381a.154.154,0,0,1,.067.189l-1.22,3.193a1.087,1.087,0,0,0,.2,1.1,8.568,8.568,0,0,1,1.662,2.875,1.086,1.086,0,0,0,.857.721l3.371.539a.155.155,0,0,1,.131.154v2.759a.154.154,0,0,1-.131.154l-3.372.54a1.087,1.087,0,0,0-.856.721A8.568,8.568,0,0,1,60.3,240.58a1.087,1.087,0,0,0-.2,1.1l1.22,3.193a.156.156,0,0,1-.067.189l-2.39,1.38a.154.154,0,0,1-.2-.037l-2.153-2.651a1.087,1.087,0,0,0-1.053-.381,8.731,8.731,0,0,1-3.32,0,1.086,1.086,0,0,0-1.053.381l-2.156,2.653a.154.154,0,0,1-.2.035l-2.39-1.379a.156.156,0,0,1-.067-.189l1.22-3.193a1.087,1.087,0,0,0-.2-1.1,8.568,8.568,0,0,1-1.662-2.875A1.087,1.087,0,0,0,44.786,236.984Zm7.6,8.631a10.951,10.951,0,0,0,2.847,0l.749.922H51.632Zm-41.507-8.631-3.373-.54a.153.153,0,0,1-.129-.153v-2.759a.155.155,0,0,1,.129-.153l3.372-.539a1.087,1.087,0,0,0,.857-.721,8.568,8.568,0,0,1,1.662-2.875,1.087,1.087,0,0,0,.2-1.1l-1.219-3.192a.155.155,0,0,1,.067-.19l2.389-1.38a.155.155,0,0,1,.2.037l2.155,2.651a1.087,1.087,0,0,0,1.051.381,8.731,8.731,0,0,1,3.325,0,1.086,1.086,0,0,0,1.051-.382l2.152-2.65a.155.155,0,0,1,.2-.038l2.39,1.381a.154.154,0,0,1,.067.189l-1.22,3.193a1.087,1.087,0,0,0,.2,1.1,8.568,8.568,0,0,1,1.662,2.875,1.086,1.086,0,0,0,.857.721l3.371.539a.155.155,0,0,1,.131.154v2.759a.154.154,0,0,1-.131.154l-3.372.54a1.087,1.087,0,0,0-.856.721,8.568,8.568,0,0,1-1.662,2.875,1.087,1.087,0,0,0-.2,1.1l1.22,3.193a.156.156,0,0,1-.067.189l-2.39,1.38a.154.154,0,0,1-.2-.037l-2.153-2.651a1.087,1.087,0,0,0-1.053-.381,8.728,8.728,0,0,1-3.32,0,1.086,1.086,0,0,0-1.053.381l-2.156,2.653a.154.154,0,0,1-.2.035l-2.39-1.379a.156.156,0,0,1-.067-.189l1.22-3.193a1.087,1.087,0,0,0-.2-1.1,8.568,8.568,0,0,1-1.662-2.875,1.087,1.087,0,0,0-.857-.721Zm7.595,8.631a10.945,10.945,0,0,0,2.847,0l.749.922H17.719Zm47.32,15.527H8.389a6.216,6.216,0,0,1,0-12.431h57.4a6.216,6.216,0,0,1,0,12.431Z" transform="translate(0 -189.137)"/>
        <path id="Trazado_1085812" data-name="Trazado 1085812" d="M91.443,426.19h-43.4a1.087,1.087,0,1,0,0,2.173h43.4a1.87,1.87,0,0,1,0,3.739h-57.4a1.87,1.87,0,0,1,0-3.739h9a1.087,1.087,0,1,0,0-2.173h-9a4.043,4.043,0,0,0,0,8.086h57.4a4.043,4.043,0,0,0,0-8.086Z" transform="translate(-25.654 -364.444)"/>
        <path id="Trazado_1085813" data-name="Trazado 1085813" d="M338.158,288.36a5.627,5.627,0,1,0-5.627-5.627A5.634,5.634,0,0,0,338.158,288.36Zm0-9.082a3.454,3.454,0,1,1-3.454,3.454A3.458,3.458,0,0,1,338.158,279.278Z" transform="translate(-284.354 -236.958)"/>
        <path id="Trazado_1085814" data-name="Trazado 1085814" d="M104.086,288.36a5.627,5.627,0,1,0-5.627-5.627A5.634,5.634,0,0,0,104.086,288.36Zm0-9.082a3.454,3.454,0,1,1-3.454,3.454A3.458,3.458,0,0,1,104.086,279.278Z" transform="translate(-84.194 -236.958)"/>
        <path id="Trazado_1085815" data-name="Trazado 1085815" d="M73.092,2.689H63.749A6.013,6.013,0,0,0,53.8,2.576a6.013,6.013,0,0,0-9.945.113H33.747a1.087,1.087,0,1,0,0,2.173h9.217a6.025,6.025,0,0,0-.113,1.158c0,.177.009.352.024.526H2.173V4.862h26.5a1.087,1.087,0,1,0,0-2.173H1.087A1.087,1.087,0,0,0,0,3.776V7.632A1.087,1.087,0,0,0,1.087,8.719H43.493a6.038,6.038,0,0,0,4.253,3.214l1.472,2.48q-.139.188-.263.388L38.148,16.919h0a3.256,3.256,0,0,0-2.581,2.618l-1.745,9.654a3.28,3.28,0,0,0,1.51,3.363L39.013,34.8a3.255,3.255,0,0,0,1.7.478h0a3.26,3.26,0,0,0,1.7-6.043l-1.774-1.083.952-5.264,7.788-1.526a5.687,5.687,0,0,0,8.859,0l7.788,1.526.952,5.265L65.2,29.236A3.259,3.259,0,1,0,68.6,34.8l3.682-2.246a3.281,3.281,0,0,0,1.51-3.362l-.214-1.187a1.087,1.087,0,1,0-2.139.386l.214,1.187a1.094,1.094,0,0,1-.5,1.12l-3.682,2.246a1.086,1.086,0,1,1-1.132-1.854l2.411-1.471a1.087,1.087,0,0,0,.5-1.121L67.764,20.31a1.087,1.087,0,0,1,2.138-.386l.635,3.509a1.087,1.087,0,0,0,2.139-.387l-.634-3.509a3.259,3.259,0,0,0-2.556-2.614c-.019,0-.052-.011-.094-.018L58.654,14.8q-.124-.2-.263-.389l1.472-2.479a6.038,6.038,0,0,0,4.254-3.214h8.976a1.087,1.087,0,0,0,1.087-1.087V3.776a1.087,1.087,0,0,0-1.087-1.087ZM45.024,6.02a3.847,3.847,0,1,1,3.847,3.847A3.851,3.851,0,0,1,45.024,6.02Zm12.342,5.86-.613,1.033a5.687,5.687,0,0,0-5.9,0l-.613-1.033A6.034,6.034,0,0,0,53.8,9.464,6.035,6.035,0,0,0,57.366,11.88ZM41.277,31.091a1.087,1.087,0,0,1-.568,2.014h0a1.082,1.082,0,0,1-.564-.159L36.464,30.7a1.093,1.093,0,0,1-.5-1.121l1.745-9.654a1.087,1.087,0,0,1,1.066-.894,1.112,1.112,0,0,1,.2.018,1.086,1.086,0,0,1,.876,1.262L38.364,28.5a1.086,1.086,0,0,0,.5,1.121ZM42,20.594a3.229,3.229,0,0,0-.418-2.133l6.562-1.286a5.663,5.663,0,0,0,.188,2.178Zm11.808.715a3.523,3.523,0,1,1,3.523-3.523A3.527,3.527,0,0,1,53.8,21.309Zm12.225-2.848a3.227,3.227,0,0,0-.417,2.132L59.28,19.353a5.678,5.678,0,0,0,.221-1.567,5.749,5.749,0,0,0-.033-.611ZM58.738,9.867A3.847,3.847,0,1,1,62.584,6.02,3.851,3.851,0,0,1,58.738,9.867ZM72.005,6.546H64.733c.015-.173.024-.349.024-.526a6.028,6.028,0,0,0-.113-1.158h7.361Z" transform="translate(0)"/>
        <path id="Trazado_1085816" data-name="Trazado 1085816" d="M399.011,33.551a1.087,1.087,0,0,0-1.087,1.087v.072a1.087,1.087,0,1,0,2.173,0v-.072A1.087,1.087,0,0,0,399.011,33.551Z" transform="translate(-340.273 -28.69)"/>
        <path id="Trazado_1085817" data-name="Trazado 1085817" d="M332,34.71v-.072a1.087,1.087,0,0,0-2.173,0v.072a1.087,1.087,0,0,0,2.173,0Z" transform="translate(-282.038 -28.69)"/>
      </g>
    </g>
  </g>
</svg>
