<svg xmlns="http://www.w3.org/2000/svg" xmlns:xlink="http://www.w3.org/1999/xlink" width="113" height="113" viewBox="0 0 113 113">
  <defs>
    <filter id="Trazado_982547" x="0" y="0" width="113" height="113" filterUnits="userSpaceOnUse">
      <feOffset dy="3" input="SourceAlpha"/>
      <feGaussianBlur stdDeviation="3" result="blur"/>
      <feFlood flood-opacity="0.161"/>
      <feComposite operator="in" in2="blur"/>
      <feComposite in="SourceGraphic"/>
    </filter>
  </defs>
  <g id="Grupo_1218006" data-name="Grupo 1218006" transform="translate(-1164 -1062.034)">
    <g id="Grupo_1217133" data-name="Grupo 1217133" transform="translate(1.5 -2832.115)">
      <g id="Grupo_1210961" data-name="Grupo 1210961" transform="translate(0 -689.385)">
        <g id="Grupo_1209937" data-name="Grupo 1209937" transform="translate(0 -2945.274)">
          <g id="Grupo_1208707" data-name="Grupo 1208707" transform="translate(-1.454 3213.429)">
            <g id="Grupo_1148635" data-name="Grupo 1148635" transform="translate(908.908 600.047)">
              <g id="Grupo_1148525" data-name="Grupo 1148525" transform="translate(264.046 3721.333)">
                <g transform="matrix(1, 0, 0, 1, -9, -6)" filter="url(#Trazado_982547)">
                  <g id="Trazado_982547-2" data-name="Trazado 982547" transform="translate(9 6)" fill="#ffefc0">
                    <path d="M 47.5 93.5 C 41.28937149047852 93.5 35.26533508300781 92.28397369384766 29.59518623352051 89.88570404052734 C 24.11771965026855 87.56893157958984 19.19813346862793 84.25196075439453 14.97309303283691 80.02691650390625 C 10.74804019927979 75.80186462402344 7.431066513061523 70.88229370117188 5.114293098449707 65.40481567382812 C 2.716026782989502 59.73468017578125 1.5 53.71062850952148 1.5 47.5 C 1.5 41.28937149047852 2.716026782989502 35.26533508300781 5.114293098449707 29.59518623352051 C 7.431066513061523 24.11771965026855 10.74804019927979 19.19813346862793 14.97309303283691 14.97309303283691 C 19.19813346862793 10.74804019927979 24.11771965026855 7.431066513061523 29.59518623352051 5.114293098449707 C 35.26533508300781 2.716026782989502 41.28937149047852 1.5 47.5 1.5 C 53.71062850952148 1.5 59.73468017578125 2.716026782989502 65.40481567382812 5.114293098449707 C 70.88229370117188 7.431066513061523 75.80186462402344 10.74804019927979 80.02691650390625 14.97309303283691 C 84.25196075439453 19.19813346862793 87.56893157958984 24.11771965026855 89.88570404052734 29.59518623352051 C 92.28397369384766 35.26533508300781 93.5 41.28937149047852 93.5 47.5 C 93.5 53.71062850952148 92.28397369384766 59.73468017578125 89.88570404052734 65.40481567382812 C 87.56893157958984 70.88229370117188 84.25196075439453 75.80186462402344 80.02691650390625 80.02691650390625 C 75.80186462402344 84.25196075439453 70.88229370117188 87.56893157958984 65.40481567382812 89.88570404052734 C 59.73468017578125 92.28397369384766 53.71062850952148 93.5 47.5 93.5 Z" stroke="none"/>
                    <path d="M 47.5 3 C 41.49121475219727 3 35.66376876831055 4.176155090332031 30.17950439453125 6.495796203613281 C 24.88084411621094 8.736953735351562 20.12152099609375 11.94598388671875 16.03375244140625 16.03375244140625 C 11.94598388671875 20.12152099609375 8.736953735351562 24.88084411621094 6.495796203613281 30.17950439453125 C 4.176155090332031 35.66376876831055 3 41.49121475219727 3 47.5 C 3 53.50878524780273 4.176155090332031 59.33623123168945 6.495796203613281 64.82049560546875 C 8.736953735351562 70.11915588378906 11.94598388671875 74.87847900390625 16.03375244140625 78.96624755859375 C 20.12152099609375 83.05401611328125 24.88084411621094 86.26304626464844 30.17950439453125 88.50419616699219 C 35.66376876831055 90.82384490966797 41.49121475219727 92 47.5 92 C 53.50878524780273 92 59.33623123168945 90.82384490966797 64.82049560546875 88.50419616699219 C 70.11915588378906 86.26304626464844 74.87847900390625 83.05401611328125 78.96624755859375 78.96624755859375 C 83.05401611328125 74.87847900390625 86.26304626464844 70.11915588378906 88.50419616699219 64.82049560546875 C 90.82384490966797 59.33623123168945 92 53.50878524780273 92 47.5 C 92 41.49121475219727 90.82384490966797 35.66376876831055 88.50419616699219 30.17950439453125 C 86.26304626464844 24.88084411621094 83.05401611328125 20.12152099609375 78.96624755859375 16.03375244140625 C 74.87847900390625 11.94598388671875 70.11915588378906 8.736953735351562 64.82049560546875 6.495796203613281 C 59.33623123168945 4.176155090332031 53.50878524780273 3 47.5 3 M 47.5 0 C 73.7335205078125 0 95 21.2664794921875 95 47.5 C 95 73.7335205078125 73.7335205078125 95 47.5 95 C 21.2664794921875 95 0 73.7335205078125 0 47.5 C 0 21.2664794921875 21.2664794921875 0 47.5 0 Z" stroke="none" fill="#fc3"/>
                  </g>
                </g>
              </g>
            </g>
          </g>
        </g>
      </g>
    </g>
    <g id="factory_7654947" transform="translate(1172.668 1050.436)">
      <g id="Grupo_1218003" data-name="Grupo 1218003" transform="translate(7.5 21.981)">
        <rect id="Rectángulo_421299" data-name="Rectángulo 421299" width="9.213" height="27.589" transform="translate(6.228 7.689)" fill="#d7d0d6"/>
        <rect id="Rectángulo_421300" data-name="Rectángulo 421300" width="4.421" height="27.589" transform="translate(6.228 7.689)" fill="#c9bfc8"/>
        <path id="Trazado_1085818" data-name="Trazado 1085818" d="M51.952,29.887H42.739V22.511a.53.53,0,0,1,.53-.53h8.153a.53.53,0,0,1,.53.53v7.376Z" transform="translate(-36.511 -21.981)" fill="#fd4755"/>
        <path id="Trazado_1085819" data-name="Trazado 1085819" d="M47.69,21.981H43.269a.53.53,0,0,0-.53.53v7.376H47.16V22.511A.53.53,0,0,1,47.69,21.981Z" transform="translate(-36.511 -21.981)" fill="#fb2b3a"/>
        <path id="Trazado_1085820" data-name="Trazado 1085820" d="M51.952,29.887H42.739V22.511a.53.53,0,0,1,.53-.53h8.153a.53.53,0,0,1,.53.53v7.376Z" transform="translate(-36.511 -21.981)" fill="none" stroke="#000" stroke-linecap="round" stroke-linejoin="round" stroke-miterlimit="10" stroke-width="2"/>
        <rect id="Rectángulo_421301" data-name="Rectángulo 421301" width="9.213" height="7.906" transform="translate(6.228 15.812)" fill="#fd4755"/>
        <rect id="Rectángulo_421302" data-name="Rectángulo 421302" width="4.421" height="7.906" transform="translate(6.228 15.812)" fill="#fb2b3a"/>
        <rect id="Rectángulo_421303" data-name="Rectángulo 421303" width="9.213" height="7.906" transform="translate(6.228 15.812)" fill="none" stroke="#000" stroke-linecap="round" stroke-linejoin="round" stroke-miterlimit="10" stroke-width="2"/>
        <path id="Trazado_1085821" data-name="Trazado 1085821" d="M136.3,93.079a.884.884,0,0,0,.511-.163l.391-.277V65.49h-9.213V93.079Z" transform="translate(-106.692 -57.801)" fill="#d7d0d6"/>
        <rect id="Rectángulo_421304" data-name="Rectángulo 421304" width="4.421" height="27.589" transform="translate(21.293 7.689)" fill="#c9bfc8"/>
        <rect id="Rectángulo_421305" data-name="Rectángulo 421305" width="9.213" height="27.589" transform="translate(6.228 7.689)" fill="none" stroke="#000" stroke-linecap="round" stroke-linejoin="round" stroke-miterlimit="10" stroke-width="2"/>
        <path id="Trazado_1085822" data-name="Trazado 1085822" d="M136.3,93.079a.884.884,0,0,0,.511-.163l.391-.277V65.49h-9.213V93.079Z" transform="translate(-106.692 -57.801)" fill="none" stroke="#000" stroke-linecap="round" stroke-linejoin="round" stroke-miterlimit="10" stroke-width="2"/>
        <path id="Trazado_1085823" data-name="Trazado 1085823" d="M137.2,29.887h-9.213V22.511a.53.53,0,0,1,.53-.53h8.153a.53.53,0,0,1,.53.53Z" transform="translate(-106.692 -21.981)" fill="#fd4755"/>
        <path id="Trazado_1085824" data-name="Trazado 1085824" d="M132.936,21.981h-4.421a.53.53,0,0,0-.53.53v7.376h4.421V22.511A.53.53,0,0,1,132.936,21.981Z" transform="translate(-106.692 -21.981)" fill="#fb2b3a"/>
        <path id="Trazado_1085825" data-name="Trazado 1085825" d="M137.2,29.887h-9.213V22.511a.53.53,0,0,1,.53-.53h8.153a.53.53,0,0,1,.53.53Z" transform="translate(-106.692 -21.981)" fill="none" stroke="#000" stroke-linecap="round" stroke-linejoin="round" stroke-miterlimit="10" stroke-width="2"/>
        <rect id="Rectángulo_421306" data-name="Rectángulo 421306" width="9.213" height="7.906" transform="translate(21.293 15.812)" fill="#fd4755"/>
        <rect id="Rectángulo_421307" data-name="Rectángulo 421307" width="4.421" height="7.906" transform="translate(21.293 15.812)" fill="#fb2b3a"/>
        <rect id="Rectángulo_421308" data-name="Rectángulo 421308" width="9.213" height="7.906" transform="translate(21.293 15.812)" fill="none" stroke="#000" stroke-linecap="round" stroke-linejoin="round" stroke-miterlimit="10" stroke-width="2"/>
        <path id="Trazado_1085826" data-name="Trazado 1085826" d="M55.823,162.822v-9.655a.884.884,0,0,0-1.395-.721L37.615,164.369a.884.884,0,0,1-.511.163H8.384a.884.884,0,0,0-.884.884v31.337a.884.884,0,0,0,.884.884H73.378a.884.884,0,0,0,.884-.884V153.167a.884.884,0,0,0-1.395-.721l-15.649,11.1A.884.884,0,0,1,55.823,162.822Z" transform="translate(-7.5 -129.255)" fill="#ffe177"/>
        <g id="Grupo_1218002" data-name="Grupo 1218002" transform="translate(0 35.278)">
          <path id="Trazado_1085827" data-name="Trazado 1085827" d="M15.011,253.822V222.485a.884.884,0,0,1,.884-.884H8.384a.884.884,0,0,0-.884.884v31.337a.884.884,0,0,0,.884.884h7.511A.884.884,0,0,1,15.011,253.822Z" transform="translate(-7.5 -221.601)" fill="#ffd15b"/>
        </g>
        <path id="Trazado_1085828" data-name="Trazado 1085828" d="M117,197.636h46.326a1.084,1.084,0,0,0,1.084-1.084V153.166a.884.884,0,0,0-1.395-.721l-15.648,11.1a.884.884,0,0,1-1.395-.721v-9.655a.884.884,0,0,0-1.395-.721l-5.176,3.67" transform="translate(-97.649 -129.254)" fill="none" stroke="#000" stroke-linecap="round" stroke-linejoin="round" stroke-miterlimit="10" stroke-width="2"/>
        <path id="Trazado_1085829" data-name="Trazado 1085829" d="M44.207,194.228l-6.546,4.642a1.084,1.084,0,0,1-.615.2H8.384a.884.884,0,0,0-.884.884v31.133a1.084,1.084,0,0,0,1.084,1.084H20.666" transform="translate(-7.5 -163.788)" fill="none" stroke="#000" stroke-linecap="round" stroke-linejoin="round" stroke-miterlimit="10" stroke-width="2"/>
      </g>
      <path id="Trazado_1085830" data-name="Trazado 1085830" d="M56.2,270.871H51.828a.884.884,0,0,1-.884-.884v-8.47a.884.884,0,0,1,.884-.884H56.2a.884.884,0,0,1,.884.884v8.47A.883.883,0,0,1,56.2,270.871Z" transform="translate(-35.766 -196.477)" fill="#efedef"/>
      <path id="Trazado_1085831" data-name="Trazado 1085831" d="M53.914,269.987v-8.47a.884.884,0,0,1,.884-.884h-2.97a.884.884,0,0,0-.884.884v8.47a.884.884,0,0,0,.884.884H54.8A.884.884,0,0,1,53.914,269.987Z" transform="translate(-35.766 -196.477)" fill="#e5e1e5"/>
      <path id="Trazado_1085832" data-name="Trazado 1085832" d="M127.451,270.871h-4.375a.884.884,0,0,1-.884-.884v-8.47a.884.884,0,0,1,.884-.884h4.375a.884.884,0,0,1,.884.884v8.47A.884.884,0,0,1,127.451,270.871Z" transform="translate(-94.424 -196.477)" fill="#efedef"/>
      <path id="Trazado_1085833" data-name="Trazado 1085833" d="M125.163,269.987v-8.47a.884.884,0,0,1,.884-.884h-2.97a.884.884,0,0,0-.884.884v8.47a.884.884,0,0,0,.884.884h2.97A.883.883,0,0,1,125.163,269.987Z" transform="translate(-94.424 -196.477)" fill="#e5e1e5"/>
      <path id="Trazado_1085834" data-name="Trazado 1085834" d="M198.7,270.871h-4.375a.884.884,0,0,1-.884-.884v-8.47a.884.884,0,0,1,.884-.884H198.7a.884.884,0,0,1,.884.884v8.47A.884.884,0,0,1,198.7,270.871Z" transform="translate(-153.081 -196.477)" fill="#efedef"/>
      <path id="Trazado_1085835" data-name="Trazado 1085835" d="M196.411,269.987v-8.47a.884.884,0,0,1,.884-.884h-2.97a.884.884,0,0,0-.884.884v8.47a.884.884,0,0,0,.884.884h2.97A.883.883,0,0,1,196.411,269.987Z" transform="translate(-153.081 -196.477)" fill="#e5e1e5"/>
      <path id="Trazado_1085836" data-name="Trazado 1085836" d="M56.2,270.871H51.828a.884.884,0,0,1-.884-.884v-8.47a.884.884,0,0,1,.884-.884H56.2a.884.884,0,0,1,.884.884v8.47A.883.883,0,0,1,56.2,270.871Z" transform="translate(-35.766 -196.477)" fill="none" stroke="#000" stroke-linecap="round" stroke-linejoin="round" stroke-miterlimit="10" stroke-width="2"/>
      <path id="Trazado_1085837" data-name="Trazado 1085837" d="M127.451,270.871h-4.375a.884.884,0,0,1-.884-.884v-8.47a.884.884,0,0,1,.884-.884h4.375a.884.884,0,0,1,.884.884v8.47A.884.884,0,0,1,127.451,270.871Z" transform="translate(-94.424 -196.477)" fill="none" stroke="#000" stroke-linecap="round" stroke-linejoin="round" stroke-miterlimit="10" stroke-width="2"/>
      <path id="Trazado_1085838" data-name="Trazado 1085838" d="M198.7,270.871h-4.375a.884.884,0,0,1-.884-.884v-8.47a.884.884,0,0,1,.884-.884H198.7a.884.884,0,0,1,.884.884v8.47A.884.884,0,0,1,198.7,270.871Z" transform="translate(-153.081 -196.477)" fill="none" stroke="#000" stroke-linecap="round" stroke-linejoin="round" stroke-miterlimit="10" stroke-width="2"/>
      <g id="Grupo_1218004" data-name="Grupo 1218004" transform="translate(52.073 56.582)">
        <path id="Trazado_1085839" data-name="Trazado 1085839" d="M296.286,231.037l2.65-2.65a1.1,1.1,0,0,0,.125-1.4,21.749,21.749,0,0,0-5.124-5.173,1.1,1.1,0,0,0-1.412.119l-2.627,2.627a1.1,1.1,0,0,1-1.265.2,16.235,16.235,0,0,0-1.86-.787,1.1,1.1,0,0,1-.733-1.032v-3.759a1.094,1.094,0,0,0-.9-1.079,21.807,21.807,0,0,0-7.288-.052,1.1,1.1,0,0,0-.914,1.083v3.71a1.1,1.1,0,0,1-.758,1.041,16.261,16.261,0,0,0-1.94.784,1.1,1.1,0,0,1-1.256-.209l-2.65-2.65a1.1,1.1,0,0,0-1.4-.125,21.75,21.75,0,0,0-5.173,5.124,1.1,1.1,0,0,0,.119,1.412l2.627,2.627a1.1,1.1,0,0,1,.2,1.269,16.24,16.24,0,0,0-.829,1.984,1.1,1.1,0,0,1-1.038.747h-3.734a1.1,1.1,0,0,0-1.082.908,21.781,21.781,0,0,0,0,7.284,1.1,1.1,0,0,0,1.082.908h3.734a1.1,1.1,0,0,1,1.038.747,16.251,16.251,0,0,0,.829,1.984,1.1,1.1,0,0,1-.2,1.269l-2.627,2.627a1.1,1.1,0,0,0-.119,1.412,21.753,21.753,0,0,0,5.173,5.124,1.1,1.1,0,0,0,1.4-.125l2.65-2.65a1.1,1.1,0,0,1,1.256-.209,16.251,16.251,0,0,0,1.94.784,1.1,1.1,0,0,1,.758,1.041v3.71a1.1,1.1,0,0,0,.914,1.083,21.807,21.807,0,0,0,7.288-.052,1.094,1.094,0,0,0,.9-1.079v-3.759a1.1,1.1,0,0,1,.733-1.032,16.234,16.234,0,0,0,1.859-.787,1.1,1.1,0,0,1,1.265.2l2.627,2.627a1.1,1.1,0,0,0,1.412.119,21.749,21.749,0,0,0,5.124-5.173,1.1,1.1,0,0,0-.125-1.4l-2.65-2.65a1.1,1.1,0,0,1-.21-1.252,16.259,16.259,0,0,0,.742-1.815,1.1,1.1,0,0,1,1.036-.745h3.734a1.1,1.1,0,0,0,1.082-.908,21.779,21.779,0,0,0,0-7.284,1.1,1.1,0,0,0-1.082-.908h-3.734a1.1,1.1,0,0,1-1.036-.745,16.223,16.223,0,0,0-.742-1.815A1.1,1.1,0,0,1,296.286,231.037Z" transform="translate(-259.718 -217.769)" fill="#d7d0d6"/>
        <path id="Trazado_1085840" data-name="Trazado 1085840" d="M272.138,239.4a18.463,18.463,0,0,1,13.9-17.889v-2.328a1.094,1.094,0,0,0-.9-1.079,21.809,21.809,0,0,0-7.288-.052,1.1,1.1,0,0,0-.914,1.083v3.71a1.1,1.1,0,0,1-.758,1.041,16.259,16.259,0,0,0-1.94.784,1.1,1.1,0,0,1-1.256-.209l-2.65-2.65a1.1,1.1,0,0,0-1.4-.125,21.749,21.749,0,0,0-5.173,5.124,1.1,1.1,0,0,0,.119,1.412l2.627,2.627a1.1,1.1,0,0,1,.2,1.269,16.249,16.249,0,0,0-.829,1.984,1.1,1.1,0,0,1-1.038.747h-3.734a1.1,1.1,0,0,0-1.082.908,21.779,21.779,0,0,0,0,7.284,1.1,1.1,0,0,0,1.082.908h3.734a1.1,1.1,0,0,1,1.038.747,16.26,16.26,0,0,0,.829,1.984,1.1,1.1,0,0,1-.2,1.269l-2.627,2.627a1.1,1.1,0,0,0-.119,1.412,21.752,21.752,0,0,0,5.173,5.124,1.1,1.1,0,0,0,1.4-.125l2.65-2.65a1.1,1.1,0,0,1,1.256-.209,16.253,16.253,0,0,0,1.94.784,1.1,1.1,0,0,1,.758,1.041v3.71a1.1,1.1,0,0,0,.914,1.083,21.807,21.807,0,0,0,7.288-.052,1.094,1.094,0,0,0,.9-1.079v-2.328A18.463,18.463,0,0,1,272.138,239.4Z" transform="translate(-259.717 -217.769)" fill="#c9bfc8"/>
        <path id="Trazado_1085841" data-name="Trazado 1085841" d="M296.286,231.037l2.65-2.65a1.1,1.1,0,0,0,.125-1.4,21.749,21.749,0,0,0-5.124-5.173,1.1,1.1,0,0,0-1.412.119l-2.627,2.627a1.1,1.1,0,0,1-1.265.2,16.235,16.235,0,0,0-1.86-.787,1.1,1.1,0,0,1-.733-1.032v-3.759a1.094,1.094,0,0,0-.9-1.079,21.807,21.807,0,0,0-7.288-.052,1.1,1.1,0,0,0-.914,1.083v3.71a1.1,1.1,0,0,1-.758,1.041,16.261,16.261,0,0,0-1.94.784,1.1,1.1,0,0,1-1.256-.209l-2.65-2.65a1.1,1.1,0,0,0-1.4-.125,21.75,21.75,0,0,0-5.173,5.124,1.1,1.1,0,0,0,.119,1.412l2.627,2.627a1.1,1.1,0,0,1,.2,1.269,16.24,16.24,0,0,0-.829,1.984,1.1,1.1,0,0,1-1.038.747h-3.734a1.1,1.1,0,0,0-1.082.908,21.781,21.781,0,0,0,0,7.284,1.1,1.1,0,0,0,1.082.908h3.734a1.1,1.1,0,0,1,1.038.747,16.251,16.251,0,0,0,.829,1.984,1.1,1.1,0,0,1-.2,1.269l-2.627,2.627a1.1,1.1,0,0,0-.119,1.412,21.753,21.753,0,0,0,5.173,5.124,1.1,1.1,0,0,0,1.4-.125l2.65-2.65a1.1,1.1,0,0,1,1.256-.209,16.251,16.251,0,0,0,1.94.784,1.1,1.1,0,0,1,.758,1.041v3.71a1.1,1.1,0,0,0,.914,1.083,21.807,21.807,0,0,0,7.288-.052,1.094,1.094,0,0,0,.9-1.079v-3.759a1.1,1.1,0,0,1,.733-1.032,16.234,16.234,0,0,0,1.859-.787,1.1,1.1,0,0,1,1.265.2l2.627,2.627a1.1,1.1,0,0,0,1.412.119,21.749,21.749,0,0,0,5.124-5.173,1.1,1.1,0,0,0-.125-1.4l-2.65-2.65a1.1,1.1,0,0,1-.21-1.252,16.259,16.259,0,0,0,.742-1.815,1.1,1.1,0,0,1,1.036-.745h3.734a1.1,1.1,0,0,0,1.082-.908,21.779,21.779,0,0,0,0-7.284,1.1,1.1,0,0,0-1.082-.908h-3.734a1.1,1.1,0,0,1-1.036-.745,16.223,16.223,0,0,0-.742-1.815A1.1,1.1,0,0,1,296.286,231.037Z" transform="translate(-259.718 -217.769)" fill="none" stroke="#000" stroke-linecap="round" stroke-linejoin="round" stroke-miterlimit="10" stroke-width="2"/>
        <circle id="Elipse_14451" data-name="Elipse 14451" cx="11.528" cy="11.528" r="11.528" transform="translate(6.569 15.391) rotate(-22.5)" fill="#aa9ea9"/>
        <path id="Trazado_1085842" data-name="Trazado 1085842" d="M324.322,286.456a11.53,11.53,0,0,1,7.806-10.91,11.528,11.528,0,1,0,0,21.821A11.53,11.53,0,0,1,324.322,286.456Z" transform="translate(-306.776 -264.827)" fill="#9b8e99"/>
        <path id="Trazado_1085843" data-name="Trazado 1085843" d="M339.577,283.6a11.53,11.53,0,1,0-.133,6.185" transform="translate(-306.776 -264.827)" fill="none" stroke="#000" stroke-linecap="round" stroke-linejoin="round" stroke-miterlimit="10" stroke-width="2"/>
        <circle id="Elipse_14452" data-name="Elipse 14452" cx="5.551" cy="5.551" r="5.551" transform="translate(14.38 18.626) rotate(-22.5)" fill="#efedef"/>
        <path id="Trazado_1085844" data-name="Trazado 1085844" d="M355.173,314.3a5.551,5.551,0,0,1,3.315-5.08,5.551,5.551,0,1,0,0,10.161A5.551,5.551,0,0,1,355.173,314.3Z" transform="translate(-334.623 -292.673)" fill="#e5e1e5"/>
        <circle id="Elipse_14453" data-name="Elipse 14453" cx="5.551" cy="5.551" r="5.551" transform="translate(14.38 18.626) rotate(-22.5)" fill="none" stroke="#000" stroke-linecap="round" stroke-linejoin="round" stroke-miterlimit="10" stroke-width="2"/>
      </g>
      <g id="Grupo_1218005" data-name="Grupo 1218005" transform="translate(36.777 79.717)">
        <circle id="Elipse_14454" data-name="Elipse 14454" cx="12.489" cy="12.489" r="12.489" transform="translate(0)" fill="#c8effe"/>
        <path id="Trazado_1085845" data-name="Trazado 1085845" d="M179.145,361.17a12.492,12.492,0,0,1,9.5-12.126,12.489,12.489,0,1,0,0,24.252A12.492,12.492,0,0,1,179.145,361.17Z" transform="translate(-173.166 -348.681)" fill="#99e6fc"/>
        <circle id="Elipse_14455" data-name="Elipse 14455" cx="12.489" cy="12.489" r="12.489" transform="translate(0)" fill="none" stroke="#000" stroke-linecap="round" stroke-linejoin="round" stroke-miterlimit="10" stroke-width="2"/>
        <path id="Trazado_1085846" data-name="Trazado 1085846" d="M243.836,378.7v7.184h5.416" transform="translate(-231.347 -373.394)" fill="none" stroke="#000" stroke-linecap="round" stroke-linejoin="round" stroke-miterlimit="10" stroke-width="2"/>
      </g>
    </g>
  </g>
</svg>
