<svg xmlns="http://www.w3.org/2000/svg" width="136.383" height="153" viewBox="0 0 136.383 153">
  <g id="Grupo_1218012" data-name="Grupo 1218012" transform="translate(-207 -2829.69)">
    <rect id="Rectángulo_421309" data-name="Rectángulo 421309" width="88" height="153" transform="translate(255.383 2829.69)" fill="#fc3"/>
    <g id="trabajar" transform="translate(207 2864.762)">
      <g id="Grupo_1218010" data-name="Grupo 1218010" transform="translate(1.729 1.727)">
        <path id="Trazado_1085847" data-name="Trazado 1085847" d="M172.194,153.26l-3.956-20.72a42.227,42.227,0,0,1-.749-7.927h0a8.3,8.3,0,0,0-8.3-8.3H130.758a8.3,8.3,0,0,0-8.3,8.3,42.259,42.259,0,0,1-.749,7.923l-3.957,20.725a10.509,10.509,0,0,0,10.323,12.48h33.8A10.509,10.509,0,0,0,172.194,153.26Z" transform="translate(-92.733 -91.247)" fill="#c38f86"/>
        <path id="Trazado_1085848" data-name="Trazado 1085848" d="M291.986,153.261l-3.956-20.72a42.227,42.227,0,0,1-.749-7.927,8.3,8.3,0,0,0-8.3-8.3H273.2a8.3,8.3,0,0,1,8.3,8.3,42.249,42.249,0,0,0,.749,7.927l3.956,20.72a10.509,10.509,0,0,1-10.323,12.48h5.778A10.509,10.509,0,0,0,291.986,153.261Z" transform="translate(-212.526 -91.247)" fill="#b87d72"/>
        <g id="Grupo_1218009" data-name="Grupo 1218009" transform="translate(9.302 38.182)">
          <g id="Grupo_1218008" data-name="Grupo 1218008">
            <g id="Grupo_1218007" data-name="Grupo 1218007" transform="translate(17.959)">
              <path id="Trazado_1085849" data-name="Trazado 1085849" d="M190.784,173.272l4.779,12.079V199.7a9.885,9.885,0,0,1-9.885,9.885H170.422a9.885,9.885,0,0,1-9.885-9.885V185.351l6.712-12.079Z" transform="translate(-153.073 -173.271)" fill="#ffdfcf"/>
              <path id="Trazado_1085850" data-name="Trazado 1085850" d="M260.264,185.349v14.345a9.883,9.883,0,0,1-9.883,9.886H244.6a9.884,9.884,0,0,0,9.886-9.886V173.268h1Z" transform="translate(-217.776 -173.268)" fill="#ffcebf"/>
              <path id="Trazado_1085851" data-name="Trazado 1085851" d="M135.6,218.752h-1.058a6.4,6.4,0,1,1,0-12.81H135.6Z" transform="translate(-128.133 -198.416)" fill="#ffcebf"/>
              <path id="Trazado_1085852" data-name="Trazado 1085852" d="M312.606,218.752h1.058a6.4,6.4,0,0,0,0-12.81h-1.058Z" transform="translate(-270.116 -198.416)" fill="#ffb09e"/>
            </g>
            <path id="Trazado_1085853" data-name="Trazado 1085853" d="M119.435,371.346H63.053a9.388,9.388,0,0,0-9.271,7.912l-3.621,22.757h78.707Z" transform="translate(-50.161 -325.723)" fill="#fee97d"/>
            <path id="Trazado_1085854" data-name="Trazado 1085854" d="M206.806,330.918h13.571v9.312H206.806Z" transform="translate(-170.726 -294.607)" fill="#ffcebf"/>
            <path id="Trazado_1085855" data-name="Trazado 1085855" d="M240.644,330.918h5.778v9.312h-5.778Z" transform="translate(-196.77 -294.607)" fill="#ffb09e"/>
          </g>
          <circle id="Elipse_14456" data-name="Elipse 14456" cx="24.973" cy="24.973" r="24.973" transform="translate(53.735 26.347)" fill="#d9b1ee"/>
          <path id="Trazado_1085856" data-name="Trazado 1085856" d="M381.313,287.655a25.222,25.222,0,0,0-3.162.2,24.976,24.976,0,0,1,0,49.548,25.228,25.228,0,0,0,3.162.2,24.973,24.973,0,1,0,0-49.945Z" transform="translate(-302.605 -261.308)" fill="#cb97e7"/>
          <circle id="Elipse_14457" data-name="Elipse 14457" cx="18.742" cy="18.742" r="18.742" transform="translate(59.966 32.578)" fill="#f4f7f8"/>
          <path id="Trazado_1085857" data-name="Trazado 1085857" d="M382.226,314.708a18.816,18.816,0,0,0-2.889.223,18.743,18.743,0,0,1,0,37.037,18.742,18.742,0,1,0,2.889-37.26Z" transform="translate(-303.518 -282.13)" fill="#e7ecf1"/>
        </g>
        <path id="Trazado_1085858" data-name="Trazado 1085858" d="M160.537,155.544v16.162c7.463,0,17.443-12.079,17.443-12.079s9.98,12.079,17.443,12.079l-1.561-16.162Z" transform="translate(-125.812 -121.445)" fill="#c38f86"/>
        <path id="Trazado_1085859" data-name="Trazado 1085859" d="M52.578,425.508H18.925a4.45,4.45,0,0,1-4.278-3.225L9.893,405.677a2.985,2.985,0,0,1,2.87-3.807H42.456a4.45,4.45,0,0,1,4.278,3.225Z" transform="translate(-9.775 -311.035)" fill="#a79ba7"/>
        <path id="Trazado_1085860" data-name="Trazado 1085860" d="M136.632,405.095a4.45,4.45,0,0,0-4.278-3.225h-5.778a4.45,4.45,0,0,1,4.278,3.225l5.845,20.413h5.778Z" transform="translate(-99.674 -311.035)" fill="#918291"/>
        <path id="Trazado_1085861" data-name="Trazado 1085861" d="M189.647,483.677h17.736a3.115,3.115,0,0,0,0-6.231h-19.52Z" transform="translate(-146.844 -369.203)" fill="#a79ba7"/>
        <path id="Trazado_1085862" data-name="Trazado 1085862" d="M253.306,477.446h-5.778a3.115,3.115,0,0,1,0,6.231h5.778a3.115,3.115,0,0,0,0-6.231Z" transform="translate(-192.767 -369.203)" fill="#918291"/>
        <path id="Trazado_1085863" data-name="Trazado 1085863" d="M383.734,25.228a17.73,17.73,0,1,0-29.647,13.126,18.612,18.612,0,0,1,5.635,10.039l.029.139h12.384a19.042,19.042,0,0,1,5.818-10.205A17.682,17.682,0,0,0,383.734,25.228Z" transform="translate(-270.307 -7.498)" fill="#fee97d"/>
        <path id="Trazado_1085864" data-name="Trazado 1085864" d="M415.165,7.5a17.558,17.558,0,0,0-2.462.234,17.727,17.727,0,0,1,9.061,30.59,19.042,19.042,0,0,0-5.818,10.205h5.778a19.041,19.041,0,0,1,5.818-10.205A17.73,17.73,0,0,0,415.165,7.5Z" transform="translate(-319.897 -7.498)" fill="#fee45a"/>
        <path id="Trazado_1085865" data-name="Trazado 1085865" d="M398.1,185.653h12.384v5.027a2.8,2.8,0,0,1-2.8,2.8H400.9a2.8,2.8,0,0,1-2.8-2.8Z" transform="translate(-308.66 -144.619)" fill="#cb97e7"/>
        <path id="Trazado_1085866" data-name="Trazado 1085866" d="M417.433,185.653v5.027a2.8,2.8,0,0,1-2.8,2.8h5.778a2.8,2.8,0,0,0,2.8-2.8v-5.027Z" transform="translate(-321.384 -144.619)" fill="#bd80e1"/>
        <path id="Trazado_1085867" data-name="Trazado 1085867" d="M399.654,49.572l-2.035-1.242a8.31,8.31,0,0,0,0-3.525l2.035-1.242a.975.975,0,0,0,.324-1.341l-1.822-2.985a.975.975,0,0,0-1.341-.324l-2.035,1.242a8.289,8.289,0,0,0-2.554-1.433V36.338a.975.975,0,0,0-.975-.975h-3.5a.975.975,0,0,0-.975.975v2.384a8.291,8.291,0,0,0-2.554,1.433l-2.035-1.242a.975.975,0,0,0-1.341.324l-1.822,2.985a.975.975,0,0,0,.324,1.341l2.035,1.242a8.307,8.307,0,0,0,0,3.525l-2.035,1.242a.975.975,0,0,0-.324,1.341l1.822,2.985a.975.975,0,0,0,1.341.324l2.035-1.242a8.289,8.289,0,0,0,2.554,1.433V56.8a.975.975,0,0,0,.975.975h3.5a.975.975,0,0,0,.975-.975V54.414a8.291,8.291,0,0,0,2.554-1.433l2.035,1.242a.975.975,0,0,0,1.34-.324l1.822-2.985a.975.975,0,0,0-.324-1.341Z" transform="translate(-293.867 -28.945)" fill="#a79ba7"/>
        <path id="Trazado_1085868" data-name="Trazado 1085868" d="M399.654,49.572l-2.035-1.242a8.31,8.31,0,0,0,0-3.525l2.035-1.242a.975.975,0,0,0,.324-1.341l-1.822-2.985a.975.975,0,0,0-1.341-.324l-2.035,1.242a8.289,8.289,0,0,0-2.554-1.433V36.338a.975.975,0,0,0-.975-.975h-3.5a.975.975,0,0,0-.975.975v2.384a8.291,8.291,0,0,0-2.554,1.433l-2.035-1.242a.975.975,0,0,0-1.341.324l-1.822,2.985a.975.975,0,0,0,.324,1.341l2.035,1.242a8.307,8.307,0,0,0,0,3.525l-2.035,1.242a.975.975,0,0,0-.324,1.341l1.822,2.985a.975.975,0,0,0,1.341.324l2.035-1.242a8.289,8.289,0,0,0,2.554,1.433V56.8a.975.975,0,0,0,.975.975h3.5a.975.975,0,0,0,.975-.975V54.414a8.291,8.291,0,0,0,2.554-1.433l2.035,1.242a.975.975,0,0,0,1.34-.324l1.822-2.985a.975.975,0,0,0-.324-1.341Z" transform="translate(-293.867 -28.945)" fill="#a79ba7"/>
        <path id="Trazado_1085869" data-name="Trazado 1085869" d="M428.73,49.572l-2.035-1.242a8.309,8.309,0,0,0,0-3.525l2.035-1.242a.975.975,0,0,0,.324-1.341l-1.822-2.985a.975.975,0,0,0-1.341-.324l-2.035,1.242a8.3,8.3,0,0,0-2.554-1.434V36.337a.975.975,0,0,0-.975-.975h-2.354a15.649,15.649,0,0,1,3.885,10.579,15.164,15.164,0,0,1-5.2,11.815.972.972,0,0,0,.169.017h3.5a.975.975,0,0,0,.975-.975V54.414a8.286,8.286,0,0,0,2.554-1.434l2.035,1.242a.975.975,0,0,0,1.341-.324l1.822-2.985a.976.976,0,0,0-.325-1.341Z" transform="translate(-322.943 -28.944)" fill="#918291"/>
      </g>
      <g id="Grupo_1218011" data-name="Grupo 1218011" transform="translate(0 0)">
        <path id="Trazado_1085870" data-name="Trazado 1085870" d="M230.8,264.373a1.727,1.727,0,0,0,1.727-1.727v-4.182a1.727,1.727,0,0,0-3.455,0v4.182A1.728,1.728,0,0,0,230.8,264.373Z" transform="translate(-176.832 -197.602)"/>
        <path id="Trazado_1085871" data-name="Trazado 1085871" d="M190.426,239.308a1.727,1.727,0,0,0,1.727-1.727v-2.616a1.727,1.727,0,0,0-3.455,0v2.616A1.727,1.727,0,0,0,190.426,239.308Z" transform="translate(-145.759 -179.516)"/>
        <path id="Trazado_1085872" data-name="Trazado 1085872" d="M270.562,239.308a1.727,1.727,0,0,0,1.727-1.727v-2.616a1.727,1.727,0,1,0-3.455,0v2.616A1.727,1.727,0,0,0,270.562,239.308Z" transform="translate(-207.437 -179.516)"/>
        <path id="Trazado_1085873" data-name="Trazado 1085873" d="M92.007,148.273a26.663,26.663,0,0,0-6.64.836,12.425,12.425,0,0,0-.212-1.947L81.2,126.443a40.773,40.773,0,0,1-.718-7.605,10.032,10.032,0,0,0-10.031-10.031,1.727,1.727,0,0,0,0,3.455,6.577,6.577,0,0,1,6.576,6.576,44.248,44.248,0,0,0,.779,8.252l.613,3.211a8.08,8.08,0,0,0-3.611-.849H73.748a1.727,1.727,0,0,0-1.727,1.727V133.8c-5.311-1.295-12.135-8.359-14.524-11.246a1.728,1.728,0,0,0-1.331-.627h0a1.728,1.728,0,0,0-1.331.627c-2.368,2.863-9.093,9.826-14.384,11.208V131.18a1.727,1.727,0,0,0-1.727-1.727H37.663a8.078,8.078,0,0,0-3.612.849l.615-3.219a44.948,44.948,0,0,0,.779-8.244,6.584,6.584,0,0,1,6.576-6.576H62.373a1.727,1.727,0,0,0,0-3.455H42.022A10.042,10.042,0,0,0,31.99,118.838a41.6,41.6,0,0,1-.718,7.6l-3.957,20.727c-1.564,7.1,4.5,14.731,12.02,14.531h8.316v5.857H26.191a11.11,11.11,0,0,0-10.338,7.03H6.985a4.713,4.713,0,0,0-4.531,6.01L7.208,197.2a6.2,6.2,0,0,0,5.938,4.477h4.532a1.727,1.727,0,1,0,0-3.455H13.147a2.734,2.734,0,0,1-2.617-1.973L5.775,179.639a1.258,1.258,0,0,1,1.209-1.6H36.678a2.734,2.734,0,0,1,2.617,1.973l5.214,18.21H25.774a1.727,1.727,0,1,0,0,3.455H64.536a4.843,4.843,0,1,0,0-9.686H46.318l-3.7-12.93a6.2,6.2,0,0,0-5.938-4.477H31.484v-3.575H65.6a26.7,26.7,0,1,0,26.405-22.732ZM64.536,195.443a1.388,1.388,0,1,1,0,2.776H48.1l-.795-2.776H64.536ZM81.761,147.81a8.8,8.8,0,0,1,.122,2.459,26.749,26.749,0,0,0-7.457,4.628,11.538,11.538,0,0,0,1.05-4.815v-4.393a8.116,8.116,0,0,0,5.371-2.664ZM51.107,161.693H61.223v5.857H51.107Zm28.377-24.108a4.685,4.685,0,0,1-4.008,4.63v-9.26A4.685,4.685,0,0,1,79.484,137.585Zm-28.1-6.594a62.681,62.681,0,0,0,4.781-4.717,62.638,62.638,0,0,0,4.781,4.717c4.165,3.669,7.88,5.787,11.075,6.327v12.763a8.167,8.167,0,0,1-8.157,8.157H48.607a8.167,8.167,0,0,1-8.157-8.157V137.293c3.163-.577,6.83-2.686,10.934-6.3Zm-14.39,1.964v9.26a4.678,4.678,0,0,1,0-9.26Zm-4.426,22.1a8.751,8.751,0,0,1-1.859-7.242l.914-4.787a8.117,8.117,0,0,0,5.371,2.664v4.393a11.574,11.574,0,0,0,3.357,8.157,9.3,9.3,0,0,1-7.784-3.185ZM19.71,174.58a7.658,7.658,0,0,1,6.481-3.575h1.838v3.575Zm44.969-7.03v-5.857H68.85a26.56,26.56,0,0,0-2.492,5.857Zm27.329,30.668a23.245,23.245,0,1,1,23.245-23.245A23.272,23.272,0,0,1,92.007,198.219Z" transform="translate(-2.268 -83.746)"/>
        <path id="Trazado_1085874" data-name="Trazado 1085874" d="M323.479,307.207a20.469,20.469,0,1,0,20.469,20.469A20.492,20.492,0,0,0,323.479,307.207Zm0,37.484a17.014,17.014,0,1,1,17.014-17.014A17.034,17.034,0,0,1,323.479,344.69Z" transform="translate(-233.74 -236.448)"/>
        <path id="Trazado_1085875" data-name="Trazado 1085875" d="M390.832,341.99l-3,2.021v-9.633a1.727,1.727,0,1,0-3.455,0V347.26a1.728,1.728,0,0,0,2.693,1.432l5.691-3.837a1.728,1.728,0,0,0-1.931-2.865Z" transform="translate(-296.368 -256.032)"/>
        <path id="Trazado_1085876" data-name="Trazado 1085876" d="M347.154,33.863a17,17,0,0,1,5.1,9.079v4.846a4.531,4.531,0,0,0,4.526,4.526h6.787a4.531,4.531,0,0,0,4.525-4.526V42.954a17.209,17.209,0,0,1,5.255-9.122,19.5,19.5,0,0,0,6.345-14.375,19.458,19.458,0,1,0-32.535,14.405Zm17.481,13.925a1.072,1.072,0,0,1-1.071,1.071h-6.787a1.072,1.072,0,0,1-1.071-1.071v-3.3h8.929v3.3Zm-15.7-39.63A15.991,15.991,0,1,1,371.015,31.28,20.637,20.637,0,0,0,365,41.034h-9.657a20.055,20.055,0,0,0-5.871-9.729,15.96,15.96,0,0,1-.544-23.146Z" transform="translate(-262.806 0)"/>
        <path id="Trazado_1085877" data-name="Trazado 1085877" d="M377.312,49.923l1.057-.645a9.983,9.983,0,0,0,.905.508v1.238a2.706,2.706,0,0,0,2.7,2.7h3.5a2.706,2.706,0,0,0,2.7-2.7V49.786a9.95,9.95,0,0,0,.905-.508l1.057.645a2.706,2.706,0,0,0,3.715-.9l1.822-2.985a2.706,2.706,0,0,0-.9-3.715h0l-1.058-.645c.026-.295.039-.59.039-.884s-.013-.59-.039-.885l1.057-.645a2.7,2.7,0,0,0,.9-3.715l-1.822-2.986a2.7,2.7,0,0,0-3.715-.9l-1.057.645a9.888,9.888,0,0,0-.905-.508V30.564a2.706,2.706,0,0,0-2.7-2.7h-3.5a2.706,2.706,0,0,0-2.7,2.7V31.8a9.9,9.9,0,0,0-.905.508l-1.057-.645a2.707,2.707,0,0,0-3.715.9l-1.822,2.985a2.7,2.7,0,0,0,.9,3.715l1.058.646q-.039.442-.039.885c0,.294.013.59.039.884l-1.058.646a2.7,2.7,0,0,0-.9,3.715l1.822,2.986A2.706,2.706,0,0,0,377.312,49.923Zm-1.158-14.918,1.393.85a1.728,1.728,0,0,0,2-.141,6.543,6.543,0,0,1,2.023-1.135,1.728,1.728,0,0,0,1.161-1.632V31.316h1.993v1.632a1.728,1.728,0,0,0,1.161,1.632,6.539,6.539,0,0,1,2.023,1.135,1.729,1.729,0,0,0,2,.141l1.393-.85,1.038,1.7-1.393.85a1.727,1.727,0,0,0-.789,1.839,6.578,6.578,0,0,1,0,2.8,1.728,1.728,0,0,0,.789,1.839l1.393.85-1.038,1.7-1.393-.85a1.728,1.728,0,0,0-2,.141,6.545,6.545,0,0,1-2.022,1.135,1.727,1.727,0,0,0-1.161,1.632v1.632h-1.993V48.64a1.727,1.727,0,0,0-1.161-1.632,6.541,6.541,0,0,1-2.022-1.135,1.727,1.727,0,0,0-2-.141l-1.393.85-1.038-1.7,1.393-.85a1.728,1.728,0,0,0,.789-1.839,6.578,6.578,0,0,1,0-2.8,1.727,1.727,0,0,0-.789-1.839l-1.393-.85Z" transform="translate(-286.362 -21.444)"/>
        <circle id="Elipse_14458" data-name="Elipse 14458" cx="1.727" cy="1.727" r="1.727" transform="translate(95.636 17.622)"/>
      </g>
    </g>
  </g>
</svg>
