<svg xmlns="http://www.w3.org/2000/svg" width="107.389" height="105.711" viewBox="0 0 107.389 105.711">
  <g id="Grupo_1218261" data-name="Grupo 1218261" transform="translate(-220 -4247)">
    <path id="Trazado_1086495" data-name="Trazado 1086495" d="M0,0H69.635V105.711H0Z" transform="translate(257.754 4247)" fill="#f6f6f6"/>
    <g id="planificacion" transform="translate(220 4261.633)">
      <g id="Grupo_1218232" data-name="Grupo 1218232" transform="translate(32.931 1.213)">
        <path id="Trazado_1086270" data-name="Trazado 1086270" d="M220.551,45.175V43.168a8.475,8.475,0,0,0-16.951,0v2.007Z" transform="translate(-203.6 -34.693)" fill="#ffd15b"/>
      </g>
      <g id="Grupo_1218233" data-name="Grupo 1218233" transform="translate(32.931 1.213)">
        <path id="Trazado_1086271" data-name="Trazado 1086271" d="M209.035,45.175V43.168a8.506,8.506,0,0,1,5.758-8.023,8.4,8.4,0,0,0-2.717-.452,8.5,8.5,0,0,0-8.475,8.475v2.007Z" transform="translate(-203.6 -34.693)" fill="#ffc344"/>
      </g>
      <path id="Trazado_1086272" data-name="Trazado 1086272" d="M86.269,111.321h-7.9v42.072H72.9V111.321H64.527v5.929a1.617,1.617,0,0,1-1.617,1.617H32.477a1.617,1.617,0,0,1-1.617-1.617v-5.929H9.117A1.617,1.617,0,0,0,7.5,112.938V168.9a1.617,1.617,0,0,0,1.617,1.617H86.269a1.617,1.617,0,0,0,1.617-1.617V112.938A1.617,1.617,0,0,0,86.269,111.321Z" transform="translate(-6.287 -97.714)" fill="#9b5e5e"/>
      <path id="Trazado_1086273" data-name="Trazado 1086273" d="M19.226,168.9V165.53H13.3a.809.809,0,0,1-.809-.809v-47.6a.809.809,0,0,1,.809-.809h5.931v-3.369a1.617,1.617,0,0,1,1.617-1.617H9.117A1.617,1.617,0,0,0,7.5,112.938V168.9a1.617,1.617,0,0,0,1.617,1.617H20.844A1.617,1.617,0,0,1,19.226,168.9Z" transform="translate(-6.287 -97.714)" fill="#855151"/>
      <path id="Trazado_1086274" data-name="Trazado 1086274" d="M107.935,142.152h-3.724v37.085H98.747V142.152H90.371v.942a1.617,1.617,0,0,1-1.617,1.617H58.321a1.617,1.617,0,0,1-1.617-1.617v-.942H39.14a.809.809,0,0,0-.809.809v47.6a.809.809,0,0,0,.809.809h68.8a.809.809,0,0,0,.809-.809v-47.6A.809.809,0,0,0,107.935,142.152Z" transform="translate(-32.131 -123.558)" fill="#fff"/>
      <g id="Grupo_1218234" data-name="Grupo 1218234" transform="translate(6.2 18.594)">
        <path id="Trazado_1086275" data-name="Trazado 1086275" d="M39.14,142.152a.809.809,0,0,0-.809.809v47.6a.809.809,0,0,0,.809.809h5.931V142.152Z" transform="translate(-38.331 -142.152)" fill="#eaf9fa"/>
      </g>
      <g id="Grupo_1218235" data-name="Grupo 1218235" transform="translate(24.572 11.534)">
        <path id="Trazado_1086276" data-name="Trazado 1086276" d="M151.923,106.5v-6.384A1.617,1.617,0,0,1,153.54,98.5h30.433a1.617,1.617,0,0,1,1.617,1.617V106.5a1.617,1.617,0,0,1-1.617,1.617H153.54A1.617,1.617,0,0,1,151.923,106.5Z" transform="translate(-151.923 -98.502)" fill="#ffe177"/>
      </g>
      <g id="Grupo_1218236" data-name="Grupo 1218236" transform="translate(24.572 11.534)">
        <path id="Trazado_1086277" data-name="Trazado 1086277" d="M158.729,106.5v-6.384a1.617,1.617,0,0,1,1.617-1.617H153.54a1.617,1.617,0,0,0-1.617,1.617V106.5a1.617,1.617,0,0,0,1.617,1.617h6.806A1.617,1.617,0,0,1,158.729,106.5Z" transform="translate(-151.923 -98.502)" fill="#ffd15b"/>
      </g>
      <g id="Grupo_1218239" data-name="Grupo 1218239" transform="translate(31.702 39.152)">
        <g id="Grupo_1218237" data-name="Grupo 1218237">
          <path id="Trazado_1086278" data-name="Trazado 1086278" d="M214.6,277.825H196.809a.809.809,0,0,1-.809-.809v-6.955a.809.809,0,0,1,.809-.809H214.6a.809.809,0,0,1,.809.809v6.955A.809.809,0,0,1,214.6,277.825Z" transform="translate(-196 -269.253)" fill="#cb97e7"/>
        </g>
        <g id="Grupo_1218238" data-name="Grupo 1218238">
          <path id="Trazado_1086279" data-name="Trazado 1086279" d="M201.176,277.017v-6.955a.809.809,0,0,1,.809-.809h-5.176a.809.809,0,0,0-.809.809v6.955a.809.809,0,0,0,.809.809h5.176A.809.809,0,0,1,201.176,277.017Z" transform="translate(-196 -269.253)" fill="#bd80e1"/>
        </g>
      </g>
      <g id="Grupo_1218246" data-name="Grupo 1218246" transform="translate(11.808 26.649)">
        <g id="Grupo_1218240" data-name="Grupo 1218240">
          <path id="Trazado_1086280" data-name="Trazado 1086280" d="M87.922,201.389H73.816a.809.809,0,0,1-.809-.809v-7.817a.809.809,0,0,1,.809-.809H87.922a.809.809,0,0,1,.809.809v7.817A.809.809,0,0,1,87.922,201.389Z" transform="translate(-73.007 -191.955)" fill="#05e39c"/>
        </g>
        <g id="Grupo_1218241" data-name="Grupo 1218241">
          <path id="Trazado_1086281" data-name="Trazado 1086281" d="M78.505,200.581v-7.817a.809.809,0,0,1,.809-.809h-5.5a.809.809,0,0,0-.809.809v7.817a.809.809,0,0,0,.809.809h5.5A.809.809,0,0,1,78.505,200.581Z" transform="translate(-73.007 -191.955)" fill="#0ed290"/>
        </g>
        <g id="Grupo_1218242" data-name="Grupo 1218242" transform="translate(24.826 1.854)">
          <path id="Trazado_1086282" data-name="Trazado 1086282" d="M235.234,209.146h-7.925a.809.809,0,0,1-.809-.809v-4.108a.809.809,0,0,1,.809-.809h7.925a.809.809,0,0,1,.809.809v4.108A.809.809,0,0,1,235.234,209.146Z" transform="translate(-226.5 -203.42)" fill="#a6e7f0"/>
        </g>
        <g id="Grupo_1218243" data-name="Grupo 1218243" transform="translate(24.826 1.854)">
          <path id="Trazado_1086283" data-name="Trazado 1086283" d="M230.463,208.337v-4.108a.809.809,0,0,1,.809-.809h-3.963a.809.809,0,0,0-.809.809v4.108a.809.809,0,0,0,.809.809h3.963A.809.809,0,0,1,230.463,208.337Z" transform="translate(-226.5 -203.42)" fill="#6bd9e7"/>
        </g>
        <g id="Grupo_1218245" data-name="Grupo 1218245" transform="translate(43.472)">
          <path id="Trazado_1086284" data-name="Trazado 1086284" d="M353.113,191.955H342.587a.809.809,0,0,0-.809.809v7.817a.809.809,0,0,0,.809.809h10.526Z" transform="translate(-341.778 -191.955)" fill="#05e39c"/>
          <g id="Grupo_1218244" data-name="Grupo 1218244">
            <path id="Trazado_1086285" data-name="Trazado 1086285" d="M347.151,200.581v-7.817a.809.809,0,0,1,.809-.809h-5.373a.809.809,0,0,0-.809.809v7.817a.809.809,0,0,0,.809.809h5.373A.809.809,0,0,1,347.151,200.581Z" transform="translate(-341.778 -191.955)" fill="#0ed290"/>
          </g>
        </g>
      </g>
      <path id="Trazado_1086286" data-name="Trazado 1086286" d="M364.618,350.413v-2.649a5.457,5.457,0,1,0,1.289,6.352Z" transform="translate(-298.003 -294.733)" fill="#fe646f"/>
      <g id="Grupo_1218247" data-name="Grupo 1218247" transform="translate(57.5 51.622)">
        <path id="Trazado_1086287" data-name="Trazado 1086287" d="M359.549,351.812a5.458,5.458,0,0,1,3.434-5.068,5.457,5.457,0,1,0,0,10.136,5.457,5.457,0,0,1-3.434-5.068Z" transform="translate(-355.503 -346.355)" fill="#fb2b3a"/>
      </g>
      <g id="Grupo_1218255" data-name="Grupo 1218255" transform="translate(66.615 1.58)">
        <g id="Grupo_1218249" data-name="Grupo 1218249" transform="translate(0 0)">
          <g id="Grupo_1218248" data-name="Grupo 1218248">
            <path id="Trazado_1086288" data-name="Trazado 1086288" d="M417.323,38.576a1.617,1.617,0,0,0-1.617-1.617h-2.229a1.617,1.617,0,0,0-1.617,1.617V45.45h5.464Z" transform="translate(-411.859 -36.959)" fill="#fe99a0"/>
          </g>
        </g>
        <g id="Grupo_1218250" data-name="Grupo 1218250" transform="translate(0 0)">
          <path id="Trazado_1086289" data-name="Trazado 1086289" d="M415.914,36.974a1.635,1.635,0,0,0-.208-.015h-2.229a1.617,1.617,0,0,0-1.617,1.617V45.45H414.5V38.576A1.617,1.617,0,0,1,415.914,36.974Z" transform="translate(-411.859 -36.959)" fill="#fd8087"/>
        </g>
        <g id="Grupo_1218251" data-name="Grupo 1218251" transform="translate(0 8.491)">
          <path id="Trazado_1086290" data-name="Trazado 1086290" d="M411.859,89.457h5.464v45.609h-5.464Z" transform="translate(-411.859 -89.457)" fill="#ffe177"/>
        </g>
        <g id="Grupo_1218252" data-name="Grupo 1218252" transform="translate(0 8.491)">
          <path id="Trazado_1086291" data-name="Trazado 1086291" d="M411.859,89.457H414.5v45.609h-2.646Z" transform="translate(-411.859 -89.457)" fill="#ffd15b"/>
        </g>
        <g id="Grupo_1218253" data-name="Grupo 1218253" transform="translate(0 54.1)">
          <path id="Trazado_1086292" data-name="Trazado 1086292" d="M415.049,377.971l2.274-6.532h-5.464l2.274,6.532A.485.485,0,0,0,415.049,377.971Z" transform="translate(-411.859 -371.439)" fill="#ffcebf"/>
        </g>
        <g id="Grupo_1218254" data-name="Grupo 1218254" transform="translate(0 54.1)">
          <path id="Trazado_1086293" data-name="Trazado 1086293" d="M414.5,371.439h-2.646l2.274,6.532a.485.485,0,0,0,.916,0l.865-2.483Z" transform="translate(-411.859 -371.439)" fill="#ffb09e"/>
        </g>
      </g>
      <g id="Grupo_1218256" data-name="Grupo 1218256" transform="translate(15.508 52.917)">
        <circle id="Elipse_14472" data-name="Elipse 14472" cx="4.162" cy="4.162" r="4.162" fill="#ffe177"/>
      </g>
      <g id="Grupo_1218257" data-name="Grupo 1218257" transform="translate(15.508 52.917)">
        <path id="Trazado_1086294" data-name="Trazado 1086294" d="M99.135,358.523a4.163,4.163,0,0,1,2.535-3.832,4.162,4.162,0,1,0,0,7.664A4.162,4.162,0,0,1,99.135,358.523Z" transform="translate(-95.881 -354.361)" fill="#ffd15b"/>
      </g>
      <g id="Grupo_1218258" data-name="Grupo 1218258" transform="translate(31.232 52.917)">
        <circle id="Elipse_14473" data-name="Elipse 14473" cx="4.162" cy="4.162" r="4.162" fill="#fe9738"/>
      </g>
      <g id="Grupo_1218259" data-name="Grupo 1218259" transform="translate(31.232 52.917)">
        <path id="Trazado_1086295" data-name="Trazado 1086295" d="M196.4,358.523a4.163,4.163,0,0,1,2.509-3.82,4.162,4.162,0,1,0,0,7.64A4.162,4.162,0,0,1,196.4,358.523Z" transform="translate(-193.096 -354.361)" fill="#fe860a"/>
      </g>
      <g id="Grupo_1218260" data-name="Grupo 1218260" transform="translate(0 0)">
        <path id="Trazado_1086296" data-name="Trazado 1086296" d="M79.982,39.586H73.293v-9.2a2.834,2.834,0,0,0-2.831-2.831H68.233a2.834,2.834,0,0,0-2.83,2.831v9.2H59.347a2.834,2.834,0,0,0-2.725-2.073H51.095V36.88a9.688,9.688,0,1,0-19.376,0v.632H26.19a2.833,2.833,0,0,0-2.725,2.073H2.831A2.834,2.834,0,0,0,0,42.417V98.378a2.834,2.834,0,0,0,2.831,2.831H79.982a2.834,2.834,0,0,0,2.831-2.831V42.417a2.834,2.834,0,0,0-2.831-2.831Zm-12.154-9.2a.4.4,0,0,1,.4-.4h2.229a.4.4,0,0,1,.4.4V36.05H67.828Zm.494,53.7h2.051l-.77,2.21h-.512Zm-2.851-.814,1.114,3.2A4.247,4.247,0,1,1,65.4,80.808v2.064a1.207,1.207,0,0,0,.069.4Zm-5.949-23.5H65.4v2.291H56.493V55.054H65.4v2.291H59.521a1.213,1.213,0,1,0,0,2.426Zm4.834,4.717H65.4v5.937l-1.047,1.047Zm-4.9-22.476H65.4v2.561H59.453ZM25.786,40.343a.4.4,0,0,1,.4-.4H41.244a1.213,1.213,0,1,0,0-2.426h-7.1V36.88a7.262,7.262,0,1,1,14.524,0v.632H46.905a1.213,1.213,0,0,0,0,2.426h9.717a.4.4,0,0,1,.4.4v6.384a.4.4,0,0,1-.4.4H26.19a.4.4,0,0,1-.4-.4Zm54.6,58.034a.4.4,0,0,1-.4.4H2.831a.4.4,0,0,1-.4-.4V42.417a.4.4,0,0,1,.4-.4H23.359v2.561H7.008a2.024,2.024,0,0,0-2.022,2.022V94.2a2.024,2.024,0,0,0,2.022,2.022h9.166a1.213,1.213,0,1,0,0-2.426H7.413V47h15.96a2.834,2.834,0,0,0,2.817,2.559H56.623A2.834,2.834,0,0,0,59.439,47H65.4v5.629H56.089a2.024,2.024,0,0,0-2.022,2.022v2.7H47.391V56.5a2.024,2.024,0,0,0-2.022-2.022H37.444A2.024,2.024,0,0,0,35.422,56.5v.841H28.745v-2.7a2.024,2.024,0,0,0-2.022-2.022H12.617A2.024,2.024,0,0,0,10.6,54.65v7.817a2.024,2.024,0,0,0,2.022,2.022h5.84v8.44l-1.3-1.3a1.213,1.213,0,0,0-1.715,1.715l3.372,3.372a1.213,1.213,0,0,0,1.715,0L23.9,73.343a1.213,1.213,0,0,0-1.715-1.715l-1.3,1.3v-8.44h5.84a2.024,2.024,0,0,0,2.022-2.022v-2.7h6.676v.841a2.024,2.024,0,0,0,2.022,2.022h7.925a2.024,2.024,0,0,0,2.022-2.022v-.841h6.676v2.7a2.024,2.024,0,0,0,2.022,2.022h5.84v6.984l-1.3-1.3a1.213,1.213,0,1,0-1.715,1.715l3.372,3.372a1.213,1.213,0,0,0,1.715,0l1.4-1.4v4.211a6.671,6.671,0,1,0,2.109,11.067l.232.667a1.7,1.7,0,0,0,3.208,0l2.273-6.532a1.207,1.207,0,0,0,.069-.4V70.185a1.213,1.213,0,0,0-2.426,0V81.658H67.829V38.476h3.038V64.524a1.213,1.213,0,1,0,2.426,0V47H75.4V93.8H21.835a1.213,1.213,0,1,0,0,2.426H75.8A2.024,2.024,0,0,0,77.826,94.2v-47.6A2.024,2.024,0,0,0,75.8,44.573H73.293V42.012h6.689a.4.4,0,0,1,.4.4ZM44.965,56.909v3.3H37.848v-3.3ZM26.319,55.054v7.008h-13.3V55.054Z" transform="translate(0 -27.192)"/>
        <path id="Trazado_1086297" data-name="Trazado 1086297" d="M190.522,272.751h17.792a2.024,2.024,0,0,0,2.022-2.022v-6.955a2.024,2.024,0,0,0-2.022-2.022H190.522a2.024,2.024,0,0,0-2.022,2.022v6.955A2.024,2.024,0,0,0,190.522,272.751Zm.4-8.572h16.983v6.146H190.926Z" transform="translate(-158.011 -223.814)"/>
        <path id="Trazado_1086298" data-name="Trazado 1086298" d="M227.05,288.253H216.213a1.213,1.213,0,0,0,0,2.426H227.05a1.213,1.213,0,1,0,0-2.426Z" transform="translate(-180.225 -246.028)"/>
        <path id="Trazado_1086299" data-name="Trazado 1086299" d="M248.605,63.86a1.213,1.213,0,0,0-1.213-1.213h-1.11a1.213,1.213,0,0,0,0,2.426h1.11A1.213,1.213,0,0,0,248.605,63.86Z" transform="translate(-205.431 -56.912)"/>
        <path id="Trazado_1086300" data-name="Trazado 1086300" d="M98.993,353.45h5.253a5.374,5.374,0,0,0,10.471,0H124.4l-1.3,1.3a1.213,1.213,0,1,0,1.715,1.715l3.372-3.372a1.213,1.213,0,0,0,0-1.715l-3.372-3.372a1.213,1.213,0,0,0-1.715,1.715l1.3,1.3h-9.687a5.374,5.374,0,0,0-10.471,0H98.993a5.375,5.375,0,1,0,0,2.426Zm10.488-4.162a2.949,2.949,0,1,1-2.949,2.949A2.952,2.952,0,0,1,109.481,349.288Zm-15.724,5.9a2.949,2.949,0,1,1,2.949-2.949A2.952,2.952,0,0,1,93.757,355.186Z" transform="translate(-74.087 -295.158)"/>
        <path id="Trazado_1086301" data-name="Trazado 1086301" d="M188.713,123.164h19.733a1.213,1.213,0,0,0,0-2.426H188.713a1.213,1.213,0,1,0,0,2.426Z" transform="translate(-157.173 -105.608)"/>
        <path id="Trazado_1086302" data-name="Trazado 1086302" d="M92.827,216.046h7.278a1.213,1.213,0,1,0,0-2.426H92.827a1.213,1.213,0,1,0,0,2.426Z" transform="translate(-76.796 -183.467)"/>
      </g>
    </g>
  </g>
</svg>
