<svg xmlns="http://www.w3.org/2000/svg" xmlns:xlink="http://www.w3.org/1999/xlink" width="93.934" height="93.934" viewBox="0 0 93.934 93.934">
  <defs>
    <filter id="Trazado_978624" x="0" y="0" width="93.934" height="93.934" filterUnits="userSpaceOnUse">
      <feOffset dy="3" input="SourceAlpha"/>
      <feGaussianBlur stdDeviation="3" result="blur"/>
      <feFlood flood-opacity="0.161"/>
      <feComposite operator="in" in2="blur"/>
      <feComposite in="SourceGraphic"/>
    </filter>
  </defs>
  <g id="Grupo_1217834" data-name="Grupo 1217834" transform="translate(-609 -1004.533)">
    <g id="Grupo_1215434" data-name="Grupo 1215434" transform="translate(421 -47)">
      <g id="Grupo_1181206" data-name="Grupo 1181206" transform="translate(-421 -614)">
        <g id="Grupo_1211237" data-name="Grupo 1211237" transform="translate(0 -377.186)">
          <g id="Grupo_1208063" data-name="Grupo 1208063" transform="translate(412 612.719)">
            <g id="Grupo_1144123" data-name="Grupo 1144123" transform="translate(206 1436)">
              <g transform="matrix(1, 0, 0, 1, -9, -6)" filter="url(#Trazado_978624)">
                <g id="Trazado_978624-2" data-name="Trazado 978624" transform="translate(9 6)" fill="#eaf5fb">
                  <path d="M 37.966796875 74.43359375 C 33.04315185546875 74.43359375 28.26757431030273 73.46962738037109 23.77274131774902 71.56847381591797 C 19.43047523498535 69.73184967041016 15.53040790557861 67.10224914550781 12.18087482452393 63.75271987915039 C 8.831341743469238 60.4031867980957 6.201741218566895 56.50312042236328 4.365118980407715 52.16086196899414 C 2.463963508605957 47.66601943969727 1.499996900558472 42.89044189453125 1.499996900558472 37.966796875 C 1.499996900558472 33.04315185546875 2.463963508605957 28.26757431030273 4.365118980407715 23.77274131774902 C 6.201741218566895 19.43047523498535 8.831341743469238 15.53040790557861 12.18087482452393 12.18087482452393 C 15.53040790557861 8.831341743469238 19.43047523498535 6.201741218566895 23.77274131774902 4.365118980407715 C 28.26757431030273 2.463963508605957 33.04315185546875 1.499996900558472 37.966796875 1.499996900558472 C 42.89044189453125 1.499996900558472 47.66601943969727 2.463963508605957 52.16086196899414 4.365118980407715 C 56.50312042236328 6.201741218566895 60.4031867980957 8.831341743469238 63.75271987915039 12.18087482452393 C 67.10224914550781 15.53040790557861 69.73184967041016 19.43047523498535 71.56847381591797 23.77274131774902 C 73.46962738037109 28.26757431030273 74.43359375 33.04315185546875 74.43359375 37.966796875 C 74.43359375 42.89044189453125 73.46962738037109 47.66601943969727 71.56847381591797 52.16086196899414 C 69.73184967041016 56.50313186645508 67.10224914550781 60.4031867980957 63.75271987915039 63.75271987915039 C 60.4031867980957 67.10224914550781 56.50313186645508 69.73184967041016 52.16086196899414 71.56847381591797 C 47.66601943969727 73.46962738037109 42.89044189453125 74.43359375 37.966796875 74.43359375 Z" stroke="none"/>
                  <path d="M 37.966796875 3 C 33.2449836730957 3 28.66600799560547 3.924095153808594 24.35705947875977 5.746635437011719 C 20.19359588623047 7.507621765136719 16.45379638671875 10.02927398681641 13.24153518676758 13.24153518676758 C 10.02927398681641 16.45379638671875 7.507621765136719 20.19359588623047 5.746635437011719 24.35705947875977 C 3.924095153808594 28.66600799560547 3 33.2449836730957 3 37.966796875 C 3 42.6886100769043 3.924095153808594 47.26758575439453 5.746635437011719 51.57653427124023 C 7.507621765136719 55.73999786376953 10.02927398681641 59.47979736328125 13.24153518676758 62.69205856323242 C 16.45379638671875 65.90431976318359 20.19359588623047 68.42597198486328 24.35705947875977 70.18695831298828 C 28.66600799560547 72.00949859619141 33.2449836730957 72.93359375 37.966796875 72.93359375 C 42.6886100769043 72.93359375 47.26758575439453 72.00949859619141 51.57653427124023 70.18695831298828 C 55.73999786376953 68.42597198486328 59.47979736328125 65.90431976318359 62.69205856323242 62.69205856323242 C 65.90431976318359 59.47979736328125 68.42597198486328 55.73999786376953 70.18695831298828 51.57653427124023 C 72.00949859619141 47.26758575439453 72.93359375 42.6886100769043 72.93359375 37.966796875 C 72.93359375 33.2449836730957 72.00949859619141 28.66600799560547 70.18695831298828 24.35705947875977 C 68.42597198486328 20.19359588623047 65.90431976318359 16.45379638671875 62.69205856323242 13.24153518676758 C 59.47979736328125 10.02927398681641 55.73999786376953 7.507621765136719 51.57653427124023 5.746635437011719 C 47.26758575439453 3.924095153808594 42.6886100769043 3 37.966796875 3 M 37.966796875 0 C 58.93528366088867 0 75.93359375 16.99831008911133 75.93359375 37.966796875 C 75.93359375 58.93528366088867 58.93528366088867 75.93359375 37.966796875 75.93359375 C 16.99831008911133 75.93359375 0 58.93528366088867 0 37.966796875 C 0 16.99831008911133 16.99831008911133 0 37.966796875 0 Z" stroke="none" fill="#3ea6db"/>
                </g>
              </g>
            </g>
          </g>
        </g>
      </g>
    </g>
    <g id="limite-de-tiempo_2_" data-name="limite-de-tiempo (2)" transform="translate(623.429 999.745)">
      <g id="Grupo_1217832" data-name="Grupo 1217832" transform="translate(0.954 27.469)">
        <g id="Grupo_1217821" data-name="Grupo 1217821" transform="translate(10.264)">
          <path id="Trazado_1085374" data-name="Trazado 1085374" d="M151.675,68.43a21.8,21.8,0,0,0-15.713,6.661l2.314,4.007a17.465,17.465,0,0,1,29.1,18.842,11.82,11.82,0,0,1,4.947-.443A21.878,21.878,0,0,0,151.675,68.43Z" transform="translate(-129.9 -68.43)" fill="#fe646f"/>
          <path id="Trazado_1085375" data-name="Trazado 1085375" d="M117.936,269.776A17.469,17.469,0,0,1,92.694,256.2H88.268a21.882,21.882,0,0,0,29.3,18.537,11.8,11.8,0,0,1,.365-4.955Z" transform="translate(-88.268 -232.33)" fill="#fe646f"/>
        </g>
        <g id="Grupo_1217824" data-name="Grupo 1217824" transform="translate(39.327 28.851)">
          <g id="Grupo_1217822" data-name="Grupo 1217822">
            <path id="Trazado_1085376" data-name="Trazado 1085376" d="M328.85,295.426a11.912,11.912,0,0,0-3.6.554,17.451,17.451,0,0,1-7.821,7.946,11.921,11.921,0,1,0,11.421-8.5Z" transform="translate(-316.93 -295.426)" fill="#05e39c"/>
          </g>
          <g id="Grupo_1217823" data-name="Grupo 1217823" transform="translate(9.256)">
            <path id="Trazado_1085377" data-name="Trazado 1085377" d="M392.415,295.426a11.953,11.953,0,0,0-2.665.3,11.923,11.923,0,0,1,0,23.242,11.921,11.921,0,1,0,2.665-23.541Z" transform="translate(-389.75 -295.426)" fill="#0ed290"/>
          </g>
        </g>
        <g id="Grupo_1217827" data-name="Grupo 1217827" transform="translate(14.69 4.404)">
          <g id="Grupo_1217825" data-name="Grupo 1217825">
            <path id="Trazado_1085378" data-name="Trazado 1085378" d="M140.441,103.077a17.425,17.425,0,0,0-13.4,6.265l5.349,9.264a2.622,2.622,0,0,1-2.27,3.932h-7.028a17.463,17.463,0,1,0,17.348-19.461Z" transform="translate(-123.093 -103.077)" fill="#fff"/>
          </g>
          <g id="Grupo_1217826" data-name="Grupo 1217826" transform="translate(14.681 0)">
            <path id="Trazado_1085379" data-name="Trazado 1085379" d="M241.264,103.077a17.6,17.6,0,0,0-2.668.2,17.465,17.465,0,0,1,0,34.52,17.464,17.464,0,1,0,2.668-34.723Z" transform="translate(-238.596 -103.077)" fill="#f3f0f3"/>
          </g>
        </g>
        <g id="Grupo_1217828" data-name="Grupo 1217828" transform="translate(29.912 19.74)">
          <circle id="Elipse_14435" data-name="Elipse 14435" cx="2.126" cy="2.126" r="2.126" fill="#fe646f"/>
        </g>
        <g id="Grupo_1217831" data-name="Grupo 1217831" transform="translate(0 2.069)">
          <g id="Grupo_1217829" data-name="Grupo 1217829" transform="translate(0 0)">
            <path id="Trazado_1085380" data-name="Trazado 1085380" d="M17.37,86.084,7.887,102.509a2.749,2.749,0,0,0,2.38,4.123H29.234a2.749,2.749,0,0,0,2.38-4.123L22.131,86.084A2.749,2.749,0,0,0,17.37,86.084Z" transform="translate(-7.514 -84.709)" fill="#ffd15b"/>
          </g>
          <g id="Grupo_1217830" data-name="Grupo 1217830" transform="translate(9.599)">
            <path id="Trazado_1085381" data-name="Trazado 1085381" d="M97.537,102.509,88.054,86.084a2.749,2.749,0,0,0-4.761,0l-.257.445,9.227,15.981a2.749,2.749,0,0,1-2.38,4.123h5.275a2.749,2.749,0,0,0,2.38-4.123Z" transform="translate(-83.036 -84.709)" fill="#ffc344"/>
          </g>
        </g>
      </g>
      <g id="Grupo_1217833" data-name="Grupo 1217833" transform="translate(-0.001 21.505)">
        <path id="Trazado_1085382" data-name="Trazado 1085382" d="M345.544,44.772c.438.215.876.445,1.3.684a.953.953,0,1,0,.935-1.662c-.456-.257-.926-.5-1.4-.734a.953.953,0,1,0-.839,1.712Z" transform="translate(-301.159 -40.236)"/>
        <path id="Trazado_1085383" data-name="Trazado 1085383" d="M381,66.757c.388.3.772.609,1.142.927a.953.953,0,1,0,1.243-1.445c-.4-.341-.809-.676-1.225-1A.953.953,0,0,0,381,66.757Z" transform="translate(-332.25 -59.513)"/>
        <path id="Trazado_1085384" data-name="Trazado 1085384" d="M306.442,30.242c.472.123.946.262,1.411.412a.953.953,0,1,0,.587-1.814c-.5-.162-1.009-.311-1.516-.443a.953.953,0,0,0-.482,1.845Z" transform="translate(-266.871 -27.494)"/>
        <path id="Trazado_1085385" data-name="Trazado 1085385" d="M436.42,130.552a.953.953,0,0,0,1.7-.854c-.235-.469-.487-.938-.748-1.392a.953.953,0,0,0-1.653.949c.243.423.477.859.7,1.3Z" transform="translate(-380.232 -114.314)"/>
        <path id="Trazado_1085386" data-name="Trazado 1085386" d="M462.9,248.929a.952.952,0,0,0-1.022.88c-.037.487-.087.979-.151,1.463a.953.953,0,1,0,1.89.249c.069-.519.123-1.048.162-1.57A.953.953,0,0,0,462.9,248.929Z" transform="translate(-403.034 -220.021)"/>
        <path id="Trazado_1085387" data-name="Trazado 1085387" d="M412.4,96.424a.953.953,0,1,0,1.5-1.173c-.323-.413-.661-.823-1.006-1.217a.953.953,0,0,0-1.434,1.256C411.78,95.657,412.1,96.038,412.4,96.424Z" transform="translate(-358.955 -84.531)"/>
        <path id="Trazado_1085388" data-name="Trazado 1085388" d="M462.807,207.021a.953.953,0,0,0-.83,1.062c.059.484.105.976.137,1.464a.953.953,0,0,0,.95.891l.063,0a.953.953,0,0,0,.889-1.014c-.034-.524-.084-1.052-.147-1.571A.953.953,0,0,0,462.807,207.021Z" transform="translate(-403.253 -183.435)"/>
        <path id="Trazado_1085389" data-name="Trazado 1085389" d="M452.8,167.354c.154.464.3.938.425,1.41a.953.953,0,1,0,1.84-.5c-.137-.507-.291-1.016-.457-1.514a.953.953,0,1,0-1.809.6Z" transform="translate(-395.21 -147.721)"/>
        <path id="Trazado_1085390" data-name="Trazado 1085390" d="M59.549,57.676q.126-.4.24-.806a.953.953,0,1,0-1.836-.516c-.03.108-.064.216-.1.324a12.776,12.776,0,0,0-2.935-1.021,22.85,22.85,0,0,0-3.946-20.369.953.953,0,0,0-1.5,1.175,20.944,20.944,0,0,1,3.538,18.93c-.269-.017-.539-.026-.812-.026a12.862,12.862,0,0,0-1.856.135A18.414,18.414,0,0,0,19.858,36.431L18.568,34.2a20.906,20.906,0,0,1,27.959-.8.953.953,0,0,0,1.235-1.453,22.814,22.814,0,0,0-30.172.561L16.4,30.436a3.779,3.779,0,0,0-.454-.627,25.8,25.8,0,0,1,17.05-6.4.953.953,0,0,0,0-1.907,27.7,27.7,0,0,0-18.722,7.239,3.747,3.747,0,0,0-1.08-.159,3.664,3.664,0,0,0-3.206,1.851L6.371,36.694a.953.953,0,1,0,1.651.953l3.613-6.258a1.8,1.8,0,0,1,3.11,0l9.483,16.426a1.8,1.8,0,0,1-1.555,2.693H3.707a1.8,1.8,0,0,1-1.555-2.693L5.8,41.5a.953.953,0,0,0-1.651-.953L.5,46.862a3.7,3.7,0,0,0,3.206,5.553H5.333a27.831,27.831,0,0,0,27.66,24.751.953.953,0,1,0,0-1.907A25.925,25.925,0,0,1,7.252,52.415h3.13a22.832,22.832,0,0,0,29.28,18.748,12.791,12.791,0,0,0,1.959,4.411.953.953,0,1,0,1.566-1.087,10.9,10.9,0,0,1-1.952-6.245,11.014,11.014,0,0,1,.31-2.6,18.542,18.542,0,0,0,7.888-8.014,10.968,10.968,0,1,1-3.328,19.731.953.953,0,0,0-1.061,1.584,12.871,12.871,0,0,0,14.5-21.266ZM39.368,69.257A20.92,20.92,0,0,1,12.307,52.415h2.528a18.417,18.417,0,0,0,24.6,14.173,12.985,12.985,0,0,0-.107,1.653q0,.511.04,1.016Zm-6.376-3.412a16.516,16.516,0,0,1-16.221-13.43h5.9a3.7,3.7,0,0,0,3.206-5.553l-5.028-8.709A16.508,16.508,0,1,1,32.993,65.845Z" transform="translate(0.001 -21.505)"/>
        <path id="Trazado_1085391" data-name="Trazado 1085391" d="M365.067,358.994h.016a.953.953,0,0,0,.706-.33l6.98-8.077a.953.953,0,1,0-1.443-1.247l-6.282,7.27-3.981-4.313a.953.953,0,0,0-1.4,1.293l4.705,5.1A.953.953,0,0,0,365.067,358.994Z" transform="translate(-313.727 -307.384)"/>
        <path id="Trazado_1085392" data-name="Trazado 1085392" d="M253.037,125.124a.953.953,0,0,0,.953-.953v-.759a.953.953,0,1,0-1.907,0v.759A.953.953,0,0,0,253.037,125.124Z" transform="translate(-220.044 -109.627)"/>
        <path id="Trazado_1085393" data-name="Trazado 1085393" d="M253.037,337.506a.953.953,0,0,0-.953.953v.759a.953.953,0,1,0,1.907,0v-.759A.953.953,0,0,0,253.037,337.506Z" transform="translate(-220.044 -297.342)"/>
        <path id="Trazado_1085394" data-name="Trazado 1085394" d="M356.622,233.922a.953.953,0,0,0,.953.953h.759a.953.953,0,1,0,0-1.907h-.759A.953.953,0,0,0,356.622,233.922Z" transform="translate(-311.295 -206.092)"/>
        <path id="Trazado_1085395" data-name="Trazado 1085395" d="M198.607,137.739a.953.953,0,0,0-1.651.953l.38.658a.953.953,0,1,0,1.651-.953Z" transform="translate(-171.811 -122.55)"/>
        <path id="Trazado_1085396" data-name="Trazado 1085396" d="M306.131,323.976a.953.953,0,0,0-1.651.953l.38.658a.953.953,0,1,0,1.651-.953Z" transform="translate(-265.668 -285.116)"/>
        <path id="Trazado_1085397" data-name="Trazado 1085397" d="M157.512,285.364l-.657.38a.953.953,0,1,0,.953,1.651l.658-.38a.953.953,0,1,0-.953-1.651Z" transform="translate(-136.502 -251.715)"/>
        <path id="Trazado_1085398" data-name="Trazado 1085398" d="M342.743,179.522a.953.953,0,0,0,1.3.349l.657-.38a.953.953,0,0,0-.953-1.651l-.657.38A.953.953,0,0,0,342.743,179.522Z" transform="translate(-299.068 -157.858)"/>
        <path id="Trazado_1085399" data-name="Trazado 1085399" d="M344.7,285.743l-.657-.38a.953.953,0,0,0-.953,1.651l.657.38a.953.953,0,0,0,.953-1.651Z" transform="translate(-299.068 -251.715)"/>
        <path id="Trazado_1085400" data-name="Trazado 1085400" d="M198.637,323.628a.953.953,0,0,0-1.3.349l-.38.658a.953.953,0,1,0,1.651.953l.38-.657A.953.953,0,0,0,198.637,323.628Z" transform="translate(-171.81 -285.116)"/>
        <path id="Trazado_1085401" data-name="Trazado 1085401" d="M304.829,139.7a.953.953,0,0,0,1.3-.349l.38-.658a.953.953,0,0,0-1.651-.953l-.38.658a.953.953,0,0,0,.349,1.3Z" transform="translate(-265.668 -122.55)"/>
        <path id="Trazado_1085402" data-name="Trazado 1085402" d="M97.238,130.487a.953.953,0,0,0,.953-.953v-7.2a.953.953,0,1,0-1.907,0v7.2A.953.953,0,0,0,97.238,130.487Z" transform="translate(-84.047 -108.686)"/>
        <path id="Trazado_1085403" data-name="Trazado 1085403" d="M96.285,209.449a.953.953,0,0,0,1.907,0v-.878a.953.953,0,1,0-1.907,0Z" transform="translate(-84.047 -183.963)"/>
        <path id="Trazado_1085404" data-name="Trazado 1085404" d="M246.485,164.14h-5.121a3.092,3.092,0,0,0-1.974-1.974v-7.095a.953.953,0,0,0-1.906,0v7.095a3.079,3.079,0,1,0,3.881,3.881h5.121a.953.953,0,1,0,0-1.907Zm-8.048,2.126a1.173,1.173,0,1,1,1.173-1.173A1.174,1.174,0,0,1,238.437,166.266Z" transform="translate(-205.444 -137.263)"/>
      </g>
    </g>
  </g>
</svg>
