<svg xmlns="http://www.w3.org/2000/svg" width="94" height="83" viewBox="0 0 94 83">
  <g id="Grupo_1218339" data-name="Grupo 1218339" transform="translate(-628 -6744.347)">
    <rect id="Rectángulo_421442" data-name="Rectángulo 421442" width="63" height="83" transform="translate(659 6744.347)" fill="#f6f6f6"/>
    <g id="donar" transform="translate(628 6746.769)">
      <g id="Grupo_1218334" data-name="Grupo 1218334" transform="translate(10.051 16.073)">
        <g id="XMLID_1050_" transform="translate(0 12.318)">
          <path id="XMLID_79_" d="M82.434,181.016a8.066,8.066,0,0,0-6.156,1.13,8.065,8.065,0,0,0-6.156-1.13c-4.307,1.06-7.125,4.653-5.784,10.1s6.336,10.694,10.643,9.633a4.835,4.835,0,0,0,1.3-.532,4.834,4.834,0,0,0,1.3.532c4.307,1.06,9.3-4.183,10.643-9.633s-1.477-9.043-5.784-10.1Z" transform="translate(-64.002 -180.81)" fill="#ff7d97"/>
        </g>
        <ellipse id="XMLID_1424_" cx="3.528" cy="6.493" rx="3.528" ry="6.493" transform="matrix(0.937, -0.349, 0.349, 0.937, 4.622, 2.463)" fill="#a0e5a5"/>
      </g>
      <path id="Trazado_1086496" data-name="Trazado 1086496" d="M326.721,83.511V71.35A17.167,17.167,0,0,0,323.4,61.2a17.167,17.167,0,0,1-3.323-10.152v-.971h-9.3v.971A17.167,17.167,0,0,1,307.452,61.2a17.167,17.167,0,0,0-3.323,10.152V83.511Z" transform="translate(-256.373 -42.213)" fill="#66e0f7"/>
      <path id="Trazado_1086497" data-name="Trazado 1086497" d="M304.128,168.637V180.8H326.72V168.637a17.16,17.16,0,0,0-.295-3.151h-22A17.149,17.149,0,0,0,304.128,168.637Z" transform="translate(-256.372 -139.501)" fill="#fff"/>
      <g id="Grupo_1218335" data-name="Grupo 1218335" transform="translate(30.226 15.651)">
        <path id="XMLID_1171_" d="M217.662,108.094l-9.924,28.21a6.256,6.256,0,0,1-8.936,3.4,12.261,12.261,0,0,1-5.62-14.791l5.995-17.041a12.261,12.261,0,0,1,13.643-8.015A6.256,6.256,0,0,1,217.662,108.094Z" transform="translate(-192.486 -99.674)" fill="#ffcd69"/>
      </g>
      <path id="Trazado_1086498" data-name="Trazado 1086498" d="M344.844,16.294H334.158a1.468,1.468,0,0,1-1.468-1.468V11.469A1.468,1.468,0,0,1,334.158,10h10.686a1.468,1.468,0,0,1,1.468,1.468v3.357A1.468,1.468,0,0,1,344.844,16.294Z" transform="translate(-280.449 -8.431)" fill="#00ccf2"/>
      <g id="Grupo_1218337" data-name="Grupo 1218337" transform="translate(10.05 41.298)">
        <g id="Grupo_1218336" data-name="Grupo 1218336">
          <path id="Trazado_1086499" data-name="Trazado 1086499" d="M64,263h60.3v37.529H64Z" transform="translate(-64.002 -263.002)" fill="#ffcd69"/>
          <path id="Trazado_1086500" data-name="Trazado 1086500" d="M64,263l8.479,15.166H115.82L124.3,263Z" transform="translate(-64.002 -263.002)" fill="#ffe6b4"/>
        </g>
      </g>
      <path id="Trazado_1086501" data-name="Trazado 1086501" d="M123.668,422h10.1v6.281h-10.1Z" transform="translate(-104.248 -355.737)" fill="#fff"/>
      <g id="Grupo_1218338" data-name="Grupo 1218338" transform="translate(0 0)">
        <path id="Trazado_1086502" data-name="Trazado 1086502" d="M80.195,55.7,71.915,40.89V29.138a18.613,18.613,0,0,0-3.627-11.08A15.483,15.483,0,0,1,65.278,9.3,3.043,3.043,0,0,0,67.43,6.4V3.039A3.041,3.041,0,0,0,64.392,0H53.706a3.041,3.041,0,0,0-3.038,3.038V6.4A3.043,3.043,0,0,0,52.822,9.3a15.71,15.71,0,0,1-1.061,5.2,7.844,7.844,0,0,0-.938-.223,13.794,13.794,0,0,0-15.39,9.041L33.3,29.373a10.213,10.213,0,0,0-4.45-2.3,8.856,8.856,0,0,0-3.565-.123,9.091,9.091,0,0,0-.274-5.325,9.745,9.745,0,0,0-6.6-5.815,1.569,1.569,0,0,0-1.759.654,9.746,9.746,0,0,0-1.2,8.715,8.7,8.7,0,0,0,.909,1.775c-.193.034-.385.071-.575.118a9.628,9.628,0,0,0-5.964,4.1,10.05,10.05,0,0,0-.969,7.908c.078.316.171.633.271.95a1.566,1.566,0,0,0-.454.505L.2,55.7a1.57,1.57,0,1,0,2.741,1.532l5.538-9.906v31.5a1.57,1.57,0,0,0,1.57,1.57h60.3a1.57,1.57,0,0,0,1.57-1.57v-31.5l5.538,9.906A1.57,1.57,0,0,0,80.195,55.7ZM55.837,27.556H68.693a15.818,15.818,0,0,1,.082,1.581V39.728H51.555ZM53.808,3.142H64.29V6.294H53.808ZM55.96,9.434h6.177a18.6,18.6,0,0,0,3.618,10.48,15.567,15.567,0,0,1,2.291,4.5H56.936a7.818,7.818,0,0,0-2.4-8.4A18.876,18.876,0,0,0,55.96,9.434Zm-5.67,7.944a4.686,4.686,0,0,1,3.626,6.173L48.226,39.729H32.99l2.311-6.57,2.012,4.2A1.57,1.57,0,1,0,40.146,36l-3.37-7.028s1.68-4.765,1.711-4.847l2.351,4.9a1.57,1.57,0,1,0,2.831-1.358l-3.251-6.78a10.66,10.66,0,0,1,9.872-3.508Zm-31.6,1.877a5.981,5.981,0,0,1,3.086,8.3,5.981,5.981,0,0,1-3.086-8.3ZM12.487,32.84a6.432,6.432,0,0,1,4.056-2.716,6.526,6.526,0,0,1,4.959.944,1.57,1.57,0,0,0,1.643,0,6.544,6.544,0,0,1,8.966,1.7l-2.448,6.96H12.348a12.5,12.5,0,0,1-.44-1.4,7.008,7.008,0,0,1,.579-5.487Zm-.87,44.418V47.325l5.538,9.906a1.57,1.57,0,0,0,1.371.8h14.6a1.57,1.57,0,1,0,0-3.141H19.448L12.724,42.869H67.668L60.944,54.894H47.262a1.57,1.57,0,0,0,0,3.141h14.6a1.57,1.57,0,0,0,1.371-.8l5.538-9.906V77.257H11.617Z" transform="translate(0.003 -0.001)"/>
        <path id="Trazado_1086503" data-name="Trazado 1086503" d="M125.34,412h-10.1a1.57,1.57,0,0,0-1.57,1.57v6.281a1.57,1.57,0,0,0,1.57,1.57h10.1a1.57,1.57,0,0,0,1.57-1.57v-6.281A1.57,1.57,0,0,0,125.34,412Zm-1.57,6.281h-6.961v-3.141h6.961Z" transform="translate(-95.819 -347.307)"/>
        <circle id="Elipse_14493" data-name="Elipse 14493" cx="1.57" cy="1.57" r="1.57" transform="translate(38.629 54.893)"/>
      </g>
    </g>
  </g>
</svg>
