<svg xmlns="http://www.w3.org/2000/svg" width="93.33" height="114" viewBox="0 0 93.33 114">
  <g id="Grupo_1218340" data-name="Grupo 1218340" transform="translate(-208.671 -8516)">
    <rect id="Rectángulo_421443" data-name="Rectángulo 421443" width="82" height="114" transform="translate(214 8516)" fill="#e6e6e6"/>
    <g id="plastic_11887378" transform="translate(200.772 8526.738)">
      <path id="Trazado_1086504" data-name="Trazado 1086504" d="M26.564,94.1a3.866,3.866,0,1,0,3.86,3.867A3.874,3.874,0,0,0,26.564,94.1Zm20.763,3.867a3.865,3.865,0,1,0,3.86-3.867A3.865,3.865,0,0,0,47.327,97.967Zm24.624,0A3.869,3.869,0,1,0,75.82,94.1,3.873,3.873,0,0,0,71.951,97.967Zm24.632,0a3.869,3.869,0,1,0,3.869-3.867A3.873,3.873,0,0,0,96.583,97.967Zm-62.386,0a7.638,7.638,0,1,1-7.634-7.64A7.646,7.646,0,0,1,34.2,97.967Zm16.99-7.64a7.639,7.639,0,1,1-7.634,7.64,7.65,7.65,0,0,1,7.634-7.64Zm24.632,0a7.639,7.639,0,1,1-7.634,7.64,7.65,7.65,0,0,1,7.634-7.64Zm24.632,0a7.639,7.639,0,1,1-7.643,7.64,7.648,7.648,0,0,1,7.643-7.64Zm-23.9-8.8a5.084,5.084,0,0,1-5.074-5.076V35.28a5.083,5.083,0,0,1,5.074-5.075H93.163a5.077,5.077,0,0,1,5.074,5.075V76.452a5.078,5.078,0,0,1-5.074,5.076ZM58.306,79.076a2.45,2.45,0,0,1-2.442,2.45H31.222a2.452,2.452,0,0,1-2.451-2.45V74.2a2.452,2.452,0,0,1,2.451-2.45H55.863a2.45,2.45,0,0,1,2.442,2.45v4.874ZM31.222,58.952A2.452,2.452,0,0,1,28.77,56.5V51.627a2.452,2.452,0,0,1,2.451-2.449H55.863a2.45,2.45,0,0,1,2.442,2.449V56.5a2.45,2.45,0,0,1-2.442,2.449Zm4.616-35.586V16.438h15.41v6.928Zm41.407-2.812H92.467v4.023H77.244Z" transform="translate(-8.941 -8.925)" fill="#a4d4ff" fill-rule="evenodd"/>
      <path id="Trazado_1086505" data-name="Trazado 1086505" d="M66.879,87.253a1.788,1.788,0,1,1-1.787,1.789,1.79,1.79,0,0,1,1.787-1.789Zm0,6.222a4.433,4.433,0,1,0-4.436-4.432A4.439,4.439,0,0,0,66.879,93.474ZM42.247,87.253a1.788,1.788,0,1,1-1.787,1.789,1.79,1.79,0,0,1,1.787-1.789Zm0,6.222a4.433,4.433,0,1,0-4.427-4.432A4.44,4.44,0,0,0,42.247,93.474Zm49.265-2.646A1.788,1.788,0,1,1,93.3,89.042a1.787,1.787,0,0,1-1.787,1.787Zm0-6.221a4.433,4.433,0,1,0,4.436,4.434A4.441,4.441,0,0,0,91.512,84.608Zm0,11.5a7.072,7.072,0,1,0-7.076-7.071A7.079,7.079,0,0,0,91.512,96.113Zm-17.983,0a9.687,9.687,0,0,0,0-14.144H84.854a9.707,9.707,0,0,0,0,14.144Zm-24.623,0a9.707,9.707,0,0,0,0-14.144H60.23a9.687,9.687,0,0,0,0,14.144Zm-24.632,0a9.687,9.687,0,0,0,0-14.144H35.6a9.687,9.687,0,0,0,0,14.144ZM10.547,89.042a7.072,7.072,0,1,0,7.076-7.073,7.081,7.081,0,0,0-7.076,7.073Zm38.775,0a7.072,7.072,0,1,0-7.076,7.071,7.083,7.083,0,0,0,7.076-7.071Zm24.632,0a7.072,7.072,0,1,0-7.076,7.071,7.083,7.083,0,0,0,7.076-7.071Zm17.556-9.718H17.623a9.717,9.717,0,1,0,0,19.434H91.512a9.717,9.717,0,0,0,0-19.434ZM15.828,89.042a1.791,1.791,0,1,1,1.8,1.787,1.8,1.8,0,0,1-1.8-1.787Zm6.223,0a4.431,4.431,0,1,1-4.427-4.434A4.432,4.432,0,0,1,22.05,89.042ZM20.4,65.276a1.885,1.885,0,0,1,1.885-1.884H46.923A1.884,1.884,0,0,1,48.8,65.276V70.15a1.883,1.883,0,0,1-1.876,1.884H22.281A1.885,1.885,0,0,1,20.4,70.15Zm0-11.287A1.886,1.886,0,0,1,22.281,52.1H46.923A1.884,1.884,0,0,1,48.8,53.99v4.875a1.884,1.884,0,0,1-1.876,1.884H22.281A1.887,1.887,0,0,1,20.4,58.864Zm0-11.288a1.885,1.885,0,0,1,1.885-1.883H46.923A1.883,1.883,0,0,1,48.8,42.7v4.876a1.883,1.883,0,0,1-1.876,1.883H22.281A1.885,1.885,0,0,1,20.4,47.578Zm8.578-19.443a1.324,1.324,0,0,0,.791-1.213V16.519h9.663v5.527a1.318,1.318,0,0,0,.8,1.213A14.223,14.223,0,0,1,48.8,36.291a1.884,1.884,0,0,1-1.876,1.884H22.281A1.886,1.886,0,0,1,20.4,36.291a14.231,14.231,0,0,1,8.578-13.032ZM27.464,8.08H41.74v5.795H27.464Zm-5.182,66.6H46.923a4.529,4.529,0,0,0,4.525-4.528V65.277a4.5,4.5,0,0,0-1.333-3.205,4.505,4.505,0,0,0,1.333-3.206V53.99a4.5,4.5,0,0,0-1.333-3.206,4.5,4.5,0,0,0,1.333-3.205V42.7A4.5,4.5,0,0,0,50.114,39.5a4.5,4.5,0,0,0,1.333-3.205A16.873,16.873,0,0,0,42.078,21.2V16.519h.987A1.325,1.325,0,0,0,44.389,15.2V6.757a1.326,1.326,0,0,0-1.324-1.323H26.139a1.326,1.326,0,0,0-1.324,1.323V15.2a1.325,1.325,0,0,0,1.324,1.322h.987V21.2a16.859,16.859,0,0,0-9.369,15.087A4.5,4.5,0,0,0,19.09,39.5,4.5,4.5,0,0,0,17.757,42.7v4.876a4.5,4.5,0,0,0,1.333,3.205,4.5,4.5,0,0,0-1.333,3.206v4.875a4.505,4.505,0,0,0,1.333,3.206,4.5,4.5,0,0,0-1.333,3.205V70.15a4.529,4.529,0,0,0,4.525,4.528ZM63.1,26.355a4.516,4.516,0,0,1,4.507-4.508H84.222a4.51,4.51,0,0,1,4.507,4.508V67.526a4.511,4.511,0,0,1-4.507,4.51H67.608a4.517,4.517,0,0,1-4.507-4.51Zm7.511-8.624H81.227V19.2H70.613ZM73.4,8.08h5.022a2.792,2.792,0,0,1,2.462,1.472H70.941A2.793,2.793,0,0,1,73.4,8.08Zm15.325,5.561a1.447,1.447,0,0,1-1.44,1.445h-1.68V12.2h1.68A1.446,1.446,0,0,1,88.729,13.641ZM68.87,15.086V12.2H82.96v2.89ZM67.608,74.681H84.222a7.162,7.162,0,0,0,7.156-7.154V26.355A7.162,7.162,0,0,0,84.222,19.2h-.356V17.731h3.422a4.09,4.09,0,0,0,0-8.179H83.707a5.458,5.458,0,0,0-5.28-4.118H73.4a5.458,5.458,0,0,0-5.28,4.118h-.578a1.325,1.325,0,0,0-1.324,1.322v5.534a1.325,1.325,0,0,0,1.324,1.323h.418V19.2h-.356a7.168,7.168,0,0,0-7.156,7.153V67.526a7.168,7.168,0,0,0,7.156,7.154Z" transform="translate(0 0)" fill="#1f4571" fill-rule="evenodd"/>
    </g>
  </g>
</svg>
