<svg xmlns="http://www.w3.org/2000/svg" xmlns:xlink="http://www.w3.org/1999/xlink" width="103" height="103" viewBox="0 0 103 103">
  <defs>
    <filter id="Trazado_978624" x="0" y="0" width="103" height="103" filterUnits="userSpaceOnUse">
      <feOffset dy="3" input="SourceAlpha"/>
      <feGaussianBlur stdDeviation="3" result="blur"/>
      <feFlood flood-opacity="0.161"/>
      <feComposite operator="in" in2="blur"/>
      <feComposite in="SourceGraphic"/>
    </filter>
  </defs>
  <g id="Grupo_1218370" data-name="Grupo 1218370" transform="translate(-195 -340.873)">
    <g id="Grupo_1218344" data-name="Grupo 1218344">
      <g id="Grupo_1217809" data-name="Grupo 1217809" transform="translate(204 346.873)">
        <g id="Grupo_1210955" data-name="Grupo 1210955">
          <g id="Grupo_1209912" data-name="Grupo 1209912">
            <g id="Grupo_1178144" data-name="Grupo 1178144">
              <g id="Grupo_1177896" data-name="Grupo 1177896">
                <g id="Grupo_1176881" data-name="Grupo 1176881">
                  <g id="Grupo_1175148" data-name="Grupo 1175148">
                    <g id="Grupo_1173798" data-name="Grupo 1173798">
                      <g id="Grupo_1171925" data-name="Grupo 1171925">
                        <g id="Grupo_1164524" data-name="Grupo 1164524">
                          <g id="Grupo_1144123" data-name="Grupo 1144123">
                            <g transform="matrix(1, 0, 0, 1, -9, -6)" filter="url(#Trazado_978624)">
                              <g id="Trazado_978624-2" data-name="Trazado 978624" transform="translate(9 6)" fill="#fef5ed">
                                <path d="M 42.5 83.5 C 36.96437835693359 83.5 31.59512901306152 82.41617584228516 26.54141235351562 80.27863311767578 C 21.65934181213379 78.21369171142578 17.27447128295898 75.25723266601562 13.50862312316895 71.49137878417969 C 9.742764472961426 67.72553253173828 6.786305904388428 63.34066009521484 4.721364498138428 58.45858764648438 C 2.583823442459106 53.40486907958984 1.5 48.03562164306641 1.5 42.5 C 1.5 36.96437835693359 2.583823442459106 31.59512901306152 4.721364498138428 26.54141235351562 C 6.786305904388428 21.65934181213379 9.742764472961426 17.27447128295898 13.50862312316895 13.50862312316895 C 17.27447128295898 9.742764472961426 21.65934181213379 6.786305904388428 26.54141235351562 4.721364498138428 C 31.59512901306152 2.583823442459106 36.96437835693359 1.5 42.5 1.5 C 48.03562164306641 1.5 53.40486907958984 2.583823442459106 58.45858764648438 4.721364498138428 C 63.34066009521484 6.786305904388428 67.72553253173828 9.742764472961426 71.49137878417969 13.50862312316895 C 75.25723266601562 17.27447128295898 78.21369171142578 21.65934181213379 80.27863311767578 26.54141235351562 C 82.41617584228516 31.59512901306152 83.5 36.96437835693359 83.5 42.5 C 83.5 48.03562164306641 82.41617584228516 53.40486907958984 80.27863311767578 58.45858764648438 C 78.21369171142578 63.34066009521484 75.25723266601562 67.72553253173828 71.49137878417969 71.49137878417969 C 67.72553253173828 75.25723266601562 63.34066009521484 78.21369171142578 58.45858764648438 80.27863311767578 C 53.40486907958984 82.41617584228516 48.03562164306641 83.5 42.5 83.5 Z" stroke="none"/>
                                <path d="M 42.5 3 C 37.16621398925781 3 31.99356079101562 4.043960571289062 27.125732421875 6.102882385253906 C 22.42246627807617 8.092185974121094 18.19785308837891 10.94070434570312 14.56928253173828 14.56928253173828 C 10.94070434570312 18.19785308837891 8.092185974121094 22.42246627807617 6.102882385253906 27.125732421875 C 4.043960571289062 31.99356079101562 3 37.16621398925781 3 42.5 C 3 47.83378601074219 4.043960571289062 53.00643920898438 6.102882385253906 57.87425231933594 C 8.092185974121094 62.57753372192383 10.94070434570312 66.80213165283203 14.56928253173828 70.43071746826172 C 18.19786834716797 74.05929565429688 22.42246627807617 76.90781402587891 27.125732421875 78.89711761474609 C 31.99356079101562 80.95603942871094 37.16621398925781 82 42.5 82 C 47.83378601074219 82 53.00642395019531 80.95603942871094 57.87425231933594 78.89711761474609 C 62.57753372192383 76.90781402587891 66.80213165283203 74.05929565429688 70.43071746826172 70.43071746826172 C 74.05929565429688 66.80213165283203 76.90781402587891 62.57753372192383 78.89711761474609 57.87425231933594 C 80.95603942871094 53.00642395019531 82 47.83378601074219 82 42.5 C 82 37.16621398925781 80.95603942871094 31.99356079101562 78.89711761474609 27.125732421875 C 76.90781402587891 22.42246627807617 74.05929565429688 18.19786834716797 70.43071746826172 14.56928253173828 C 66.80213165283203 10.94070434570312 62.57753372192383 8.092185974121094 57.87425231933594 6.102882385253906 C 53.00643920898438 4.043960571289062 47.83378601074219 3 42.5 3 M 42.5 0 C 65.97209167480469 0 85 19.02789306640625 85 42.5 C 85 65.97209167480469 65.97209167480469 85 42.5 85 C 19.02789306640625 85 0 65.97209167480469 0 42.5 C 0 19.02789306640625 19.02789306640625 0 42.5 0 Z" stroke="none" fill="#f9a858"/>
                              </g>
                            </g>
                          </g>
                        </g>
                      </g>
                    </g>
                  </g>
                </g>
              </g>
            </g>
          </g>
        </g>
      </g>
    </g>
    <g id="industria-40_1_" data-name="industria-40 (1)" transform="translate(209.564 352.437)">
      <g id="Grupo_1218368" data-name="Grupo 1218368" transform="translate(1.093 1.084)">
        <g id="Grupo_1218367" data-name="Grupo 1218367">
          <g id="Grupo_1218345" data-name="Grupo 1218345" transform="translate(0 40.07)">
            <path id="Trazado_1086517" data-name="Trazado 1086517" d="M7.574,286.4v4.476H79.269V286.4l-15.287-1.164Z" transform="translate(-7.574 -285.234)" fill="#72869e"/>
          </g>
          <g id="Grupo_1218346" data-name="Grupo 1218346" transform="translate(43.445 14.987)">
            <path id="Trazado_1086518" data-name="Trazado 1086518" d="M308.691,111.384v26.247h25.947v-15.2Z" transform="translate(-308.691 -111.384)" fill="#9ce3bf"/>
          </g>
          <g id="Grupo_1218347" data-name="Grupo 1218347" transform="translate(47.75 30.412)">
            <path id="Trazado_1086519" data-name="Trazado 1086519" d="M338.532,218.3h17.314v4.333H338.532Z" transform="translate(-338.532 -218.299)" fill="#c4e5f9"/>
          </g>
          <g id="Grupo_1218348" data-name="Grupo 1218348" transform="translate(47.75 30.412)">
            <path id="Trazado_1086520" data-name="Trazado 1086520" d="M338.532,218.3h3.219v4.333h-3.219Z" transform="translate(-338.532 -218.299)" fill="#a4d7f5"/>
          </g>
          <g id="Grupo_1218349" data-name="Grupo 1218349" transform="translate(10.987 6.658)">
            <path id="Trazado_1086521" data-name="Trazado 1086521" d="M83.723,53.66H90.2V71.044H83.723Z" transform="translate(-83.723 -53.66)" fill="#faef93"/>
          </g>
          <g id="Grupo_1218350" data-name="Grupo 1218350" transform="translate(10.987 6.658)">
            <path id="Trazado_1086522" data-name="Trazado 1086522" d="M86.87,67.9V53.66H83.723V71.044H90.2V67.9Z" transform="translate(-83.723 -53.66)" fill="#f6e23d"/>
          </g>
          <g id="Grupo_1218351" data-name="Grupo 1218351" transform="translate(21.785)">
            <path id="Trazado_1086523" data-name="Trazado 1086523" d="M158.564,7.511V24.189l6.474,2.892V7.511Z" transform="translate(-158.564 -7.511)" fill="#faef93"/>
          </g>
          <g id="Grupo_1218352" data-name="Grupo 1218352" transform="translate(21.785 0)">
            <path id="Trazado_1086524" data-name="Trazado 1086524" d="M161.657,22.266V7.511h-3.093V24.189l6.474,2.892v-3.3Z" transform="translate(-158.564 -7.511)" fill="#f6e23d"/>
          </g>
          <g id="Grupo_1218353" data-name="Grupo 1218353" transform="translate(2.312 23.923)">
            <path id="Trazado_1086525" data-name="Trazado 1086525" d="M23.6,173.32v17.31H38.782L39.705,182l-.923-8.683Z" transform="translate(-23.596 -173.32)" fill="#c4e5f9"/>
          </g>
          <g id="Grupo_1218354" data-name="Grupo 1218354" transform="translate(2.312 23.923)">
            <path id="Trazado_1086526" data-name="Trazado 1086526" d="M26.736,187.49V173.32H23.6v17.31H38.771l0-3.14Z" transform="translate(-23.596 -173.32)" fill="#a4d7f5"/>
          </g>
          <g id="Grupo_1218355" data-name="Grupo 1218355" transform="translate(6.548 32.579)">
            <path id="Trazado_1086527" data-name="Trazado 1086527" d="M52.957,233.314h6.631v8.654H52.957Z" transform="translate(-52.957 -233.314)" fill="#e8ab4c"/>
          </g>
          <g id="Grupo_1218356" data-name="Grupo 1218356" transform="translate(6.548 32.579)">
            <path id="Trazado_1086528" data-name="Trazado 1086528" d="M56.179,238.747v-5.433H52.957v8.655h6.631v-3.222Z" transform="translate(-52.957 -233.314)" fill="#df941e"/>
          </g>
          <g id="Grupo_1218357" data-name="Grupo 1218357" transform="translate(17.486 14.987)">
            <path id="Trazado_1086529" data-name="Trazado 1086529" d="M128.771,111.384v26.247h25.947v-15.2Z" transform="translate(-128.771 -111.384)" fill="#9ce3bf"/>
          </g>
          <g id="Grupo_1218358" data-name="Grupo 1218358" transform="translate(17.486 14.987)">
            <path id="Trazado_1086530" data-name="Trazado 1086530" d="M132.006,134.462V112.733l-3.235-1.349v26.247h25.947v-3.168Z" transform="translate(-128.771 -111.384)" fill="#7bdaa9"/>
          </g>
          <g id="Grupo_1218359" data-name="Grupo 1218359" transform="translate(43.434 14.987)">
            <path id="Trazado_1086531" data-name="Trazado 1086531" d="M311.847,134.462V112.733l-3.235-1.349v26.247h25.947v-3.168Z" transform="translate(-308.612 -111.384)" fill="#7bdaa9"/>
          </g>
          <g id="Grupo_1218360" data-name="Grupo 1218360" transform="translate(0 41.233)">
            <path id="Trazado_1086532" data-name="Trazado 1086532" d="M7.574,293.3H10.88v4.476H7.574Z" transform="translate(-7.574 -293.299)" fill="#61748b"/>
          </g>
          <g id="Grupo_1218361" data-name="Grupo 1218361" transform="translate(21.803 30.412)">
            <path id="Trazado_1086533" data-name="Trazado 1086533" d="M158.691,218.3H176v4.333H158.691Z" transform="translate(-158.691 -218.299)" fill="#c4e5f9"/>
          </g>
          <g id="Grupo_1218362" data-name="Grupo 1218362" transform="translate(21.803 30.412)">
            <path id="Trazado_1086534" data-name="Trazado 1086534" d="M158.691,218.3h3.219v4.333h-3.219Z" transform="translate(-158.691 -218.299)" fill="#a4d7f5"/>
          </g>
          <g id="Grupo_1218363" data-name="Grupo 1218363" transform="translate(46.668 22.842)">
            <path id="Trazado_1086535" data-name="Trazado 1086535" d="M331.032,165.83H333.2v2.161h-2.164Z" transform="translate(-331.032 -165.83)" fill="#fff"/>
          </g>
          <g id="Grupo_1218364" data-name="Grupo 1218364" transform="translate(20.723 22.842)">
            <path id="Trazado_1086536" data-name="Trazado 1086536" d="M151.208,165.83h2.164v2.161h-2.164Z" transform="translate(-151.208 -165.83)" fill="#fff"/>
          </g>
          <g id="Grupo_1218365" data-name="Grupo 1218365" transform="translate(50.999 22.842)">
            <path id="Trazado_1086537" data-name="Trazado 1086537" d="M361.048,165.83h2.164v2.161h-2.164Z" transform="translate(-361.048 -165.83)" fill="#fff"/>
          </g>
          <g id="Grupo_1218366" data-name="Grupo 1218366" transform="translate(5.466 27.168)">
            <path id="Trazado_1086538" data-name="Trazado 1086538" d="M45.458,195.81h2.164v2.164H45.458Z" transform="translate(-45.458 -195.81)" fill="#fff"/>
          </g>
        </g>
      </g>
      <g id="Grupo_1218369" data-name="Grupo 1218369">
        <path id="Trazado_1086539" data-name="Trazado 1086539" d="M71.631,41.189V26.34L43.52,14.35V25.417L30.5,19.863V0H21.86V6.543h2.164V2.167h4.31V18.94L24.024,17.1V8.71H21.86v7.468l-2.16-.921V6.566H11.062V23.855H2.386V41.189H.075v6.649H73.934V41.189h-2.3ZM13.226,8.733h4.31V23.855h-4.31ZM4.551,26.022H17.573v4.36h2.164V17.629L43.52,27.773V41.189H19.737V36.884H17.573v4.305H15.418V32.523H6.623v8.667H4.551Zm8.7,15.167H8.787v-6.5h4.467v6.5Zm58.516,4.482H2.239V43.356H56.477V41.189H45.684V17.629L69.467,27.773V41.189H58.642v2.167H71.769Z" transform="translate(-0.064)"/>
        <path id="Trazado_1086540" data-name="Trazado 1086540" d="M350.51,210.379H331.032v6.506H350.51Zm-2.164,4.339H333.2v-2.172h15.149Z" transform="translate(-283.271 -180.026)"/>
        <path id="Trazado_1086541" data-name="Trazado 1086541" d="M121.351,225.6h2.164v2.167h-2.164Z" transform="translate(-103.843 -193.051)"/>
        <path id="Trazado_1086542" data-name="Trazado 1086542" d="M151.191,216.885h19.478v-6.506H151.191Zm2.164-4.339H168.5v2.172H153.355Z" transform="translate(-129.377 -180.026)"/>
        <path id="Trazado_1086543" data-name="Trazado 1086543" d="M405.228,349.091a3.25,3.25,0,0,0-3.244-3.249H398.7v10.822h2.164v-3.637l3.167,3.643,1.632-1.423-2.669-3.07A3.253,3.253,0,0,0,405.228,349.091Zm-4.366-1.081h1.122a1.081,1.081,0,0,1,0,2.163h-1.122Z" transform="translate(-341.174 -295.944)"/>
        <path id="Trazado_1086544" data-name="Trazado 1086544" d="M109.1,345.692h-3.288v10.849l3.278.006C116.056,356.547,115.974,345.692,109.1,345.692Zm-.006,8.687-1.118,0v-6.518H109.1c1.816,0,3.031,1.11,3.031,3.292A2.881,2.881,0,0,1,109.1,354.379Z" transform="translate(-90.55 -295.816)"/>
        <path id="Trazado_1086545" data-name="Trazado 1086545" d="M461.493,341.29l-2.381,3.178-2.381-3.178L455,342.59l3.03,4.045v6.129h2.164v-6.129l3.03-4.045Z" transform="translate(-389.353 -292.049)"/>
        <path id="Trazado_1086546" data-name="Trazado 1086546" d="M260.485,354.409h-4.361l.01,2.167h4.361c4.268,0,4.24-6.506-.011-6.506h-1.1a1.07,1.07,0,0,1,0-2.141h4.327v-2.167h-4.327c-4.26,0-4.256,6.475,0,6.475h1.1A1.087,1.087,0,0,1,260.485,354.409Z" transform="translate(-219.171 -295.875)"/>
        <path id="Trazado_1086547" data-name="Trazado 1086547" d="M187.219,352.5a2.169,2.169,0,1,1-4.338,0v-6.486h-2.164V352.5a4.333,4.333,0,1,0,8.666,0v-6.486h-2.164Z" transform="translate(-154.643 -296.093)"/>
        <path id="Trazado_1086548" data-name="Trazado 1086548" d="M323.3,347.928h3.246v8.678h2.164v-8.678h3.246v-2.167H323.3Z" transform="translate(-276.652 -295.875)"/>
        <path id="Trazado_1086549" data-name="Trazado 1086549" d="M0,345.769H2.164V356.6H0Z" transform="translate(0 -295.882)"/>
        <path id="Trazado_1086550" data-name="Trazado 1086550" d="M37.757,352.6l-4.442-6.86H31.25v10.827h2.164v-6.691l4.322,6.673h2.186v-10.8H37.757Z" transform="translate(-26.741 -295.858)"/>
        <path id="Trazado_1086551" data-name="Trazado 1086551" d="M282.828,436.79a4.336,4.336,0,0,0-4.328,4.334v2.182a4.328,4.328,0,1,0,8.657,0v-2.182A4.336,4.336,0,0,0,282.828,436.79Zm2.164,6.516a2.164,2.164,0,1,1-4.328,0v-2.182a2.164,2.164,0,1,1,4.328,0Z" transform="translate(-238.318 -373.77)"/>
        <path id="Trazado_1086552" data-name="Trazado 1086552" d="M179.993,436.895h-2.164v5.418h-2.164v-5.418H173.5v7.585h4.328v3.251h2.164V444.48h2.164v-2.167h-2.164Z" transform="translate(-148.468 -373.86)"/>
        <path id="Trazado_1086553" data-name="Trazado 1086553" d="M248.658,496.979h2.164v2.167h-2.164Z" transform="translate(-212.782 -425.275)"/>
      </g>
    </g>
  </g>
</svg>
