<svg xmlns="http://www.w3.org/2000/svg" xmlns:xlink="http://www.w3.org/1999/xlink" width="103" height="103" viewBox="0 0 103 103">
  <defs>
    <filter id="Trazado_978624" x="0" y="0" width="103" height="103" filterUnits="userSpaceOnUse">
      <feOffset dy="3" input="SourceAlpha"/>
      <feGaussianBlur stdDeviation="3" result="blur"/>
      <feFlood flood-opacity="0.161"/>
      <feComposite operator="in" in2="blur"/>
      <feComposite in="SourceGraphic"/>
    </filter>
  </defs>
  <g id="Grupo_1218378" data-name="Grupo 1218378" transform="translate(-203.789 -1734.563)">
    <g id="Grupo_1217812" data-name="Grupo 1217812" transform="translate(212.789 1740.563)">
      <g id="Grupo_1211239" data-name="Grupo 1211239">
        <g id="Grupo_1210098" data-name="Grupo 1210098">
          <g id="Grupo_1178144" data-name="Grupo 1178144">
            <g id="Grupo_1177896" data-name="Grupo 1177896">
              <g id="Grupo_1176881" data-name="Grupo 1176881">
                <g id="Grupo_1175148" data-name="Grupo 1175148">
                  <g id="Grupo_1173798" data-name="Grupo 1173798">
                    <g id="Grupo_1171925" data-name="Grupo 1171925">
                      <g id="Grupo_1164524" data-name="Grupo 1164524">
                        <g id="Grupo_1144123" data-name="Grupo 1144123">
                          <g transform="matrix(1, 0, 0, 1, -9, -6)" filter="url(#Trazado_978624)">
                            <g id="Trazado_978624-2" data-name="Trazado 978624" transform="translate(9 6)" fill="#fff9e9">
                              <path d="M 42.5 83.5 C 36.96437835693359 83.5 31.59512901306152 82.41617584228516 26.54141235351562 80.27863311767578 C 21.65934181213379 78.21369171142578 17.27447128295898 75.25723266601562 13.50862312316895 71.49137878417969 C 9.742764472961426 67.72553253173828 6.786305904388428 63.34066009521484 4.721364498138428 58.45858764648438 C 2.583823442459106 53.40486907958984 1.5 48.03562164306641 1.5 42.5 C 1.5 36.96437835693359 2.583823442459106 31.59512901306152 4.721364498138428 26.54141235351562 C 6.786305904388428 21.65934181213379 9.742764472961426 17.27447128295898 13.50862312316895 13.50862312316895 C 17.27447128295898 9.742764472961426 21.65934181213379 6.786305904388428 26.54141235351562 4.721364498138428 C 31.59512901306152 2.583823442459106 36.96437835693359 1.5 42.5 1.5 C 48.03562164306641 1.5 53.40486907958984 2.583823442459106 58.45858764648438 4.721364498138428 C 63.34066009521484 6.786305904388428 67.72553253173828 9.742764472961426 71.49137878417969 13.50862312316895 C 75.25723266601562 17.27447128295898 78.21369171142578 21.65934181213379 80.27863311767578 26.54141235351562 C 82.41617584228516 31.59512901306152 83.5 36.96437835693359 83.5 42.5 C 83.5 48.03562164306641 82.41617584228516 53.40486907958984 80.27863311767578 58.45858764648438 C 78.21369171142578 63.34066009521484 75.25723266601562 67.72553253173828 71.49137878417969 71.49137878417969 C 67.72553253173828 75.25723266601562 63.34066009521484 78.21369171142578 58.45858764648438 80.27863311767578 C 53.40486907958984 82.41617584228516 48.03562164306641 83.5 42.5 83.5 Z" stroke="none"/>
                              <path d="M 42.5 3 C 37.16621398925781 3 31.99356079101562 4.043960571289062 27.125732421875 6.102882385253906 C 22.42246627807617 8.092185974121094 18.19785308837891 10.94070434570312 14.56928253173828 14.56928253173828 C 10.94070434570312 18.19785308837891 8.092185974121094 22.42246627807617 6.102882385253906 27.125732421875 C 4.043960571289062 31.99356079101562 3 37.16621398925781 3 42.5 C 3 47.83378601074219 4.043960571289062 53.00643920898438 6.102882385253906 57.87425231933594 C 8.092185974121094 62.57753372192383 10.94070434570312 66.80213165283203 14.56928253173828 70.43071746826172 C 18.19786834716797 74.05929565429688 22.42246627807617 76.90781402587891 27.125732421875 78.89711761474609 C 31.99356079101562 80.95603942871094 37.16621398925781 82 42.5 82 C 47.83378601074219 82 53.00642395019531 80.95603942871094 57.87425231933594 78.89711761474609 C 62.57753372192383 76.90781402587891 66.80213165283203 74.05929565429688 70.43071746826172 70.43071746826172 C 74.05929565429688 66.80213165283203 76.90781402587891 62.57753372192383 78.89711761474609 57.87425231933594 C 80.95603942871094 53.00642395019531 82 47.83378601074219 82 42.5 C 82 37.16621398925781 80.95603942871094 31.99356079101562 78.89711761474609 27.125732421875 C 76.90781402587891 22.42246627807617 74.05929565429688 18.19786834716797 70.43071746826172 14.56928253173828 C 66.80213165283203 10.94070434570312 62.57753372192383 8.092185974121094 57.87425231933594 6.102882385253906 C 53.00643920898438 4.043960571289062 47.83378601074219 3 42.5 3 M 42.5 0 C 65.97209167480469 0 85 19.02789306640625 85 42.5 C 85 65.97209167480469 65.97209167480469 85 42.5 85 C 19.02789306640625 85 0 65.97209167480469 0 42.5 C 0 19.02789306640625 19.02789306640625 0 42.5 0 Z" stroke="none" fill="#fc3"/>
                            </g>
                          </g>
                        </g>
                      </g>
                    </g>
                  </g>
                </g>
              </g>
            </g>
          </g>
        </g>
      </g>
    </g>
    <g id="descompostura" transform="translate(203.795 1746.261)">
      <g id="Grupo_1218377" data-name="Grupo 1218377" transform="translate(9.954 10.092)">
        <g id="Grupo_1218371" data-name="Grupo 1218371" transform="translate(12.494 8.816)">
          <path id="Trazado_1086554" data-name="Trazado 1086554" d="M130.189,95.161a2.641,2.641,0,0,0-1.867,4.507.784.784,0,0,1,0,1.108l-1.687,1.687a.784.784,0,0,1-1.108,0,2.641,2.641,0,0,0-4.507,1.867.783.783,0,0,1-.784.784h-2.386a.783.783,0,0,1-.784-.784,2.64,2.64,0,0,0-4.507-1.867.784.784,0,0,1-1.108,0l-1.687-1.687a.784.784,0,0,1,0-1.108,2.641,2.641,0,0,0-1.867-4.507.783.783,0,0,1-.784-.784V91.992a.783.783,0,0,1,.784-.784,2.641,2.641,0,0,0,1.867-4.507.784.784,0,0,1,0-1.108l1.687-1.687a.784.784,0,0,1,1.108,0,2.641,2.641,0,0,0,4.507-1.867.783.783,0,0,1,.784-.784h2.386a.783.783,0,0,1,.784.784,2.641,2.641,0,0,0,4.507,1.867.784.784,0,0,1,1.108,0l1.687,1.687a.784.784,0,0,1,0,1.108,2.641,2.641,0,0,0,1.867,4.507.783.783,0,0,1,.784.784v2.386A.783.783,0,0,1,130.189,95.161Z" transform="translate(-107.116 -81.257)" fill="#fdcd56" fill-rule="evenodd"/>
          <circle id="Elipse_14494" data-name="Elipse 14494" cx="5.731" cy="5.731" r="5.731" transform="translate(6.197 6.197)" fill="#f4f6f8"/>
        </g>
        <g id="Grupo_1218372" data-name="Grupo 1218372" transform="translate(35.091 0)">
          <path id="Trazado_1086555" data-name="Trazado 1086555" d="M279.749,33.678V27.4a.4.4,0,0,1,.248-.378,5.794,5.794,0,0,0,3.5-5.321,6.62,6.62,0,0,0-2.219-4.66.411.411,0,0,0-.652.333v3.919a.4.4,0,0,1-.206.356L277.91,23.1a.4.4,0,0,1-.411,0l-2.51-1.449a.4.4,0,0,1-.206-.356V17.375a.411.411,0,0,0-.652-.333,6.6,6.6,0,0,0-2.219,4.658,5.8,5.8,0,0,0,3.5,5.321.4.4,0,0,1,.248.378V31.79a.4.4,0,0,0,.206.356l3.27,1.888a.411.411,0,0,0,.617-.357ZM286.2,53.42l-6.091-6.091a.4.4,0,0,0-.4-.106l-3.647.977a.411.411,0,0,0-.184.688l7.426,7.426A2.046,2.046,0,1,0,286.2,53.42Z" transform="translate(-271.909 -16.961)" fill="#a9b0bb" fill-rule="evenodd"/>
        </g>
        <g id="Grupo_1218373" data-name="Grupo 1218373" transform="translate(44.928 13.244)">
          <path id="Trazado_1086556" data-name="Trazado 1086556" d="M362.527,124.925A2.161,2.161,0,0,0,361,128.612a.641.641,0,0,1,0,.907l-1.38,1.38a.641.641,0,0,1-.907,0,2.161,2.161,0,0,0-3.687,1.527.641.641,0,0,1-.641.641h-1.952a.641.641,0,0,1-.641-.641A2.16,2.16,0,0,0,348.1,130.9a.641.641,0,0,1-.907,0l-1.38-1.38a.641.641,0,0,1,0-.907,2.161,2.161,0,0,0-1.527-3.687.641.641,0,0,1-.641-.641v-1.952a.641.641,0,0,1,.641-.641A2.161,2.161,0,0,0,345.818,118a.641.641,0,0,1,0-.907l1.38-1.38a.641.641,0,0,1,.907,0,2.161,2.161,0,0,0,3.687-1.527.641.641,0,0,1,.641-.641h1.952a.641.641,0,0,1,.641.641,2.161,2.161,0,0,0,3.687,1.527.641.641,0,0,1,.907,0L361,117.1a.641.641,0,0,1,0,.907,2.161,2.161,0,0,0,1.527,3.687.641.641,0,0,1,.641.641v1.952A.641.641,0,0,1,362.527,124.925Z" transform="translate(-343.649 -113.548)" fill="#636c77" fill-rule="evenodd"/>
          <circle id="Elipse_14495" data-name="Elipse 14495" cx="4.689" cy="4.689" r="4.689" transform="translate(4.126 13.264) rotate(-76.7)" fill="#f4f6f8"/>
        </g>
        <path id="Trazado_1086557" data-name="Trazado 1086557" d="M210.076,50.119,211.8,53.98a.411.411,0,0,1-.375.579h-3.458a.411.411,0,0,1-.375-.579l1.729-3.861a.411.411,0,0,1,.751,0ZM204.39,21.648,202.883,17.7a.411.411,0,0,0-.675-.144L199.763,20a.411.411,0,0,0,.144.675l3.953,1.508a.411.411,0,0,0,.531-.531Zm19.624,5.442,1.508-3.953a.411.411,0,0,1,.675-.144l2.445,2.445a.411.411,0,0,1-.144.675l-3.953,1.508a.411.411,0,0,1-.531-.531Z" transform="translate(-174.46 -17.366)" fill="#f76c82" fill-rule="evenodd"/>
        <g id="Grupo_1218376" data-name="Grupo 1218376" transform="translate(0 37.543)">
          <g id="Grupo_1218375" data-name="Grupo 1218375" transform="translate(4.085)">
            <g id="Grupo_1218374" data-name="Grupo 1218374" transform="translate(0)">
              <path id="Trazado_1086558" data-name="Trazado 1086558" d="M59.266,292.886c-4.468,2.175-8.978,4.265-13.475,6.381l6.3,15.2,9.334-4.518a5.609,5.609,0,0,1,4.166-.348l9.884,2.888c3.132.915,7.017-.743,9.936-1.862l18.571-7.12c4.89-1.875,6.091-11.677-5.456-8.318l-13.247,3.853a4.217,4.217,0,0,0-2.963-2.965l-8.962-2.418C67.254,289.321,64.141,290.512,59.266,292.886Z" transform="translate(-45.791 -290.754)" fill="#efc7a4" fill-rule="evenodd"/>
              <path id="Trazado_1086559" data-name="Trazado 1086559" d="M206.814,333.215l-20.036-5.406a4.22,4.22,0,0,0,2.967,5.159l11.91,3.213A4.22,4.22,0,0,0,206.814,333.215Z" transform="translate(-167.32 -322.728)" fill="#d5a889" fill-rule="evenodd"/>
            </g>
          </g>
          <path id="Trazado_1086560" data-name="Trazado 1086560" d="M31.618,333.3l-4.754,1.974a2.033,2.033,0,0,1-2.651-1.094l-8.051-19.332a2.029,2.029,0,0,1,1.095-2.654l4.754-1.974a2.033,2.033,0,0,1,2.651,1.094l8.051,19.332a2.029,2.029,0,0,1-1.095,2.654Z" transform="translate(-15.999 -307.419)" fill="#e4e8eb" fill-rule="evenodd"/>
        </g>
      </g>
      <path id="Trazado_1086561" data-name="Trazado 1086561" d="M57.294,48.5a.684.684,0,1,1,.967,0A.685.685,0,0,1,57.294,48.5Zm4.314-31.373,1.248,1.248-2.017.769Zm-2.43,4.638a.968.968,0,0,0,.342-.063l5.405-2.062a.959.959,0,0,0,.336-1.575l-3.344-3.343a.959.959,0,0,0-1.575.337l-2.062,5.4a.96.96,0,0,0,.9,1.3Zm-21.4-10.08.77,2.017-2.017-.769ZM34.463,14.2l5.4,2.062a.96.96,0,0,0,1.239-1.239l-2.062-5.4a.96.96,0,0,0-1.576-.337l-3.343,3.342a.961.961,0,0,0,.337,1.576ZM44.31,46.457l.882-1.971.883,1.971Zm.882-5.279a.959.959,0,0,0-.876.568l-2.364,5.279a.96.96,0,0,0,.876,1.352h4.727a.96.96,0,0,0,.876-1.352l-2.363-5.279a.96.96,0,0,0-.876-.568ZM64.639,29.5a3.73,3.73,0,1,1-3.73,3.729A3.733,3.733,0,0,1,64.639,29.5Zm0,9.379a5.649,5.649,0,1,0-5.65-5.65A5.656,5.656,0,0,0,64.639,38.877ZM58.4,30.644a3.063,3.063,0,0,1-2.561,1.911V33.9a3.123,3.123,0,0,1,2.1,5.074l.952.951a3.123,3.123,0,0,1,5.075,2.1h1.345a3.123,3.123,0,0,1,5.073-2.1l.952-.951a3.123,3.123,0,0,1,2.1-5.074V32.555a3.123,3.123,0,0,1-2.1-5.075l-.952-.951a3.123,3.123,0,0,1-5.073-2.1H63.967a3.124,3.124,0,0,1-5.075,2.1l-.952.951a3.064,3.064,0,0,1,.461,3.163ZM56.369,28.6a1.2,1.2,0,0,1-.849,2.049,1.6,1.6,0,0,0-1.6,1.6V34.2a1.6,1.6,0,0,0,1.6,1.6,1.2,1.2,0,0,1,.849,2.049,1.6,1.6,0,0,0,0,2.264L57.75,41.5a1.6,1.6,0,0,0,2.263,0,1.2,1.2,0,0,1,2.049.849,1.6,1.6,0,0,0,1.6,1.6h1.953a1.6,1.6,0,0,0,1.6-1.6,1.2,1.2,0,0,1,2.05-.849,1.6,1.6,0,0,0,2.264,0l1.38-1.38a1.6,1.6,0,0,0,0-2.264,1.2,1.2,0,0,1,.849-2.049,1.6,1.6,0,0,0,1.6-1.6V32.252a1.6,1.6,0,0,0-1.6-1.6,1.2,1.2,0,0,1-.849-2.049,1.6,1.6,0,0,0,0-2.264l-1.38-1.38a1.6,1.6,0,0,0-2.264,0,1.2,1.2,0,0,1-2.05-.848,1.6,1.6,0,0,0-1.6-1.6H63.663a1.6,1.6,0,0,0-1.6,1.6,1.2,1.2,0,0,1-2.049.848,1.6,1.6,0,0,0-2.263,0l-1.381,1.38a1.6,1.6,0,0,0,0,2.264ZM52.791,41.495l-2.423.649L57.122,48.9a1.086,1.086,0,0,0,1.537-1.536Zm5.1,9.639A3.007,3.007,0,0,0,60.016,46l-6.259-6.259a.961.961,0,0,0-.927-.249L48.265,40.72a.96.96,0,0,0-.43,1.606l7.929,7.929a3,3,0,0,0,2.127.879ZM46.954,12.064v2.729a.96.96,0,0,0,.479.831l2.922,1.687a.958.958,0,0,0,.96,0l2.922-1.687a.961.961,0,0,0,.479-.832V12.06a6.021,6.021,0,0,1,.952,2.9,4.862,4.862,0,0,1-3.126,4.524.959.959,0,0,0-.621.9V25.99l-2.174-1.254V20.384a.96.96,0,0,0-.619-.9A4.859,4.859,0,0,1,46,14.963a6.017,6.017,0,0,1,.952-2.9Zm.875,8.947a6.8,6.8,0,0,1-3.748-6.049c0-1.97,1.341-5.172,3.524-5.912a.96.96,0,0,1,1.268.908v4.279l1.962,1.133L52.8,14.239V9.96a.96.96,0,0,1,1.264-.91c2.153.718,3.528,3.982,3.528,5.913a6.791,6.791,0,0,1-3.748,6.048v6.642a.96.96,0,0,1-1.44.832l-4.093-2.363a.96.96,0,0,1-.48-.831ZM71.893,59.552c2.029-.782,3.4-3.387,2.766-5.259-.669-1.976-3.518-2.437-7.621-1.234L54.62,56.7a5.173,5.173,0,0,1-6.489,5.408L36.216,58.918a.96.96,0,1,1,.5-1.854l11.916,3.193a3.248,3.248,0,1,0,1.681-6.275l-8.967-2.4a.977.977,0,0,1-.307-.144c-5.652-4.009-8.384-2.989-13.115-.675-2.463,1.2-4.9,2.365-7.206,3.454l5.556,13.342,3-1.458a6.583,6.583,0,0,1,4.853-.414l9.889,2.871c2.61.758,5.995-.559,8.714-1.618l.606-.235ZM25.784,72.185a1.067,1.067,0,0,1-.582.579l-4.755,1.974a1.071,1.071,0,0,1-1.4-.577L11,54.829a1.059,1.059,0,0,1,.577-1.4l4.755-1.975a1.072,1.072,0,0,1,1.4.578l8.051,19.332A1.064,1.064,0,0,1,25.784,72.185ZM76.477,53.678a4.588,4.588,0,0,0-3.257-2.925,12.5,12.5,0,0,0-6.723.465L54.111,54.851a5.153,5.153,0,0,0-3.3-2.723l-8.8-2.358c-6.423-4.5-9.866-3.209-14.928-.734-2.424,1.187-4.829,2.33-7.1,3.4L19.5,51.3a2.992,2.992,0,0,0-3.9-1.612L10.84,51.658a2.981,2.981,0,0,0-1.613,3.91L17.278,74.9a2.991,2.991,0,0,0,3.906,1.612l4.754-1.974a2.981,2.981,0,0,0,1.613-3.91l-.539-1.3,3.1-1.505a4.656,4.656,0,0,1,3.478-.3l9.89,2.873a8.026,8.026,0,0,0,2.243.3c2.629,0,5.384-1.074,7.7-1.974l.6-.233,18.56-7.152c3.005-1.157,4.861-4.812,3.894-7.665ZM34.374,26.2A4.771,4.771,0,1,1,29.6,30.968,4.777,4.777,0,0,1,34.374,26.2Zm0,11.463a6.691,6.691,0,1,0-6.692-6.691A6.7,6.7,0,0,0,34.374,37.659ZM23.4,29.948A3.6,3.6,0,0,0,25.9,23.934l1.443-1.443A3.6,3.6,0,0,0,33.353,20h2.041a3.6,3.6,0,0,0,6.014,2.491l1.444,1.443a3.6,3.6,0,0,0,2.491,6.014v2.041A3.6,3.6,0,0,0,42.851,38l-1.444,1.444a3.6,3.6,0,0,0-6.014,2.491H33.353a3.6,3.6,0,0,0-6.014-2.491L25.9,38A3.6,3.6,0,0,0,23.4,31.989V29.948ZM23.228,33.9a1.745,1.745,0,0,1-1.743-1.743V29.775a1.745,1.745,0,0,1,1.743-1.743,1.681,1.681,0,0,0,1.188-2.868,1.746,1.746,0,0,1,0-2.465L26.1,21.011a1.746,1.746,0,0,1,2.465,0,1.681,1.681,0,0,0,2.868-1.188,1.745,1.745,0,0,1,1.743-1.743h2.385a1.745,1.745,0,0,1,1.743,1.743,1.681,1.681,0,0,0,2.868,1.188,1.745,1.745,0,0,1,2.466,0L44.33,22.7a1.746,1.746,0,0,1,0,2.465,1.681,1.681,0,0,0,1.188,2.868,1.745,1.745,0,0,1,1.743,1.743v2.385A1.745,1.745,0,0,1,45.518,33.9a1.681,1.681,0,0,0-1.188,2.868,1.747,1.747,0,0,1,0,2.466l-1.687,1.687a1.745,1.745,0,0,1-2.466,0,1.682,1.682,0,0,0-2.868,1.188,1.745,1.745,0,0,1-1.743,1.744H33.181a1.745,1.745,0,0,1-1.743-1.744,1.68,1.68,0,0,0-2.868-1.188,1.745,1.745,0,0,1-2.465,0l-1.687-1.687a1.747,1.747,0,0,1,0-2.466A1.681,1.681,0,0,0,23.228,33.9Z" fill-rule="evenodd"/>
    </g>
  </g>
</svg>
